<svg width="24" height="24" viewBox="0 0 24 24" fill="none" xmlns="http://www.w3.org/2000/svg">
<path d="M12.0008 15.7086C11.8621 15.7091 11.7263 15.6684 11.6105 15.5918C11.4948 15.5152 11.4044 15.406 11.3506 15.278C11.2968 15.15 11.2822 15.009 11.3084 14.8727C11.3346 14.7364 11.4007 14.6109 11.4981 14.5121C11.5955 14.4132 11.7201 14.3455 11.8559 14.3173C11.9918 14.2892 12.133 14.3019 12.2617 14.3539C12.3903 14.4059 12.5007 14.4949 12.5789 14.6095C12.6571 14.7242 12.6996 14.8595 12.7011 14.9983V15.0081C12.7011 15.1001 12.683 15.1912 12.6478 15.2762C12.6126 15.3612 12.561 15.4384 12.496 15.5034C12.431 15.5685 12.3538 15.6201 12.2688 15.6553C12.1838 15.6905 12.0928 15.7086 12.0008 15.7086ZM12.0008 11.6971C11.9089 11.6971 11.8178 11.679 11.7328 11.6438C11.6479 11.6086 11.5707 11.557 11.5057 11.4919C11.4406 11.4269 11.3891 11.3497 11.3539 11.2647C11.3187 11.1797 11.3006 11.0886 11.3006 10.9966V8.99576C11.3002 8.90355 11.3181 8.81217 11.3531 8.72688C11.3881 8.64159 11.4397 8.56405 11.5047 8.49872C11.5698 8.43339 11.6471 8.38156 11.7322 8.34619C11.8174 8.31082 11.9086 8.29261 12.0008 8.29261C12.093 8.29261 12.1843 8.31082 12.2694 8.34619C12.3546 8.38156 12.4319 8.43339 12.4969 8.49872C12.562 8.56405 12.6135 8.64159 12.6486 8.72688C12.6836 8.81217 12.7014 8.90355 12.7011 8.99576V10.9966C12.7011 11.0886 12.683 11.1797 12.6478 11.2647C12.6126 11.3497 12.561 11.4269 12.496 11.4919C12.431 11.557 12.3538 11.6086 12.2688 11.6438C12.1838 11.679 12.0928 11.6971 12.0008 11.6971Z" fill="#FF6812"/>
<path d="M4.88977 19.6993C4.87805 19.6993 4.86682 19.6993 4.8551 19.6983C4.42474 19.6765 4.00587 19.5518 3.63349 19.3349C3.2611 19.118 2.94602 18.8151 2.71457 18.4515C2.48311 18.0879 2.34201 17.6742 2.30305 17.2449C2.26409 16.8156 2.3284 16.3832 2.49062 15.9839L9.63438 3.64268C9.8667 3.22497 10.2067 2.87716 10.6189 2.63541C11.0358 2.39444 11.5088 2.26758 11.9904 2.26758C12.4719 2.26758 12.9449 2.39444 13.3618 2.63541C13.7775 2.88065 14.1198 3.23287 14.3531 3.65538L21.4466 15.8969C21.6395 16.3293 21.7174 16.8041 21.6727 17.2755C21.6052 17.9375 21.2954 18.5512 20.803 18.9986C20.3106 19.446 19.6702 19.6956 19.005 19.6993H4.88977ZM11.9901 3.66125C11.758 3.66119 11.5301 3.72332 11.33 3.84118C11.13 3.95904 10.9652 4.12833 10.8528 4.33145L3.74464 16.5984C3.6973 16.7673 3.68141 16.9435 3.69777 17.1182C3.7255 17.4297 3.86479 17.7208 4.08999 17.9378C4.3152 18.1549 4.61118 18.2832 4.92347 18.2993C4.94837 18.2993 4.97377 18.2983 4.99917 18.2983H19.0006C19.2111 18.2964 19.418 18.2435 19.6036 18.1439C19.79 18.0423 19.9492 17.8972 20.0675 17.7209C20.1855 17.5444 20.2584 17.3418 20.2801 17.1306C20.3017 16.9194 20.2713 16.7062 20.1915 16.5095L13.1347 4.34415C13.0211 4.13601 12.8536 3.96224 12.6498 3.841C12.4498 3.7235 12.2221 3.66145 11.9901 3.66125Z" fill="#FF6812"/>
</svg>
