<svg width="20" height="20" viewBox="0 0 20 20" fill="none" xmlns="http://www.w3.org/2000/svg">
<path d="M10.0005 18.0844C8.40173 18.0844 6.83887 17.6103 5.50954 16.722C4.18022 15.8338 3.14414 14.5713 2.53232 13.0943C1.92049 11.6172 1.76041 9.99189 2.07232 8.42385C2.38422 6.8558 3.1541 5.41546 4.2846 4.28496C5.4151 3.15447 6.85544 2.38459 8.42348 2.07268C9.99153 1.76078 11.6169 1.92086 13.0939 2.53268C14.571 3.1445 15.8335 4.18059 16.7217 5.50991C17.6099 6.83923 18.084 8.4021 18.084 10.0009C18.0815 12.144 17.2291 14.1986 15.7137 15.7141C14.1983 17.2295 12.1436 18.0819 10.0005 18.0844ZM10.0005 3.08436C8.63254 3.08436 7.29531 3.49001 6.15789 4.25C5.02048 5.01 4.13398 6.09021 3.61048 7.35403C3.08699 8.61786 2.95002 10.0085 3.21689 11.3502C3.48377 12.6919 4.1425 13.9243 5.10979 14.8916C6.07708 15.8589 7.30948 16.5176 8.65115 16.7845C9.99282 17.0513 11.3835 16.9144 12.6473 16.3909C13.9112 15.8674 14.9914 14.9809 15.7514 13.8435C16.5113 12.7061 16.917 11.3688 16.917 10.0009C16.915 8.16711 16.1856 6.40905 14.889 5.1124C13.5923 3.81574 11.8342 3.08639 10.0005 3.08436Z" fill="#009D7B"/>
<path d="M9.16716 12.2512C9.09052 12.2513 9.01461 12.2362 8.94381 12.2069C8.873 12.1776 8.80868 12.1345 8.75456 12.0803L7.08789 10.4136C6.97912 10.304 6.9182 10.1558 6.91848 10.0014C6.91876 9.84705 6.98021 9.69906 7.08939 9.58989C7.19856 9.48072 7.34654 9.41927 7.50093 9.41899C7.65532 9.41871 7.80353 9.47963 7.91309 9.5884L9.16716 10.8429L12.0879 7.92173C12.1975 7.81296 12.3457 7.75204 12.5001 7.75232C12.6544 7.7526 12.8024 7.81405 12.9116 7.92322C13.0208 8.03239 13.0822 8.18038 13.0825 8.33477C13.0828 8.48916 13.0219 8.63737 12.9131 8.74693L9.57976 12.0803C9.52564 12.1345 9.46132 12.1776 9.39052 12.2069C9.31971 12.2362 9.2438 12.2513 9.16716 12.2512Z" fill="#009D7B"/>
</svg>
