<svg width="20" height="20" viewBox="0 0 20 20" fill="none" xmlns="http://www.w3.org/2000/svg">
<path d="M15.0002 18.0853H5.00017C4.40358 18.0847 3.83161 17.8474 3.40976 17.4256C2.98792 17.0037 2.75064 16.4317 2.75 15.8352V5.83515C2.75064 5.23857 2.98792 4.6666 3.40976 4.24475C3.83161 3.8229 4.40358 3.58563 5.00017 3.58499H15.0002C15.5968 3.58563 16.1687 3.8229 16.5906 4.24475C17.0124 4.6666 17.2497 5.23857 17.2503 5.83515V15.8352C17.2497 16.4317 17.0124 17.0037 16.5906 17.4256C16.1687 17.8474 15.5968 18.0847 15.0002 18.0853ZM5.00017 4.75199C4.71299 4.75229 4.43765 4.8665 4.23458 5.06957C4.03152 5.27264 3.9173 5.54797 3.917 5.83515V15.8352C3.9173 16.1223 4.03152 16.3977 4.23458 16.6007C4.43765 16.8038 4.71299 16.918 5.00017 16.9183H15.0002C15.2873 16.918 15.5627 16.8038 15.7657 16.6007C15.9688 16.3977 16.083 16.1223 16.0833 15.8352V5.83515C16.083 5.54797 15.9688 5.27264 15.7657 5.06957C15.5627 4.8665 15.2873 4.75229 15.0002 4.75199H5.00017Z" fill="#69778A"/>
<path d="M13.3335 6.41865C13.2569 6.41865 13.181 6.40356 13.1102 6.37424C13.0394 6.34492 12.9751 6.30194 12.9209 6.24775C12.8667 6.19357 12.8237 6.12924 12.7944 6.05845C12.7651 5.98766 12.75 5.91178 12.75 5.83515V2.50182C12.75 2.34707 12.8115 2.19865 12.9209 2.08922C13.0303 1.9798 13.1787 1.91832 13.3335 1.91832C13.4883 1.91832 13.6367 1.9798 13.7461 2.08922C13.8555 2.19865 13.917 2.34707 13.917 2.50182V5.83515C13.917 5.91178 13.9019 5.98766 13.8726 6.05845C13.8433 6.12924 13.8003 6.19357 13.7461 6.24775C13.6919 6.30194 13.6276 6.34492 13.5568 6.37424C13.486 6.40356 13.4101 6.41865 13.3335 6.41865Z" fill="#69778A"/>
<path d="M6.66683 6.41865C6.59021 6.41865 6.51433 6.40356 6.44354 6.37424C6.37274 6.34492 6.30842 6.30194 6.25423 6.24775C6.20005 6.19357 6.15707 6.12924 6.12775 6.05845C6.09842 5.98766 6.08333 5.91178 6.08333 5.83515V2.50182C6.08333 2.34707 6.14481 2.19865 6.25424 2.08922C6.36366 1.9798 6.51208 1.91832 6.66683 1.91832C6.82159 1.91832 6.97 1.9798 7.07943 2.08922C7.18886 2.19865 7.25033 2.34707 7.25033 2.50182V5.83515C7.25033 5.91178 7.23524 5.98766 7.20592 6.05845C7.1766 6.12924 7.13362 6.19357 7.07943 6.24775C7.02525 6.30194 6.96092 6.34492 6.89013 6.37424C6.81934 6.40356 6.74346 6.41865 6.66683 6.41865Z" fill="#69778A"/>
<path d="M16.6668 9.75199H3.3335C3.17875 9.75199 3.03033 9.69051 2.9209 9.58108C2.81148 9.47166 2.75 9.32324 2.75 9.16849C2.75 9.01373 2.81148 8.86532 2.9209 8.75589C3.03033 8.64646 3.17875 8.58499 3.3335 8.58499H16.6668C16.8216 8.58499 16.97 8.64646 17.0794 8.75589C17.1889 8.86532 17.2503 9.01373 17.2503 9.16849C17.2503 9.32324 17.1889 9.47166 17.0794 9.58108C16.97 9.69051 16.8216 9.75199 16.6668 9.75199Z" fill="#69778A"/>
<path d="M10.0002 13.0853H9.16683C9.01208 13.0853 8.86366 13.0238 8.75424 12.9144C8.64481 12.805 8.58333 12.6566 8.58333 12.5018C8.58333 12.3471 8.64481 12.1987 8.75424 12.0892C8.86366 11.9798 9.01208 11.9183 9.16683 11.9183H10.0002C10.1549 11.9183 10.3033 11.9798 10.4128 12.0892C10.5222 12.1987 10.5837 12.3471 10.5837 12.5018C10.5837 12.6566 10.5222 12.805 10.4128 12.9144C10.3033 13.0238 10.1549 13.0853 10.0002 13.0853Z" fill="#69778A"/>
<path d="M10.0002 15.5853C9.92354 15.5853 9.84766 15.5702 9.77687 15.5409C9.70608 15.5116 9.64175 15.4686 9.58757 15.4144C9.53338 15.3602 9.4904 15.2959 9.46108 15.2251C9.43176 15.1543 9.41666 15.0784 9.41667 15.0018V12.5018C9.41667 12.3471 9.47814 12.1987 9.58757 12.0892C9.697 11.9798 9.84541 11.9183 10.0002 11.9183C10.1549 11.9183 10.3033 11.9798 10.4128 12.0892C10.5222 12.1987 10.5837 12.3471 10.5837 12.5018V15.0018C10.5837 15.0784 10.5686 15.1543 10.5393 15.2251C10.5099 15.2959 10.4669 15.3602 10.4128 15.4144C10.3586 15.4686 10.2943 15.5116 10.2235 15.5409C10.1527 15.5702 10.0768 15.5853 10.0002 15.5853Z" fill="#69778A"/>
</svg>
