<svg width="24" height="24" viewBox="0 0 24 24" fill="none" xmlns="http://www.w3.org/2000/svg">
<path d="M12.0002 14.7024C11.9083 14.7025 11.8172 14.6844 11.7322 14.6492C11.6473 14.614 11.5701 14.5624 11.5051 14.4973L8.50513 11.4973C8.3746 11.3658 8.3015 11.188 8.30183 11.0027C8.30217 10.8174 8.37591 10.6398 8.50692 10.5088C8.63792 10.3778 8.81551 10.3041 9.00077 10.3037C9.18604 10.3034 9.36389 10.3765 9.49537 10.507L12.0002 13.0124L19.5051 5.50704C19.6366 5.37651 19.8145 5.30341 19.9997 5.30374C20.185 5.30408 20.3626 5.37782 20.4936 5.50883C20.6246 5.63983 20.6983 5.81742 20.6987 6.00268C20.699 6.18795 20.6259 6.3658 20.4954 6.49728L12.4954 14.4973C12.4304 14.5624 12.3532 14.614 12.2683 14.6492C12.1833 14.6844 12.0922 14.7025 12.0002 14.7024Z" fill="#00C49A"/>
<path d="M18.0002 20.7022H6.00025C5.28415 20.7021 4.59742 20.4175 4.09107 19.9112C3.58471 19.4048 3.30018 18.7181 3.30005 18.002V6.00199C3.30018 5.28589 3.58471 4.59916 4.09107 4.09281C4.59742 3.58645 5.28415 3.30192 6.00025 3.30179H15.0002C15.186 3.30179 15.3641 3.37556 15.4954 3.50687C15.6267 3.63819 15.7004 3.81628 15.7004 4.00199C15.7004 4.18769 15.6267 4.36579 15.4954 4.4971C15.3641 4.62842 15.186 4.70219 15.0002 4.70219H6.00025C5.65556 4.70232 5.32503 4.83931 5.0813 5.08304C4.83757 5.32677 4.70058 5.6573 4.70045 6.00199V18.002C4.70058 18.3467 4.83757 18.6772 5.0813 18.9209C5.32503 19.1647 5.65556 19.3017 6.00025 19.3018H18.0002C18.3449 19.3017 18.6755 19.1647 18.9192 18.9209C19.1629 18.6772 19.2999 18.3467 19.3 18.002V12.002C19.3 11.8163 19.3738 11.6382 19.5051 11.5069C19.6364 11.3756 19.8145 11.3018 20.0002 11.3018C20.186 11.3018 20.3641 11.3756 20.4954 11.5069C20.6267 11.6382 20.7004 11.8163 20.7004 12.002V18.002C20.7003 18.7181 20.4158 19.4048 19.9094 19.9112C19.4031 20.4175 18.7163 20.7021 18.0002 20.7022Z" fill="#00C49A"/>
</svg>
