<svg width="12" height="8" viewBox="0 0 12 8" fill="none" xmlns="http://www.w3.org/2000/svg">
<path d="M3.99963 7.80052C3.9383 7.8006 3.87757 7.78856 3.82091 7.76509C3.76425 7.74163 3.71279 7.70719 3.66949 7.66378L0.33551 4.33004C0.248473 4.24238 0.199729 4.1238 0.199952 4.00027C0.200175 3.87674 0.249349 3.75834 0.336702 3.67099C0.424055 3.58365 0.542467 3.53448 0.666003 3.53425C0.789539 3.53403 0.908128 3.58277 0.995797 3.6698L3.99963 6.67343L10.3374 0.336065C10.4251 0.249034 10.5437 0.200293 10.6672 0.200517C10.7908 0.20074 10.9092 0.24991 10.9965 0.337257C11.0839 0.424604 11.1331 0.543007 11.1333 0.666534C11.1335 0.790061 11.0848 0.908642 10.9977 0.996305L4.32977 7.66378C4.28647 7.70719 4.23501 7.74163 4.17835 7.76509C4.12169 7.78856 4.06095 7.8006 3.99963 7.80052Z" fill="white"/>
</svg>
