<svg width="24" height="24" viewBox="0 0 24 24" fill="none" xmlns="http://www.w3.org/2000/svg">
<path d="M12.0003 21.7022C10.0817 21.7022 8.2063 21.1333 6.61111 20.0674C5.01592 19.0015 3.77262 17.4866 3.03844 15.7141C2.30425 13.9416 2.11216 11.9912 2.48644 10.1096C2.86072 8.22792 3.78458 6.49951 5.14118 5.14292C6.49777 3.78632 8.22618 2.86246 10.1078 2.48818C11.9895 2.11389 13.9399 2.30599 15.7124 3.04018C17.4848 3.77436 18.9998 5.01766 20.0657 6.61285C21.1315 8.20804 21.7005 10.0835 21.7005 12.002C21.6975 14.5737 20.6746 17.0393 18.8561 18.8578C17.0376 20.6763 14.572 21.6993 12.0003 21.7022ZM12.0003 3.70219C10.3587 3.70219 8.75403 4.18897 7.38913 5.10096C6.02424 6.01295 4.96043 7.30921 4.33224 8.8258C3.70405 10.3424 3.53968 12.0112 3.85993 13.6212C4.18018 15.2312 4.97066 16.7101 6.13141 17.8708C7.29216 19.0316 8.77104 19.8221 10.381 20.1423C11.991 20.4626 13.6599 20.2982 15.1764 19.67C16.693 19.0418 17.9893 17.978 18.9013 16.6131C19.8133 15.2482 20.3001 13.6435 20.3001 12.002C20.2975 9.80152 19.4223 7.6919 17.8663 6.13594C16.3103 4.57997 14.2007 3.70472 12.0003 3.70219Z" fill="#FF6812"/>
<path d="M15.0003 15.7022C14.9083 15.7023 14.8172 15.6843 14.7322 15.6491C14.6473 15.6139 14.5701 15.5622 14.5051 15.4971L11.5051 12.4971C11.3739 12.3657 11.3002 12.1877 11.3001 12.002V7.00199C11.3001 6.81628 11.3738 6.63819 11.5051 6.50687C11.6365 6.37556 11.8145 6.30179 12.0003 6.30179C12.186 6.30179 12.3641 6.37556 12.4954 6.50687C12.6267 6.63819 12.7005 6.81628 12.7005 7.00199V11.712L15.4954 14.5069C15.5933 14.6048 15.66 14.7296 15.687 14.8654C15.714 15.0012 15.7001 15.142 15.6471 15.27C15.5941 15.3979 15.5044 15.5072 15.3892 15.5842C15.2741 15.6611 15.1387 15.7022 15.0003 15.7022Z" fill="#FF6812"/>
</svg>
