<svg width="24" height="24" viewBox="0 0 24 24" fill="none" xmlns="http://www.w3.org/2000/svg">
<path d="M7.00024 16.7024C6.90827 16.7025 6.81718 16.6844 6.73221 16.6492C6.64724 16.614 6.57007 16.5624 6.50512 16.4973L2.50512 12.4973C2.37381 12.366 2.30005 12.1879 2.30005 12.0022C2.30005 11.8165 2.37381 11.6384 2.50512 11.507L6.50512 7.50704C6.6366 7.37651 6.81445 7.30341 6.99972 7.30374C7.18498 7.30408 7.36257 7.37782 7.49357 7.50883C7.62458 7.63983 7.69832 7.81742 7.69866 8.00268C7.69899 8.18795 7.62589 8.3658 7.49536 8.49728L3.98999 12.0022L7.49536 15.507C7.59329 15.605 7.65998 15.7297 7.68699 15.8656C7.71401 16.0014 7.70014 16.1422 7.64715 16.2701C7.59415 16.3981 7.5044 16.5074 7.38925 16.5844C7.27411 16.6613 7.13873 16.7024 7.00024 16.7024Z" fill="#00C49A"/>
<path d="M17.0003 16.7024C16.8618 16.7024 16.7264 16.6613 16.6112 16.5844C16.4961 16.5074 16.4063 16.3981 16.3533 16.2701C16.3004 16.1422 16.2865 16.0014 16.3135 15.8656C16.3405 15.7297 16.4072 15.605 16.5051 15.507L20.0105 12.0022L16.5051 8.49728C16.3746 8.3658 16.3015 8.18795 16.3018 8.00268C16.3022 7.81742 16.3759 7.63983 16.5069 7.50883C16.6379 7.37782 16.8155 7.30408 17.0008 7.30374C17.186 7.30341 17.3639 7.37651 17.4954 7.50704L21.4954 11.507C21.6267 11.6384 21.7004 11.8165 21.7004 12.0022C21.7004 12.1879 21.6267 12.366 21.4954 12.4973L17.4954 16.4973C17.4304 16.5624 17.3533 16.614 17.2683 16.6492C17.1833 16.6844 17.0922 16.7025 17.0003 16.7024Z" fill="#00C49A"/>
<path d="M10.0007 20.7021C9.94328 20.7021 9.88606 20.695 9.83032 20.6811C9.65021 20.636 9.49538 20.5212 9.39988 20.362C9.30438 20.2028 9.27602 20.0121 9.32104 19.832L13.321 3.832C13.3661 3.65187 13.4809 3.49701 13.6401 3.4015C13.7994 3.306 13.99 3.27766 14.1702 3.32272C14.3503 3.36779 14.5051 3.48257 14.6007 3.64181C14.6962 3.80105 14.7245 3.99171 14.6794 4.17184L10.6794 20.1718C10.6415 20.3232 10.5541 20.4575 10.4312 20.5536C10.3082 20.6496 10.1567 20.7019 10.0007 20.7021Z" fill="#00C49A"/>
</svg>
