<svg width="20" height="20" viewBox="0 0 20 20" fill="none" xmlns="http://www.w3.org/2000/svg">
<path d="M17.5002 18.0837H2.5002C2.42358 18.0837 2.3477 18.0687 2.27691 18.0393C2.20611 18.01 2.14179 17.967 2.0876 17.9128C2.03342 17.8587 1.99044 17.7943 1.96112 17.7235C1.93179 17.6527 1.9167 17.5769 1.9167 17.5002V11.6669C1.9168 11.5122 1.97826 11.3638 2.0876 11.2543L6.25264 7.08931L6.27054 7.07222C6.31988 7.02609 6.37748 6.98916 6.43982 6.96317L6.44065 6.96234C6.58579 6.90374 6.74801 6.90374 6.89315 6.96234L6.89399 6.96317L6.91677 6.97294V3.33358C6.91682 2.95784 7.06611 2.59751 7.33179 2.33181C7.59747 2.06612 7.9578 1.91682 8.33354 1.91675H16.6669C17.0426 1.9168 17.403 2.06609 17.6687 2.33179C17.9344 2.59749 18.0836 2.95783 18.0837 3.33358V17.5002C18.0837 17.5769 18.0686 17.6527 18.0393 17.7235C18.01 17.7943 17.967 17.8587 17.9128 17.9128C17.8586 17.967 17.7943 18.01 17.7235 18.0393C17.6527 18.0687 17.5768 18.0837 17.5002 18.0837ZM11.417 16.9167H16.9167V3.33358C16.9168 3.30077 16.9103 3.26826 16.8978 3.23795C16.8852 3.20763 16.8667 3.18012 16.8435 3.15699C16.7965 3.11028 16.7331 3.08396 16.6669 3.08375H8.33354C8.26732 3.08396 8.20387 3.11028 8.15694 3.15699C8.13366 3.18012 8.1152 3.20763 8.10263 3.23795C8.09006 3.26826 8.08362 3.30077 8.0837 3.33358V8.09191L11.2461 11.2543C11.3555 11.3638 11.4169 11.5122 11.417 11.6669V16.9167ZM7.25037 16.9167H10.25V11.9086L7.25037 8.90812V16.9167ZM3.0837 16.9167H6.08337V8.90812L3.0837 11.9086V16.9167Z" fill="#FF6812"/>
<path d="M10.8335 6.42521C10.7179 6.42561 10.6047 6.39176 10.5083 6.32793C10.4119 6.2641 10.3365 6.17316 10.2917 6.06656C10.2469 5.95996 10.2347 5.84248 10.2566 5.72894C10.2784 5.61539 10.3334 5.51087 10.4146 5.42854C10.4958 5.34621 10.5996 5.28976 10.7128 5.26631C10.826 5.24287 10.9437 5.25347 11.0509 5.29679C11.1581 5.34011 11.2501 5.4142 11.3152 5.50972C11.3804 5.60524 11.4158 5.71792 11.417 5.83355V5.84169C11.417 5.91832 11.4019 5.9942 11.3726 6.06499C11.3433 6.13579 11.3003 6.20012 11.2461 6.25431C11.192 6.30849 11.1276 6.35148 11.0568 6.3808C10.986 6.41012 10.9102 6.42522 10.8335 6.42521Z" fill="#FF6812"/>
<path d="M14.1669 6.42521C14.0512 6.42561 13.9381 6.39176 13.8417 6.32793C13.7452 6.2641 13.6699 6.17316 13.6251 6.06656C13.5803 5.95996 13.568 5.84248 13.5899 5.72894C13.6118 5.61539 13.6668 5.51087 13.748 5.42854C13.8292 5.34621 13.9329 5.28976 14.0461 5.26631C14.1594 5.24287 14.277 5.25347 14.3842 5.29679C14.4914 5.34011 14.5834 5.4142 14.6486 5.50972C14.7137 5.60524 14.7491 5.71792 14.7504 5.83355V5.84169C14.7504 5.91832 14.7353 5.9942 14.706 6.06499C14.6766 6.13579 14.6337 6.20012 14.5795 6.25431C14.5253 6.30849 14.461 6.35148 14.3902 6.3808C14.3194 6.41012 14.2435 6.42522 14.1669 6.42521Z" fill="#FF6812"/>
<path d="M14.1669 9.75855C14.0512 9.75894 13.9381 9.72509 13.8417 9.66127C13.7452 9.59744 13.6699 9.50649 13.6251 9.39989C13.5803 9.29329 13.568 9.17582 13.5899 9.06227C13.6118 8.94873 13.6668 8.8442 13.748 8.76187C13.8292 8.67954 13.9329 8.62309 14.0461 8.59965C14.1594 8.5762 14.277 8.5868 14.3842 8.63012C14.4914 8.67344 14.5834 8.74753 14.6486 8.84305C14.7137 8.93858 14.7491 9.05126 14.7504 9.16688V9.17502C14.7504 9.25165 14.7353 9.32753 14.706 9.39833C14.6766 9.46913 14.6337 9.53345 14.5795 9.58764C14.5253 9.64183 14.461 9.68481 14.3902 9.71413C14.3194 9.74346 14.2435 9.75855 14.1669 9.75855Z" fill="#FF6812"/>
<path d="M14.1669 13.0919C14.0512 13.0923 13.9381 13.0584 13.8417 12.9946C13.7452 12.9308 13.6699 12.8398 13.6251 12.7332C13.5803 12.6266 13.568 12.5091 13.5899 12.3956C13.6118 12.2821 13.6668 12.1775 13.748 12.0952C13.8292 12.0129 13.9329 11.9564 14.0461 11.933C14.1594 11.9095 14.277 11.9201 14.3842 11.9635C14.4914 12.0068 14.5834 12.0809 14.6486 12.1764C14.7137 12.2719 14.7491 12.3846 14.7504 12.5002V12.5084C14.7504 12.585 14.7353 12.6609 14.706 12.7317C14.6766 12.8025 14.6337 12.8668 14.5795 12.921C14.5253 12.9752 14.461 13.0181 14.3902 13.0475C14.3194 13.0768 14.2435 13.0919 14.1669 13.0919Z" fill="#FF6812"/>
</svg>
