<svg width="20" height="20" viewBox="0 0 20 20" fill="none" xmlns="http://www.w3.org/2000/svg">
<path d="M17.5002 18.0847H2.5002C2.42358 18.0847 2.3477 18.0696 2.27691 18.0403C2.20611 18.011 2.14179 17.968 2.0876 17.9138C2.03342 17.8596 1.99044 17.7953 1.96112 17.7245C1.93179 17.6537 1.9167 17.5778 1.9167 17.5012V11.6679C1.9168 11.5131 1.97826 11.3648 2.0876 11.2553L6.25264 7.09028L6.27054 7.07318C6.31988 7.02705 6.37748 6.99012 6.43982 6.96413L6.44065 6.9633C6.58579 6.9047 6.74801 6.9047 6.89315 6.9633L6.89399 6.96413L6.91677 6.9739V3.33454C6.91682 2.9588 7.06611 2.59847 7.33179 2.33277C7.59747 2.06708 7.9578 1.91778 8.33354 1.91771H16.6669C17.0426 1.91776 17.403 2.06706 17.6687 2.33275C17.9344 2.59845 18.0836 2.95879 18.0837 3.33454V17.5012C18.0837 17.5778 18.0686 17.6537 18.0393 17.7245C18.01 17.7953 17.967 17.8596 17.9128 17.9138C17.8586 17.968 17.7943 18.011 17.7235 18.0403C17.6527 18.0696 17.5768 18.0847 17.5002 18.0847ZM11.417 16.9177H16.9167V3.33454C16.9168 3.30173 16.9103 3.26922 16.8978 3.23891C16.8852 3.2086 16.8667 3.18108 16.8435 3.15795C16.7965 3.11124 16.7331 3.08492 16.6669 3.08471H8.33354C8.26732 3.08492 8.20387 3.11124 8.15694 3.15795C8.13366 3.18108 8.1152 3.2086 8.10263 3.23891C8.09006 3.26922 8.08362 3.30173 8.0837 3.33454V8.09288L11.2461 11.2553C11.3555 11.3648 11.4169 11.5132 11.417 11.6679V16.9177ZM7.25037 16.9177H10.25V11.9095L7.25037 8.90908V16.9177ZM3.0837 16.9177H6.08337V8.90908L3.0837 11.9095V16.9177Z" fill="#69778A"/>
<path d="M10.8335 6.42618C10.7179 6.42657 10.6047 6.39272 10.5083 6.32889C10.4119 6.26507 10.3365 6.17412 10.2917 6.06752C10.2469 5.96092 10.2347 5.84344 10.2566 5.7299C10.2784 5.61635 10.3334 5.51183 10.4146 5.4295C10.4958 5.34717 10.5996 5.29072 10.7128 5.26727C10.826 5.24383 10.9437 5.25443 11.0509 5.29775C11.1581 5.34107 11.2501 5.41516 11.3152 5.51068C11.3804 5.60621 11.4158 5.71888 11.417 5.83451V5.84265C11.417 5.91928 11.4019 5.99516 11.3726 6.06596C11.3433 6.13675 11.3003 6.20108 11.2461 6.25527C11.192 6.30945 11.1276 6.35244 11.0568 6.38176C10.986 6.41109 10.9102 6.42618 10.8335 6.42618Z" fill="#69778A"/>
<path d="M14.1669 6.42618C14.0512 6.42657 13.9381 6.39272 13.8417 6.32889C13.7452 6.26507 13.6699 6.17412 13.6251 6.06752C13.5803 5.96092 13.568 5.84344 13.5899 5.7299C13.6118 5.61635 13.6668 5.51183 13.748 5.4295C13.8292 5.34717 13.9329 5.29072 14.0461 5.26727C14.1594 5.24383 14.277 5.25443 14.3842 5.29775C14.4914 5.34107 14.5834 5.41516 14.6486 5.51068C14.7137 5.60621 14.7491 5.71888 14.7504 5.83451V5.84265C14.7504 5.91928 14.7353 5.99516 14.706 6.06596C14.6766 6.13675 14.6337 6.20108 14.5795 6.25527C14.5253 6.30945 14.461 6.35244 14.3902 6.38176C14.3194 6.41109 14.2435 6.42618 14.1669 6.42618Z" fill="#69778A"/>
<path d="M14.1669 9.75951C14.0512 9.7599 13.9381 9.72605 13.8417 9.66223C13.7452 9.5984 13.6699 9.50745 13.6251 9.40085C13.5803 9.29426 13.568 9.17678 13.5899 9.06323C13.6118 8.94969 13.6668 8.84516 13.748 8.76283C13.8292 8.6805 13.9329 8.62405 14.0461 8.60061C14.1594 8.57716 14.277 8.58777 14.3842 8.63108C14.4914 8.6744 14.5834 8.74849 14.6486 8.84402C14.7137 8.93954 14.7491 9.05222 14.7504 9.16784V9.17598C14.7504 9.25261 14.7353 9.32849 14.706 9.39929C14.6766 9.47009 14.6337 9.53442 14.5795 9.5886C14.5253 9.64279 14.461 9.68577 14.3902 9.71509C14.3194 9.74442 14.2435 9.75951 14.1669 9.75951Z" fill="#69778A"/>
<path d="M14.1669 13.0928C14.0512 13.0932 13.9381 13.0594 13.8417 12.9956C13.7452 12.9317 13.6699 12.8408 13.6251 12.7342C13.5803 12.6276 13.568 12.5101 13.5899 12.3966C13.6118 12.283 13.6668 12.1785 13.748 12.0962C13.8292 12.0138 13.9329 11.9574 14.0461 11.9339C14.1594 11.9105 14.277 11.9211 14.3842 11.9644C14.4914 12.0077 14.5834 12.0818 14.6486 12.1773C14.7137 12.2729 14.7491 12.3855 14.7504 12.5012V12.5093C14.7504 12.5859 14.7353 12.6618 14.706 12.7326C14.6766 12.8034 14.6337 12.8677 14.5795 12.9219C14.5253 12.9761 14.461 13.0191 14.3902 13.0484C14.3194 13.0778 14.2435 13.0928 14.1669 13.0928Z" fill="#69778A"/>
</svg>
