<svg width="150" height="124" viewBox="0 0 150 124" fill="none" xmlns="http://www.w3.org/2000/svg">
<rect x="0.5" y="0.500977" width="149" height="123" rx="3.5" fill="#F2F4F8"/>
<rect x="0.5" y="0.500977" width="149" height="123" rx="3.5" stroke="#E8E9EE"/>
<path d="M75.0003 68.2691C74.0245 68.2691 73.0706 67.9798 72.2593 67.4377C71.448 66.8956 70.8156 66.125 70.4422 65.2235C70.0688 64.322 69.9711 63.3301 70.1614 62.373C70.3518 61.416 70.8217 60.5369 71.5117 59.847C72.2016 59.157 73.0807 58.6871 74.0378 58.4967C74.9948 58.3064 75.9868 58.4041 76.8883 58.7775C77.7898 59.1509 78.5603 59.7833 79.1024 60.5946C79.6445 61.4059 79.9339 62.3598 79.9339 63.3355C79.9323 64.6435 79.412 65.8975 78.4871 66.8224C77.5622 67.7472 76.3082 68.2675 75.0003 68.2691ZM75.0003 60.2691C74.3938 60.2691 73.8009 60.449 73.2967 60.7859C72.7924 61.1229 72.3994 61.6018 72.1673 62.1621C71.9352 62.7224 71.8745 63.3389 71.9928 63.9338C72.1111 64.5286 72.4031 65.075 72.832 65.5038C73.2608 65.9327 73.8072 66.2247 74.402 66.343C74.9969 66.4613 75.6134 66.4006 76.1737 66.1685C76.734 65.9364 77.2129 65.5434 77.5499 65.0391C77.8868 64.5349 78.0667 63.942 78.0667 63.3355C78.0658 62.5225 77.7425 61.7431 77.1676 61.1682C76.5927 60.5933 75.8133 60.27 75.0003 60.2691Z" fill="#69778A"/>
<path d="M84.3336 73.6025H65.6669C64.7121 73.6023 63.7965 73.2229 63.1213 72.5478C62.4462 71.8726 62.0668 70.957 62.0667 70.0022V58.0022C62.0668 57.0474 62.4462 56.1318 63.1213 55.4566C63.7965 54.7815 64.7121 54.4021 65.6669 54.4019H68.3336C68.7932 54.4018 69.2339 54.2191 69.5589 53.8941C69.8838 53.5692 70.0665 53.1285 70.0666 52.6689C70.0667 52.0677 70.3056 51.4911 70.7307 51.066C71.1558 50.6409 71.7324 50.402 72.3336 50.4019H75.0002C75.2479 50.4019 75.4853 50.5003 75.6604 50.6754C75.8355 50.8505 75.9338 51.0879 75.9338 51.3355C75.9338 51.5831 75.8355 51.8206 75.6604 51.9957C75.4853 52.1708 75.2479 52.2691 75.0002 52.2691H72.3336C72.2276 52.2695 72.1261 52.3116 72.051 52.3863C72.0138 52.4233 71.9842 52.4674 71.9641 52.5159C71.944 52.5644 71.9337 52.6164 71.9339 52.6689C71.9337 53.6237 71.5543 54.5393 70.8792 55.2144C70.204 55.8896 69.2884 56.269 68.3336 56.2691H65.6669C65.2073 56.2693 64.7666 56.452 64.4416 56.7769C64.1167 57.1019 63.934 57.5426 63.9339 58.0022V70.0022C63.934 70.4618 64.1167 70.9025 64.4416 71.2275C64.7666 71.5524 65.2073 71.7351 65.6669 71.7353H84.3336C84.7932 71.7351 85.2339 71.5524 85.5589 71.2275C85.8838 70.9025 86.0665 70.4618 86.0666 70.0022V60.6689C86.0666 60.4213 86.165 60.1838 86.3401 60.0087C86.5152 59.8336 86.7526 59.7353 87.0002 59.7353C87.2479 59.7353 87.4853 59.8336 87.6604 60.0087C87.8355 60.1838 87.9338 60.4213 87.9338 60.6689V70.0022C87.9337 70.957 87.5543 71.8726 86.8792 72.5478C86.204 73.2229 85.2884 73.6023 84.3336 73.6025Z" fill="#69778A"/>
<path d="M87.0002 54.9358H79.0002C78.7526 54.9358 78.5152 54.8374 78.3401 54.6624C78.165 54.4873 78.0666 54.2498 78.0666 54.0022C78.0666 53.7546 78.165 53.5171 78.3401 53.342C78.5152 53.167 78.7526 53.0686 79.0002 53.0686H87.0002C87.2479 53.0686 87.4853 53.167 87.6604 53.342C87.8355 53.5171 87.9338 53.7546 87.9338 54.0022C87.9338 54.2498 87.8355 54.4873 87.6604 54.6624C87.4853 54.8374 87.2479 54.9358 87.0002 54.9358Z" fill="#69778A"/>
<path d="M83.0002 58.9358C82.8776 58.9358 82.7562 58.9117 82.643 58.8647C82.5297 58.8178 82.4268 58.7491 82.3401 58.6624C82.2534 58.5757 82.1846 58.4727 82.1377 58.3595C82.0908 58.2462 82.0666 58.1248 82.0666 58.0022V50.0022C82.0666 49.7546 82.165 49.5171 82.3401 49.342C82.5152 49.167 82.7526 49.0686 83.0002 49.0686C83.2479 49.0686 83.4853 49.167 83.6604 49.342C83.8355 49.5171 83.9338 49.7546 83.9338 50.0022V58.0022C83.9338 58.1248 83.9097 58.2462 83.8628 58.3595C83.8159 58.4727 83.7471 58.5757 83.6604 58.6624C83.5737 58.7491 83.4708 58.8178 83.3575 58.8647C83.2443 58.9117 83.1229 58.9358 83.0002 58.9358Z" fill="#69778A"/>
</svg>
