<svg width="56" height="56" viewBox="0 0 56 56" fill="none" xmlns="http://www.w3.org/2000/svg">
<rect y="0.00100708" width="56" height="56" rx="28" fill="#00C49A" fill-opacity="0.1"/>
<path d="M35.9998 33.6965H19.9998C19.8451 33.6964 19.6949 33.6451 19.5724 33.5505C19.45 33.456 19.3622 33.3235 19.3229 33.1738C19.2835 33.0241 19.2947 32.8655 19.3548 32.7228C19.4149 32.5802 19.5205 32.4614 19.655 32.3851C20.1047 32.1305 20.4883 31.7735 20.7749 31.3431C21.0615 30.9126 21.2431 30.4208 21.3049 29.9072L21.2996 26.9873C21.3561 25.6529 21.7579 24.3561 22.4656 23.224C23.1733 22.0919 24.1627 21.1634 25.3367 20.5294C25.4291 19.9752 25.6928 19.4639 26.0906 19.0675C26.605 18.576 27.2887 18.3018 27.9998 18.3018C28.7108 18.3018 29.3945 18.576 29.9089 19.0675C30.3067 19.4639 30.5704 19.9752 30.6629 20.5294C31.8319 21.1608 32.8179 22.0842 33.5251 23.2099C34.2324 24.3357 34.6367 25.6255 34.699 26.954L34.7 29.9913C34.7756 30.4888 34.9628 30.9627 35.2477 31.3773C35.5325 31.792 35.9075 32.1365 36.3445 32.3851C36.479 32.4614 36.5846 32.5802 36.6447 32.7228C36.7048 32.8655 36.716 33.0241 36.6767 33.1738C36.6373 33.3235 36.5495 33.456 36.4271 33.5505C36.3046 33.6451 36.1544 33.6964 35.9998 33.6965ZM21.8181 32.2942H34.1814C34.1399 32.2375 34.0994 32.1798 34.0603 32.1211C33.6528 31.5074 33.3941 30.8069 33.3049 30.0754L33.2996 26.9873C33.2398 25.8496 32.8737 24.7494 32.24 23.8032C31.6064 22.857 30.7288 22.1001 29.7004 21.6129C29.5805 21.5562 29.4792 21.4665 29.4082 21.3543C29.3372 21.2421 29.2996 21.112 29.2996 20.9792C29.2985 20.6343 29.1617 20.3036 28.9187 20.0591C28.6696 19.8253 28.3411 19.6953 27.9998 19.6953C27.6584 19.6953 27.3299 19.8253 27.0808 20.0591C26.8379 20.3036 26.701 20.6343 26.7 20.9792C26.7 21.112 26.6623 21.2421 26.5913 21.3543C26.5203 21.4665 26.419 21.5562 26.2991 21.6129C25.2656 22.1024 24.3845 22.8643 23.7503 23.8169C23.1161 24.7695 22.7527 25.8769 22.699 27.0205L22.7 29.9913C22.621 30.7518 22.3602 31.482 21.9397 32.1202C21.9006 32.1798 21.8601 32.2375 21.8181 32.2942Z" fill="#00C49A"/>
<path d="M27.9998 37.7018C27.0185 37.7016 26.0774 37.3111 25.3836 36.6163C24.6897 35.9215 24.2998 34.9792 24.2996 33.9966V32.9953C24.2996 32.9032 24.3177 32.812 24.3529 32.727C24.388 32.6419 24.4396 32.5646 24.5046 32.4995C24.5697 32.4344 24.6469 32.3828 24.7318 32.3475C24.8168 32.3123 24.9078 32.2942 24.9998 32.2942C25.0917 32.2942 25.1828 32.3123 25.2677 32.3475C25.3527 32.3828 25.4299 32.4344 25.4949 32.4995C25.5599 32.5646 25.6115 32.6419 25.6467 32.727C25.6818 32.812 25.7 32.9032 25.7 32.9953V33.9966C25.6992 34.2991 25.7583 34.5987 25.8739 34.8782C25.9894 35.1577 26.1592 35.4114 26.3733 35.6248C26.814 36.0385 27.3954 36.2687 27.9995 36.2687C28.6036 36.2687 29.185 36.0385 29.6257 35.6248C29.84 35.4115 30.0099 35.1578 30.1256 34.8783C30.2412 34.5988 30.3004 34.2992 30.2996 33.9966V32.9953C30.2996 32.8093 30.3733 32.631 30.5046 32.4995C30.636 32.368 30.8141 32.2942 30.9998 32.2942C31.1855 32.2942 31.3636 32.368 31.4949 32.4995C31.6262 32.631 31.7 32.8093 31.7 32.9953V33.9966C31.6995 34.9792 31.3096 35.9213 30.6157 36.6161C29.9219 37.3109 28.981 37.7014 27.9998 37.7018Z" fill="#00C49A"/>
</svg>
