<svg width="20" height="20" viewBox="0 0 20 20" fill="none" xmlns="http://www.w3.org/2000/svg">
<path d="M10 18.0853C8.40124 18.0853 6.83838 17.6112 5.50906 16.723C4.17973 15.8348 3.14365 14.5723 2.53183 13.0952C1.92001 11.6182 1.75993 9.99286 2.07183 8.42481C2.38373 6.85677 3.15361 5.41642 4.28411 4.28593C5.41461 3.15543 6.85495 2.38555 8.42299 2.07365C9.99104 1.76174 11.6164 1.92182 13.0934 2.53364C14.5705 3.14546 15.833 4.18155 16.7212 5.51087C17.6094 6.8402 18.0835 8.40306 18.0835 10.0018C18.0811 12.1449 17.2286 14.1996 15.7132 15.715C14.1978 17.2304 12.1431 18.0829 10 18.0853ZM10 3.08532C8.63205 3.08532 7.29482 3.49097 6.15741 4.25096C5.01999 5.01096 4.13349 6.09117 3.60999 7.35499C3.0865 8.61882 2.94953 10.0095 3.21641 11.3512C3.48328 12.6928 4.14201 13.9252 5.1093 14.8925C6.07659 15.8598 7.309 16.5185 8.65067 16.7854C9.99234 17.0523 11.383 16.9153 12.6468 16.3918C13.9107 15.8683 14.9909 14.9818 15.7509 13.8444C16.5109 12.707 16.9165 11.3698 16.9165 10.0018C16.9144 8.1681 16.185 6.41008 14.8884 5.11344C13.5917 3.8168 11.8337 3.08743 10 3.08532Z" fill="#69778A"/>
<path d="M12.5 13.0853C12.4234 13.0854 12.3475 13.0704 12.2767 13.041C12.2058 13.0117 12.1415 12.9687 12.0874 12.9144L9.58741 10.4144C9.47806 10.3049 9.4166 10.1566 9.41651 10.0018V5.83515C9.41651 5.6804 9.47798 5.53198 9.58741 5.42256C9.69684 5.31313 9.84525 5.25165 10 5.25165C10.1548 5.25165 10.3032 5.31313 10.4126 5.42256C10.522 5.53198 10.5835 5.6804 10.5835 5.83515V9.76015L12.9126 12.0893C12.9942 12.1709 13.0498 12.2748 13.0723 12.388C13.0948 12.5012 13.0832 12.6185 13.0391 12.7251C12.9949 12.8317 12.9201 12.9229 12.8242 12.987C12.7282 13.0511 12.6154 13.0853 12.5 13.0853Z" fill="#69778A"/>
</svg>
