<svg width="24" height="24" viewBox="0 0 24 24" fill="none" xmlns="http://www.w3.org/2000/svg">
<path d="M12 21.7022C10.0815 21.7022 8.20606 21.1333 6.61087 20.0674C5.01568 19.0015 3.77238 17.4866 3.03819 15.7141C2.30401 13.9416 2.11191 11.9912 2.4862 10.1096C2.86048 8.22792 3.78433 6.49951 5.14093 5.14292C6.49753 3.78632 8.22594 2.86246 10.1076 2.48818C11.9892 2.11389 13.9396 2.30599 15.7121 3.04018C17.4846 3.77436 18.9996 5.01766 20.0654 6.61285C21.1313 8.20804 21.7002 10.0835 21.7002 12.002C21.6973 14.5737 20.6743 17.0393 18.8558 18.8578C17.0373 20.6763 14.5718 21.6993 12 21.7022ZM12 3.70219C10.3585 3.70219 8.75378 4.18897 7.38889 5.10096C6.02399 6.01295 4.96019 7.30921 4.33199 8.8258C3.7038 10.3424 3.53944 12.0112 3.85969 13.6212C4.17994 15.2312 4.97042 16.7101 6.13116 17.8708C7.29191 19.0316 8.7708 19.8221 10.3808 20.1423C11.9908 20.4626 13.6596 20.2982 15.1762 19.67C16.6928 19.0418 17.989 17.978 18.901 16.6131C19.813 15.2482 20.2998 13.6435 20.2998 12.002C20.2974 9.8015 19.4222 7.69182 17.8662 6.13584C16.3102 4.57985 14.2005 3.70463 12 3.70219Z" fill="#69778A"/>
<path d="M11 14.7024C10.908 14.7025 10.817 14.6844 10.732 14.6492C10.647 14.614 10.5698 14.5624 10.5049 14.4973L8.50489 12.4973C8.37436 12.3658 8.30126 12.188 8.30159 12.0027C8.30193 11.8174 8.37567 11.6398 8.50668 11.5088C8.63768 11.3778 8.81527 11.3041 9.00053 11.3037C9.1858 11.3034 9.36365 11.3765 9.49513 11.507L11 13.0124L14.5049 9.50704C14.6364 9.37651 14.8142 9.30341 14.9995 9.30374C15.1848 9.30408 15.3623 9.37782 15.4933 9.50883C15.6243 9.63983 15.6981 9.81742 15.6984 10.0027C15.6988 10.188 15.6257 10.3658 15.4951 10.4973L11.4951 14.4973C11.4302 14.5624 11.353 14.614 11.268 14.6492C11.1831 14.6844 11.092 14.7025 11 14.7024Z" fill="#69778A"/>
</svg>
