<svg width="37" height="36" viewBox="0 0 37 36" fill="none" xmlns="http://www.w3.org/2000/svg">
<rect x="0.5" width="36" height="36" rx="18" fill="#D5F9F1"/>
<path d="M18.5008 10.5843H18.5003C17.0334 10.5843 15.5995 11.0193 14.3799 11.8342C13.1602 12.6492 12.2096 13.8075 11.6483 15.1626C11.087 16.5178 10.9401 18.009 11.2263 19.4477C11.5124 20.8864 12.2188 22.2079 13.256 23.2451C14.2932 24.2823 15.6147 24.9886 17.0534 25.2748C18.492 25.561 19.9832 25.4141 21.3384 24.8528C22.6936 24.2914 23.8519 23.3408 24.6668 22.1212C25.4818 20.9016 25.9168 19.4677 25.9168 18.0008V18.0002C25.9145 16.0341 25.1325 14.1491 23.7422 12.7589C22.3519 11.3686 20.467 10.5866 18.5008 10.5843ZM18.5084 14.751L18.5079 14.751C18.4849 14.751 18.4628 14.7419 18.4465 14.7257C18.4302 14.7095 18.421 14.6875 18.4208 14.6645L18.4208 14.6645C18.4208 14.6539 18.4228 14.6435 18.4268 14.6337C18.4307 14.624 18.4366 14.6151 18.444 14.6076C18.4515 14.6001 18.4603 14.5942 18.47 14.5901C18.4798 14.5861 18.4902 14.584 18.5007 14.584H18.5084C18.5305 14.584 18.5518 14.5928 18.5674 14.6084L18.9088 14.2671L18.5674 14.6084C18.5831 14.6241 18.5919 14.6453 18.5919 14.6675C18.5919 14.6896 18.5831 14.7109 18.5674 14.7265C18.5518 14.7422 18.5305 14.751 18.5084 14.751ZM18.0942 15.0805C18.2043 15.1898 18.3532 15.2511 18.5084 15.251L18.5003 14.084C18.4238 14.0841 18.3482 14.0992 18.2777 14.1286C18.2071 14.158 18.1431 14.2011 18.0893 14.2553C18.0354 14.3095 17.9928 14.3738 17.9639 14.4446C17.935 14.5153 17.9204 14.5911 17.9208 14.6675C17.9217 14.8227 17.9841 14.9712 18.0942 15.0805ZM18.4168 18.5843V18.0843H17.9168H17.6669C17.6448 18.0843 17.6235 18.0755 17.6079 18.0599C17.5922 18.0442 17.5834 18.023 17.5834 18.0008C17.5834 17.9787 17.5922 17.9574 17.6079 17.9418C17.6235 17.9261 17.6448 17.9173 17.6669 17.9173L18.5003 17.9173C18.5112 17.9173 18.5221 17.9195 18.5322 17.9237C18.5423 17.9279 18.5515 17.934 18.5593 17.9418C18.5671 17.9495 18.5732 17.9587 18.5774 17.9689L19.0216 17.7849L18.5774 17.9689C18.5816 17.979 18.5838 17.9898 18.5838 18.0008V20.7506V21.2506H19.0838H19.3336C19.3557 21.2506 19.377 21.2594 19.3926 21.2751C19.4083 21.2908 19.4171 21.312 19.4171 21.3341C19.4171 21.3563 19.4083 21.3775 19.3926 21.3932C19.377 21.4088 19.3557 21.4176 19.3336 21.4176H18.5003C18.4893 21.4176 18.4784 21.4155 18.4683 21.4113L18.277 21.8732L18.4683 21.4113C18.4582 21.4071 18.449 21.4009 18.4412 21.3932C18.4335 21.3854 18.4273 21.3762 18.4231 21.3661L17.9612 21.5574L18.4231 21.3661C18.4189 21.356 18.4168 21.3451 18.4168 21.3342V18.5843ZM18.4997 25.5843C17 25.5842 15.534 25.1394 14.2871 24.3063C13.04 23.473 12.068 22.2886 11.494 20.9029C10.92 19.5172 10.7699 17.9924 11.0625 16.5213C11.3551 15.0503 12.0773 13.699 13.1379 12.6385C14.1985 11.5779 15.5497 10.8556 17.0208 10.563C18.4918 10.2704 20.0166 10.4206 21.4023 10.9946C22.788 11.5686 23.9724 12.5405 24.8057 13.7876C25.6389 15.0346 26.0836 16.5006 26.0838 18.0002C26.0815 20.011 25.2817 21.9387 23.8599 23.3605C22.4381 24.7823 20.5104 25.582 18.4997 25.5843Z" fill="#00C49A" stroke="#00C49A"/>
</svg>
