<svg width="103" height="32" viewBox="0 0 103 32" fill="none" xmlns="http://www.w3.org/2000/svg">
<g clip-path="url(#clip0_389_210)">
<path d="M57.8075 22.6441C56.7427 22.6603 55.6821 22.5065 54.6658 22.1885C53.8207 21.9257 53.0286 21.5163 52.3254 20.979C51.7195 20.515 51.2163 19.9305 50.8475 19.2624C50.5115 18.6498 50.3256 17.9662 50.3051 17.2678C50.3006 17.1848 50.3153 17.1019 50.348 17.0255C50.3807 16.9491 50.4305 16.8812 50.4936 16.8271C50.6265 16.7202 50.7936 16.6649 50.9641 16.6712H51.4047C51.5748 16.6722 51.742 16.715 51.8915 16.7959C52.0479 16.88 52.1681 17.0789 52.2522 17.3926C52.4827 18.2965 52.8963 18.993 53.4929 19.482C54.0855 19.9723 54.7849 20.3164 55.5349 20.4868C56.2813 20.6646 57.0456 20.7556 57.8129 20.758C59.4246 20.758 60.7489 20.3706 61.7858 19.5959C62.8226 18.8213 63.341 17.6592 63.341 16.1098C63.341 14.5605 62.875 13.4504 61.9431 12.7797C61.0111 12.1089 59.7388 11.774 58.1261 11.7749H55.3559C55.2636 11.7812 55.1709 11.7675 55.0843 11.735C54.9976 11.7024 54.919 11.6516 54.8536 11.5861C54.7882 11.5206 54.7376 11.4418 54.7052 11.3551C54.6728 11.2684 54.6593 11.1757 54.6658 11.0834V10.6115C54.6613 10.4665 54.6882 10.3222 54.7444 10.1885C54.798 10.0701 54.8663 9.95892 54.9478 9.85764L61.4237 2.22103H51.9322C51.8398 2.22726 51.7472 2.21362 51.6606 2.18105C51.5739 2.14848 51.4953 2.09774 51.4299 2.03222C51.3645 1.9667 51.3139 1.88793 51.2815 1.80121C51.2491 1.7145 51.2356 1.62185 51.242 1.5295V1.059C51.2358 0.961837 51.2492 0.864417 51.2816 0.772603C51.314 0.680788 51.3647 0.596479 51.4305 0.524759C51.4969 0.460898 51.5757 0.411251 51.6619 0.378845C51.7482 0.34644 51.8402 0.331959 51.9322 0.336286H63.6488C63.7463 0.325798 63.8449 0.337279 63.9373 0.369891C64.0298 0.402502 64.1137 0.455416 64.1831 0.524738C64.2524 0.59406 64.3053 0.678031 64.3379 0.770484C64.3705 0.862937 64.382 0.961522 64.3715 1.059V1.5295C64.3743 1.64473 64.3472 1.75872 64.2929 1.86035C64.2417 1.95455 64.1842 2.04515 64.1207 2.13154L57.4915 9.88612H58.1193C59.5656 9.88612 60.8276 10.1121 61.9051 10.5641C62.9345 10.9745 63.8121 11.6929 64.4176 12.621C65.0142 13.5431 65.3125 14.7055 65.3125 16.1085C65.3125 17.4906 64.988 18.6685 64.339 19.642C63.6792 20.6243 62.7531 21.398 61.6691 21.8726C60.5392 22.3869 59.252 22.6441 57.8075 22.6441Z" fill="#35BA96"/>
<path d="M76.2766 22.6441C74.6007 22.6441 73.1995 22.2879 72.0732 21.5756C70.9817 20.9077 70.0959 19.9515 69.5132 18.8122C68.9428 17.7049 68.6466 16.4768 68.6495 15.2312C68.6465 14.6439 68.7148 14.0583 68.8529 13.4874C68.9797 12.9556 69.1512 12.4353 69.3654 11.9322C69.5575 11.4871 69.7725 11.0521 70.0095 10.6292C70.1937 10.2972 70.3984 9.97706 70.6224 9.67051L76.8108 0.969487C76.9153 0.86508 77.0346 0.734913 77.1715 0.577625C77.2498 0.495325 77.3454 0.43146 77.4514 0.390655C77.5574 0.34985 77.6711 0.333124 77.7844 0.34169H78.381C78.4676 0.338649 78.5537 0.355532 78.6327 0.391031C78.7116 0.42653 78.7814 0.479698 78.8366 0.546437C78.9517 0.68215 79.0129 0.855348 79.0088 1.03322C79.0097 1.11418 78.994 1.19446 78.9627 1.26915C78.9364 1.3325 78.8992 1.39078 78.8529 1.44135L74.141 8.09491C74.4804 8.00306 74.827 7.94001 75.177 7.90644C75.5422 7.86644 75.9092 7.84562 76.2766 7.84407C77.5322 7.84407 78.6368 8.04836 79.5905 8.45694C80.4943 8.83105 81.3083 9.39309 81.9783 10.1058C82.6135 10.7906 83.1046 11.5962 83.4224 12.4746C83.745 13.355 83.9098 14.2854 83.9092 15.2231C83.9121 16.4687 83.6158 17.6967 83.0454 18.8041C82.4624 19.943 81.5766 20.8992 80.4854 21.5675C79.3546 22.2852 77.9516 22.6441 76.2766 22.6441ZM76.2766 20.7593C77.2342 20.7655 78.1803 20.5507 79.0414 20.1315C79.8977 19.7146 80.6209 19.067 81.1295 18.2617C81.6637 17.4355 81.9309 16.4253 81.9309 15.2312C81.9309 14.0371 81.6637 13.0319 81.1295 12.2156C80.6167 11.4179 79.8943 10.7766 79.0414 10.362C78.1783 9.94874 77.2335 9.73419 76.2766 9.73419C75.3197 9.73419 74.3749 9.94874 73.5119 10.362C72.659 10.7766 71.9366 11.4179 71.4237 12.2156C70.8895 13.0291 70.6224 14.0343 70.6224 15.2312C70.6224 16.428 70.8895 17.4382 71.4237 18.2617C71.9324 19.067 72.6555 19.7146 73.5119 20.1315C74.3733 20.549 75.3194 20.762 76.2766 20.7539V20.7593Z" fill="#35BA96"/>
<path d="M94.8719 22.6441C93.4481 22.6441 92.2599 22.4135 91.3071 21.9525C90.3931 21.5257 89.6033 20.8722 89.0129 20.0542C88.4237 19.2165 88.0023 18.2726 87.7722 17.2746C87.516 16.1891 87.3688 15.0808 87.3329 13.9661C87.3329 13.4011 87.3275 12.8253 87.3166 12.2386C87.3058 11.652 87.3058 11.0603 87.3166 10.4637C87.3275 9.8671 87.3329 9.27546 87.3329 8.68879C87.3486 7.57703 87.4909 6.47067 87.7573 5.39117C87.9967 4.39368 88.4227 3.45052 89.0129 2.61151C89.6038 1.79397 90.3934 1.14062 91.3071 0.713204C92.259 0.253995 93.4472 0.0234859 94.8719 0.021678C96.2965 0.0198701 97.4848 0.250379 98.4366 0.713204C99.3501 1.1403 100.139 1.79374 100.73 2.61151C101.321 3.45013 101.747 4.39339 101.986 5.39117C102.252 6.4708 102.395 7.57707 102.411 8.68879C102.431 9.27637 102.441 9.86801 102.442 10.4637V12.2386C102.442 12.8262 102.432 13.402 102.411 13.9661C102.395 15.0783 102.252 16.185 101.986 17.2651C101.747 18.2628 101.321 19.2061 100.73 20.0447C100.14 20.863 99.3505 21.5165 98.4366 21.943C97.4838 22.4104 96.2956 22.6441 94.8719 22.6441ZM94.8719 20.7593C96.7349 20.7593 98.1171 20.1415 99.0183 18.9057C99.9196 17.67 100.391 15.9738 100.431 13.8169C100.453 13.2104 100.464 12.64 100.464 12.1057V10.4976C100.464 9.96428 100.453 9.41467 100.431 8.8488C100.39 6.73354 99.9187 5.04767 99.0183 3.79117C98.118 2.53467 96.7358 1.90642 94.8719 1.90642C93.0296 1.90642 91.6529 2.53467 90.7417 3.79117C89.8305 5.04767 89.3541 6.73354 89.3126 8.8488C89.3126 9.41377 89.3071 9.96337 89.2963 10.4976C89.2854 11.0318 89.2854 11.5661 89.2963 12.1003C89.3071 12.6346 89.3126 13.205 89.3126 13.8115C89.3532 15.9683 89.8296 17.6646 90.7417 18.9003C91.6538 20.136 93.0305 20.7539 94.8719 20.7539V20.7593Z" fill="#35BA96"/>
<path d="M10.1478 8.69153H5.72068V1.12136C5.7239 1.01574 5.70451 0.910664 5.66382 0.81315C5.62313 0.715635 5.56208 0.62794 5.48474 0.555937C5.3271 0.409349 5.11824 0.330476 4.90305 0.336277H0.851524C0.747196 0.331659 0.643049 0.348804 0.545707 0.386624C0.448366 0.424444 0.359961 0.48211 0.286117 0.555954C0.212274 0.629797 0.15461 0.7182 0.116789 0.815542C0.0789692 0.912883 0.0618225 1.01703 0.0664406 1.12136V21.5403C0.0620299 21.6446 0.0793179 21.7487 0.117211 21.8459C0.155105 21.9432 0.212779 22.0315 0.286579 22.1053C0.360379 22.1791 0.448698 22.2368 0.545945 22.2747C0.643192 22.3126 0.747248 22.3298 0.851524 22.3254H4.90305C5.01094 22.3276 5.11814 22.3078 5.21814 22.2672C5.31814 22.2267 5.40884 22.1662 5.48474 22.0895C5.55866 22.0197 5.61768 21.9357 5.65823 21.8425C5.69878 21.7492 5.72002 21.6488 5.72068 21.5471V13.718H10.1478V21.5403C10.148 21.7428 10.2267 21.9372 10.3675 22.0827C10.4395 22.16 10.5272 22.221 10.6247 22.2617C10.7222 22.3024 10.8273 22.3218 10.9329 22.3186H14.9858C15.0913 22.3215 15.1963 22.302 15.2938 22.2613C15.3912 22.2206 15.479 22.1598 15.5512 22.0827C15.6914 21.9369 15.7701 21.7427 15.7708 21.5403V14.3458C15.7709 12.8516 15.1794 11.4181 14.1258 10.3586C13.0722 9.29912 11.642 8.69977 10.1478 8.69153Z" fill="#F26922"/>
<path d="M12.9302 6.01763C14.499 6.01763 15.7709 4.74581 15.7709 3.17695C15.7709 1.60809 14.499 0.336273 12.9302 0.336273C11.3613 0.336273 10.0895 1.60809 10.0895 3.17695C10.0895 4.74581 11.3613 6.01763 12.9302 6.01763Z" fill="#35BA96"/>
<path d="M51.6583 26.0461H0.0664368V27.5214H51.6583V26.0461Z" fill="#35BA96"/>
<path d="M19.5254 22.3241C19.4212 22.3275 19.3174 22.3086 19.221 22.2686C19.1246 22.2286 19.038 22.1685 18.9668 22.0922C18.8261 21.9468 18.7477 21.7522 18.7485 21.5498V6.93966C18.7477 6.73731 18.8261 6.54268 18.9668 6.39728C19.0379 6.32083 19.1245 6.26046 19.2209 6.22024C19.3172 6.18001 19.4211 6.16086 19.5254 6.16406H23.0997C23.2063 6.16176 23.3123 6.18126 23.4112 6.22136C23.51 6.26147 23.5997 6.32133 23.6746 6.39728C23.7483 6.46706 23.807 6.55115 23.8471 6.64441C23.8873 6.73767 23.9079 6.83814 23.9078 6.93966V8.18305C24.4449 7.54323 25.1198 7.03331 25.882 6.69152C26.7093 6.32853 27.6052 6.14816 28.5085 6.16271H29.8753C29.9785 6.1583 30.0815 6.17537 30.1777 6.21286C30.274 6.25034 30.3614 6.30741 30.4345 6.38046C30.5075 6.4535 30.5646 6.54093 30.6021 6.63719C30.6395 6.73345 30.6566 6.83645 30.6522 6.93966V10.141C30.6535 10.3432 30.5756 10.5379 30.4353 10.6834C30.3641 10.7601 30.2772 10.8206 30.1806 10.8608C30.084 10.9011 29.9799 10.9201 29.8753 10.9166H26.8651C26.0154 10.9166 25.3573 11.1498 24.8909 11.6163C24.4244 12.0827 24.1916 12.7408 24.1926 13.5905V21.5458C24.1923 21.6472 24.1715 21.7476 24.1315 21.8408C24.0914 21.934 24.0328 22.0182 23.9593 22.0881C23.8843 22.1638 23.7946 22.2235 23.6958 22.2633C23.5969 22.3032 23.491 22.3225 23.3844 22.32L19.5254 22.3241Z" fill="#F26922"/>
<path d="M40.198 22.6359C37.7573 22.6359 35.8097 21.9729 34.3553 20.6468C32.9008 19.3207 32.1446 17.3523 32.0868 14.7417V13.6569C32.1474 12.0217 32.5148 10.6183 33.1892 9.44677C33.8377 8.29928 34.8109 7.36903 35.9865 6.77287C37.1788 6.1627 38.5722 5.85717 40.1668 5.85626C41.9901 5.85626 43.4974 6.21784 44.6888 6.94101C45.8566 7.64062 46.792 8.66936 47.3776 9.8983C47.9788 11.1421 48.2793 12.5613 48.2793 14.1559V14.9017C48.2837 15.0049 48.2667 15.1079 48.2292 15.2042C48.1917 15.3004 48.1346 15.3878 48.0616 15.4609C47.9885 15.5339 47.9011 15.591 47.8049 15.6285C47.7086 15.666 47.6056 15.6831 47.5024 15.6786H37.5593V15.8969C37.5723 16.4607 37.6824 17.018 37.8848 17.5444C38.0593 18.0114 38.3608 18.4205 38.7553 18.7254C39.1651 19.0238 39.6628 19.177 40.1695 19.1607C40.5275 19.1722 40.8835 19.1027 41.2109 18.9573C41.4666 18.8391 41.7025 18.6822 41.9105 18.4922C42.0638 18.3498 42.2091 18.1991 42.3458 18.0407C42.4657 17.8718 42.6189 17.7292 42.7959 17.6217C42.9699 17.5607 43.1542 17.5345 43.3383 17.5444H47.1865C47.3754 17.5373 47.5597 17.6039 47.7003 17.7302C47.767 17.793 47.8174 17.8712 47.8472 17.9579C47.8769 18.0446 47.8852 18.1372 47.8712 18.2278C47.8495 18.5803 47.6732 19.0052 47.3424 19.5024C46.9433 20.0689 46.4552 20.5671 45.897 20.9776C45.18 21.5069 44.378 21.91 43.5254 22.1695C42.4476 22.4984 41.3247 22.6558 40.198 22.6359ZM37.5593 12.5966H42.8122V12.5342C42.8277 11.9331 42.7273 11.3347 42.5166 10.7715C42.3395 10.3101 42.0247 9.91432 41.6149 9.63795C41.1851 9.35985 40.6813 9.21806 40.1695 9.23118C39.6727 9.21946 39.1845 9.36153 38.7715 9.63795C38.3668 9.91975 38.0534 10.3138 37.8698 10.7715C37.6487 11.3322 37.5431 11.9317 37.5593 12.5342V12.5966Z" fill="#F26922"/>
<path d="M54.1139 30.5993C54.0718 30.6002 54.0309 30.5846 54 30.5559C53.9846 30.5408 53.9725 30.5226 53.9646 30.5025C53.9567 30.4824 53.953 30.4609 53.9539 30.4393V26.1234C53.9533 26.1014 53.957 26.0796 53.965 26.0591C53.9729 26.0386 53.9848 26.0199 54 26.0041C54.0148 25.989 54.0326 25.9771 54.0522 25.9692C54.0718 25.9613 54.0928 25.9575 54.1139 25.958H54.7173C54.7387 25.9569 54.7601 25.9605 54.7799 25.9685C54.7998 25.9764 54.8178 25.9886 54.8325 26.0041C54.8619 26.0367 54.8775 26.0795 54.8759 26.1234V27.8346H56.8312V26.1234C56.8305 26.1013 56.8344 26.0793 56.8425 26.0588C56.8507 26.0383 56.863 26.0197 56.8786 26.0041C56.8931 25.9889 56.9106 25.977 56.93 25.969C56.9494 25.9611 56.9702 25.9573 56.9912 25.958H57.5878C57.6098 25.957 57.6317 25.9606 57.6522 25.9686C57.6727 25.9766 57.6914 25.9887 57.7069 26.0043C57.7225 26.0198 57.7346 26.0385 57.7426 26.059C57.7506 26.0795 57.7542 26.1014 57.7532 26.1234V30.4393C57.7537 30.4605 57.7499 30.4815 57.742 30.5011C57.734 30.5206 57.7222 30.5384 57.7071 30.5532C57.6913 30.5684 57.6726 30.5804 57.6521 30.5883C57.6316 30.5962 57.6098 30.5999 57.5878 30.5993H56.9912C56.9488 30.5993 56.9081 30.5825 56.878 30.5525C56.848 30.5225 56.8312 30.4818 56.8312 30.4393V28.6631H54.8759V30.4393C54.8768 30.4815 54.8612 30.5223 54.8325 30.5532C54.8176 30.5685 54.7996 30.5804 54.7797 30.5883C54.7599 30.5963 54.7386 30.6 54.7173 30.5993H54.1139Z" fill="#394455"/>
<path d="M58.9736 26.5763C58.9526 26.5765 58.9317 26.5724 58.9124 26.5642C58.893 26.5561 58.8755 26.544 58.861 26.5288C58.8459 26.5143 58.8339 26.4968 58.826 26.4774C58.818 26.4581 58.8143 26.4372 58.8149 26.4163V25.939C58.8145 25.9181 58.8184 25.8973 58.8263 25.8779C58.8343 25.8586 58.8461 25.841 58.861 25.8264C58.8756 25.8114 58.8931 25.7995 58.9125 25.7916C58.9318 25.7837 58.9526 25.7798 58.9736 25.7803H59.577C59.5989 25.7794 59.6209 25.783 59.6414 25.7909C59.662 25.7989 59.6806 25.8109 59.6963 25.8264C59.7112 25.841 59.723 25.8586 59.731 25.8779C59.7389 25.8973 59.7428 25.9181 59.7424 25.939V26.4163C59.743 26.4372 59.7393 26.4581 59.7313 26.4774C59.7234 26.4968 59.7114 26.5143 59.6963 26.5288C59.6807 26.5445 59.6621 26.5567 59.6415 26.5649C59.621 26.5731 59.599 26.5769 59.577 26.5763H58.9736ZM58.9993 30.5939C58.9785 30.594 58.9578 30.59 58.9385 30.5821C58.9192 30.5741 58.9016 30.5625 58.8868 30.5478C58.8717 30.533 58.8599 30.5152 58.8519 30.4956C58.844 30.476 58.8402 30.455 58.8407 30.4339V27.3112C58.8402 27.29 58.844 27.269 58.8519 27.2494C58.8599 27.2299 58.8717 27.2121 58.8868 27.1973C58.9016 27.1826 58.9192 27.1709 58.9385 27.163C58.9578 27.1551 58.9785 27.1511 58.9993 27.1512H59.5498C59.5714 27.1503 59.5929 27.1539 59.613 27.1619C59.6331 27.1698 59.6513 27.1819 59.6664 27.1973C59.6951 27.2282 59.7107 27.269 59.7098 27.3112V30.4393C59.7107 30.4815 59.6951 30.5223 59.6664 30.5532C59.6513 30.5686 59.6331 30.5807 59.613 30.5886C59.5929 30.5966 59.5714 30.6002 59.5498 30.5993L58.9993 30.5939Z" fill="#394455"/>
<path d="M60.8814 30.5993C60.8605 30.5995 60.8398 30.5955 60.8205 30.5876C60.8011 30.5797 60.7836 30.568 60.7688 30.5532C60.7538 30.5384 60.7419 30.5206 60.734 30.501C60.726 30.4814 60.7222 30.4604 60.7227 30.4393V27.3207C60.722 27.2987 60.7256 27.2768 60.7336 27.2563C60.7415 27.2358 60.7535 27.2171 60.7688 27.2013C60.7836 27.1866 60.8011 27.1749 60.8205 27.167C60.8398 27.1591 60.8605 27.1551 60.8814 27.1552H61.4237C61.467 27.1553 61.5087 27.1718 61.5403 27.2013C61.5566 27.2166 61.5694 27.2352 61.578 27.2557C61.5867 27.2763 61.5909 27.2984 61.5905 27.3207V27.5919C61.691 27.451 61.8265 27.3388 61.9837 27.2664C62.1604 27.1885 62.352 27.15 62.5451 27.1539H62.8163C62.8378 27.1532 62.8593 27.1569 62.8794 27.1648C62.8994 27.1727 62.9177 27.1847 62.9329 27.2C62.9611 27.2311 62.9761 27.2719 62.9749 27.3139V27.7912C62.9759 27.8327 62.9609 27.873 62.9329 27.9037C62.9179 27.9193 62.8997 27.9314 62.8796 27.9394C62.8595 27.9473 62.8379 27.9509 62.8163 27.9498H62.2997C62.2094 27.9405 62.1182 27.9514 62.0327 27.9817C61.9471 28.0121 61.8695 28.0611 61.8053 28.1253C61.7411 28.1894 61.6921 28.2671 61.6617 28.3526C61.6314 28.4382 61.6205 28.5294 61.6298 28.6197V30.442C61.63 30.4631 61.6261 30.484 61.6182 30.5036C61.6102 30.5231 61.5986 30.5409 61.5837 30.5559C61.5516 30.5864 61.5087 30.603 61.4644 30.602L60.8814 30.5993Z" fill="#394455"/>
<path d="M63.7532 26.5763C63.7322 26.5764 63.7114 26.5723 63.6921 26.5641C63.6727 26.556 63.6552 26.5439 63.6407 26.5288C63.6255 26.5143 63.6136 26.4968 63.6056 26.4774C63.5977 26.458 63.5939 26.4372 63.5946 26.4163V25.939C63.5944 25.9181 63.5984 25.8974 63.6063 25.878C63.6142 25.8587 63.6259 25.8412 63.6406 25.8264C63.6554 25.8116 63.673 25.7999 63.6923 25.792C63.7116 25.7841 63.7323 25.7801 63.7532 25.7803H64.3566C64.3786 25.7793 64.4006 25.7829 64.4211 25.7908C64.4417 25.7988 64.4603 25.8109 64.4759 25.8264C64.4911 25.841 64.5031 25.8585 64.5113 25.8778C64.5194 25.8972 64.5235 25.918 64.5234 25.939V26.4163C64.5238 26.4373 64.5198 26.4582 64.5116 26.4776C64.5034 26.4969 64.4913 26.5144 64.4759 26.5288C64.4605 26.5446 64.4418 26.557 64.4213 26.5651C64.4007 26.5733 64.3787 26.5771 64.3566 26.5763H63.7532ZM63.7803 30.5939C63.7595 30.5941 63.7388 30.5901 63.7194 30.5821C63.7001 30.5742 63.6826 30.5625 63.6678 30.5478C63.6527 30.5329 63.6409 30.5152 63.633 30.4956C63.625 30.476 63.6212 30.455 63.6217 30.4339V27.3112C63.6212 27.29 63.625 27.269 63.633 27.2494C63.6409 27.2299 63.6527 27.2121 63.6678 27.1973C63.6826 27.1825 63.7001 27.1708 63.7194 27.1629C63.7388 27.155 63.7595 27.151 63.7803 27.1512H64.3309C64.3522 27.1503 64.3735 27.154 64.3934 27.1619C64.4133 27.1699 64.4312 27.1819 64.4461 27.1973C64.4606 27.2124 64.4718 27.2303 64.4793 27.2498C64.4867 27.2694 64.4902 27.2902 64.4895 27.3112V30.4393C64.4902 30.4602 64.4867 30.4811 64.4793 30.5006C64.4718 30.5202 64.4606 30.5381 64.4461 30.5532C64.4312 30.5686 64.4133 30.5806 64.3934 30.5886C64.3735 30.5965 64.3522 30.6002 64.3309 30.5993L63.7803 30.5939Z" fill="#394455"/>
<path d="M65.6637 30.5993C65.6426 30.5997 65.6216 30.5958 65.6021 30.5879C65.5825 30.58 65.5647 30.5682 65.5498 30.5533C65.5348 30.5384 65.5231 30.5206 65.5152 30.501C65.5073 30.4814 65.5034 30.4604 65.5037 30.4393V27.3112C65.5034 27.2901 65.5073 27.2691 65.5152 27.2495C65.5231 27.23 65.5348 27.2122 65.5498 27.1972C65.5647 27.1823 65.5825 27.1705 65.6021 27.1626C65.6216 27.1547 65.6426 27.1508 65.6637 27.1512H66.2061C66.227 27.1511 66.2477 27.1551 66.267 27.163C66.2863 27.1709 66.3038 27.1826 66.3186 27.1973C66.3337 27.2121 66.3456 27.2299 66.3535 27.2495C66.3614 27.2691 66.3653 27.2901 66.3647 27.3112V27.5824C66.4974 27.4184 66.6668 27.2879 66.8593 27.2014C67.0517 27.115 67.2618 27.075 67.4725 27.0847C67.7192 27.0789 67.9625 27.1423 68.1749 27.2678C68.3754 27.3905 68.5356 27.5691 68.6359 27.7817C68.75 28.0311 68.8052 28.3035 68.7973 28.5776V30.4393C68.7978 30.4605 68.794 30.4815 68.786 30.5011C68.7781 30.5206 68.7662 30.5384 68.7512 30.5532C68.7364 30.568 68.7189 30.5797 68.6995 30.5876C68.6802 30.5955 68.6595 30.5995 68.6386 30.5993H68.0556C68.0347 30.5995 68.014 30.5955 67.9947 30.5876C67.9754 30.5797 67.9578 30.568 67.9431 30.5532C67.928 30.5384 67.9161 30.5206 67.9082 30.5011C67.9003 30.4815 67.8964 30.4605 67.8969 30.4393V28.6169C67.9096 28.3994 67.8421 28.1847 67.7071 28.0136C67.6389 27.9388 67.5547 27.8802 67.4609 27.8422C67.367 27.8042 67.2658 27.7877 67.1647 27.7939C67.0626 27.7892 66.9607 27.8063 66.8657 27.8442C66.7708 27.8821 66.6851 27.9398 66.6142 28.0136C66.4695 28.1801 66.3955 28.3966 66.4081 28.6169V30.4393C66.4086 30.4605 66.4048 30.4815 66.3969 30.5011C66.389 30.5206 66.3771 30.5384 66.362 30.5532C66.3473 30.568 66.3297 30.5797 66.3104 30.5876C66.2911 30.5955 66.2704 30.5995 66.2495 30.5993H65.6637Z" fill="#394455"/>
<path d="M71.3315 32.0583C71.0611 32.067 70.7914 32.0242 70.537 31.9322C70.3545 31.8645 70.1876 31.7607 70.0461 31.6271C69.9393 31.526 69.8528 31.4054 69.7912 31.2719C69.7493 31.1864 69.7209 31.0949 69.7071 31.0007C69.7047 30.9794 69.7074 30.9579 69.715 30.9378C69.7225 30.9178 69.7347 30.8998 69.7505 30.8854C69.7654 30.8695 69.7835 30.8568 69.8036 30.8482C69.8236 30.8395 69.8453 30.8351 69.8671 30.8352H70.4434C70.481 30.833 70.5183 30.8435 70.5492 30.8651C70.5817 30.8943 70.6048 30.9325 70.6156 30.9749C70.6467 31.0394 70.6825 31.1015 70.7227 31.1607C70.7741 31.2335 70.8438 31.2915 70.9247 31.3288C71.0422 31.3816 71.1704 31.4058 71.299 31.3993C71.446 31.403 71.5923 31.3767 71.7288 31.322C71.8428 31.2744 71.9357 31.1873 71.9905 31.0766C72.0572 30.9267 72.0879 30.7632 72.08 30.5993V30.1478C71.9691 30.2805 71.8302 30.387 71.6732 30.4597C71.4805 30.5449 71.271 30.5857 71.0603 30.579C70.8502 30.5839 70.6414 30.5446 70.4475 30.4637C70.2787 30.3911 70.1296 30.2796 70.0122 30.1383C69.8942 29.992 69.8054 29.8245 69.7505 29.6447C69.6887 29.44 69.654 29.228 69.6475 29.0142C69.6475 28.8949 69.6475 28.7756 69.6475 28.6563C69.6548 28.447 69.6894 28.2396 69.7505 28.0393C69.8062 27.8579 69.8949 27.6882 70.0122 27.539C70.1287 27.3945 70.2779 27.2797 70.4475 27.2041C70.6409 27.1211 70.8499 27.0805 71.0603 27.0847C71.2804 27.0754 71.4992 27.122 71.6963 27.2203C71.8607 27.3083 72.0051 27.4292 72.1207 27.5756V27.3044C72.1202 27.2823 72.1241 27.2604 72.1322 27.2399C72.1404 27.2194 72.1526 27.2008 72.1681 27.1851C72.1828 27.1702 72.2003 27.1584 72.2197 27.1505C72.239 27.1426 72.2598 27.1387 72.2807 27.139H72.8231C72.8439 27.1389 72.8646 27.1429 72.8839 27.1508C72.9032 27.1587 72.9208 27.1704 72.9356 27.1851C72.9509 27.2008 72.9629 27.2195 72.9709 27.24C72.9788 27.2605 72.9825 27.2824 72.9817 27.3044L72.9763 30.5085C72.984 30.7933 72.9226 31.0757 72.7973 31.3315C72.6769 31.5616 72.4871 31.7481 72.2549 31.8644C71.9672 32.0024 71.6504 32.0689 71.3315 32.0583ZM71.299 29.8766C71.4539 29.8837 71.6071 29.8419 71.7369 29.7573C71.8462 29.6782 71.9312 29.5702 71.9824 29.4454C72.0339 29.321 72.065 29.1892 72.0746 29.0549C72.0746 28.9966 72.0814 28.9193 72.0814 28.8352C72.0814 28.7512 72.0814 28.6766 72.0746 28.6237C72.0658 28.488 72.0347 28.3547 71.9824 28.2291C71.9301 28.105 71.8453 27.9973 71.7369 27.9173C71.6051 27.8366 71.4535 27.794 71.299 27.794C71.1444 27.794 70.9929 27.8366 70.861 27.9173C70.7516 27.9977 70.6697 28.11 70.6264 28.2386C70.5777 28.3798 70.5498 28.5274 70.5437 28.6766C70.5342 28.7844 70.5342 28.8929 70.5437 29.0007C70.5503 29.149 70.5782 29.2956 70.6264 29.4359C70.669 29.565 70.7511 29.6774 70.861 29.7573C70.9909 29.8419 71.1441 29.8837 71.299 29.8766Z" fill="#394455"/>
<path d="M76.6427 30.6658C76.4276 30.6686 76.2148 30.6222 76.0203 30.5302C75.8447 30.4477 75.6927 30.3222 75.5783 30.1655C75.4432 29.9697 75.39 29.7288 75.4303 29.4944C75.4706 29.2599 75.6011 29.0506 75.7939 28.9112C76.0895 28.7118 76.4283 28.5858 76.7824 28.5438L77.6908 28.4082V28.2726C77.7022 28.1168 77.6537 27.9626 77.5553 27.8414C77.4906 27.7842 77.4148 27.7411 77.3327 27.7147C77.2505 27.6883 77.1638 27.6793 77.078 27.6882C76.9421 27.6823 76.8075 27.7158 76.6902 27.7844C76.593 27.8461 76.5157 27.9347 76.4678 28.0394C76.453 28.0665 76.431 28.0889 76.4042 28.1043C76.3773 28.1196 76.3468 28.1271 76.3159 28.1261H75.7912C75.7714 28.1274 75.7515 28.1246 75.7328 28.1178C75.7142 28.1111 75.6971 28.1005 75.6827 28.0868C75.6573 28.0571 75.6442 28.0188 75.6461 27.9797C75.6571 27.8884 75.6876 27.8005 75.7356 27.7221C75.8007 27.6088 75.8862 27.5086 75.9878 27.4265C76.1195 27.321 76.2687 27.2393 76.4285 27.1851C76.6397 27.1137 76.8618 27.0798 77.0848 27.0848C77.3243 27.0793 77.5631 27.1142 77.7912 27.1878C77.9628 27.2435 78.1202 27.336 78.2522 27.459C78.3659 27.5736 78.4517 27.7128 78.5031 27.8658C78.5574 28.0237 78.5844 28.1897 78.5831 28.3566V30.438C78.5836 30.4591 78.5797 30.4801 78.5718 30.4997C78.5639 30.5193 78.552 30.5371 78.537 30.5519C78.5222 30.5666 78.5046 30.5782 78.4853 30.5862C78.466 30.5941 78.4453 30.5981 78.4244 30.598H77.882C77.8605 30.5989 77.8389 30.5952 77.8189 30.5873C77.7988 30.5794 77.7806 30.5673 77.7654 30.5519C77.7368 30.521 77.7212 30.4801 77.722 30.438V30.1804C77.6567 30.2688 77.5786 30.3469 77.4902 30.4122C77.3831 30.492 77.2635 30.5534 77.1363 30.5939C76.9767 30.6445 76.81 30.6687 76.6427 30.6658ZM76.8692 30.0353C77.0153 30.0375 77.1597 30.0035 77.2895 29.9363C77.4186 29.8667 77.5228 29.7586 77.5878 29.6272C77.6665 29.4633 77.7042 29.2827 77.6976 29.101V28.9655L77.0346 29.0712C76.8282 29.0928 76.6289 29.1584 76.4502 29.2638C76.3932 29.2972 76.3458 29.3447 76.3123 29.4016C76.2789 29.4586 76.2605 29.5231 76.259 29.5892C76.2568 29.6802 76.2887 29.7687 76.3485 29.8373C76.41 29.9071 76.4885 29.9598 76.5763 29.9905C76.6707 30.0219 76.7697 30.0371 76.8692 30.0353Z" fill="#394455"/>
<path d="M81.0847 30.5993C80.8543 30.6082 80.625 30.5617 80.4163 30.4637C80.239 30.3774 80.0958 30.2342 80.0095 30.0569C79.9136 29.8408 79.8672 29.6059 79.8739 29.3695V27.8549H79.3505C79.3295 27.8551 79.3087 27.8509 79.2893 27.8428C79.27 27.8346 79.2525 27.8226 79.238 27.8075C79.2224 27.7919 79.2103 27.7732 79.2023 27.7526C79.1944 27.7321 79.1908 27.7101 79.1919 27.6881V27.3112C79.1913 27.29 79.1952 27.269 79.2031 27.2495C79.211 27.2299 79.2229 27.2121 79.238 27.1973C79.2528 27.1826 79.2703 27.1709 79.2896 27.163C79.3089 27.1551 79.3296 27.1511 79.3505 27.1512H79.8739V26.0502C79.8734 26.0085 79.8889 25.9682 79.9173 25.9376C79.9324 25.9222 79.9506 25.9102 79.9707 25.9022C79.9908 25.8943 80.0123 25.8906 80.0339 25.8915H80.5763C80.5971 25.8914 80.6178 25.8954 80.6371 25.9034C80.6564 25.9113 80.674 25.9229 80.6888 25.9376C80.7038 25.9522 80.7156 25.9698 80.7235 25.9891C80.7314 26.0085 80.7353 26.0292 80.7349 26.0502V27.1512H81.5634C81.5845 27.1508 81.6055 27.1547 81.625 27.1626C81.6446 27.1705 81.6624 27.1823 81.6773 27.1972C81.6923 27.2122 81.704 27.2299 81.7119 27.2495C81.7199 27.2691 81.7237 27.2901 81.7234 27.3112V27.6881C81.7241 27.7101 81.7204 27.732 81.7124 27.7525C81.7045 27.773 81.6926 27.7917 81.6773 27.8075C81.6625 27.8227 81.6448 27.8348 81.6252 27.8429C81.6056 27.8511 81.5846 27.8552 81.5634 27.8549H80.7349V29.2881C80.7272 29.4358 80.7605 29.5827 80.8312 29.7125C80.8685 29.7652 80.9192 29.8071 80.9781 29.8338C81.0369 29.8604 81.1018 29.871 81.1661 29.8644H81.6271C81.6482 29.8639 81.6692 29.8677 81.6888 29.8756C81.7084 29.8836 81.7262 29.8954 81.741 29.9105C81.7557 29.9253 81.7674 29.9429 81.7753 29.9622C81.7832 29.9815 81.7872 30.0022 81.7871 30.023V30.4298C81.7875 30.4509 81.7836 30.4719 81.7757 30.4915C81.7678 30.5111 81.756 30.5288 81.7411 30.5438C81.7261 30.5587 81.7083 30.5705 81.6888 30.5784C81.6692 30.5863 81.6482 30.5902 81.6271 30.5898L81.0847 30.5993Z" fill="#394455"/>
<path d="M84.3932 30.5993C84.3724 30.5994 84.3517 30.5954 84.3324 30.5875C84.313 30.5796 84.2955 30.5679 84.2807 30.5532C84.2656 30.5384 84.2538 30.5207 84.2458 30.5011C84.2379 30.4815 84.2341 30.4605 84.2346 30.4393V26.1234C84.2336 26.1014 84.2373 26.0795 84.2452 26.0589C84.2531 26.0384 84.2652 26.0197 84.2807 26.0041C84.2953 25.9891 84.3128 25.9773 84.3322 25.9694C84.3515 25.9615 84.3723 25.9576 84.3932 25.958H87.3112C87.3332 25.957 87.3551 25.9606 87.3756 25.9686C87.3961 25.9766 87.4148 25.9887 87.4303 26.0043C87.4459 26.0198 87.458 26.0385 87.466 26.059C87.474 26.0795 87.4776 26.1014 87.4766 26.1234V26.5614C87.4771 26.5823 87.4733 26.6031 87.4653 26.6225C87.4574 26.6418 87.4455 26.6593 87.4305 26.6739C87.4149 26.6894 87.3962 26.7015 87.3757 26.7094C87.3551 26.7173 87.3332 26.7209 87.3112 26.72H85.1295V27.8942H87.1634C87.2073 27.8927 87.2501 27.9083 87.2827 27.9376C87.2985 27.9522 87.311 27.9701 87.3192 27.99C87.3274 28.0099 87.3311 28.0314 87.3302 28.0529V28.4597C87.3312 28.4814 87.3274 28.503 87.3192 28.5232C87.311 28.5433 87.2986 28.5614 87.2827 28.5763C87.2501 28.6057 87.2073 28.6212 87.1634 28.6197H85.1295V29.8305H87.3641C87.3861 29.8298 87.4081 29.8335 87.4286 29.8417C87.4491 29.8498 87.4677 29.8621 87.4832 29.8777C87.4988 29.8934 87.5109 29.9121 87.5189 29.9327C87.5268 29.9533 87.5305 29.9753 87.5295 29.9973V30.4339C87.53 30.455 87.5262 30.476 87.5182 30.4956C87.5103 30.5152 87.4985 30.533 87.4834 30.5478C87.4676 30.563 87.4489 30.5749 87.4284 30.5829C87.4079 30.5908 87.386 30.5945 87.3641 30.5939L84.3932 30.5993Z" fill="#394455"/>
<path d="M89.4126 30.6658C89.1971 30.6686 88.9838 30.6222 88.7889 30.5302C88.6136 30.4477 88.4621 30.3222 88.3482 30.1655C88.212 29.9701 88.1583 29.7289 88.1986 29.4941C88.239 29.2594 88.3702 29.05 88.5638 28.9112C88.8594 28.7118 89.1983 28.5859 89.5523 28.5438L90.4608 28.4082V28.2726C90.4719 28.1903 90.4634 28.1066 90.4358 28.0283C90.4082 27.95 90.3623 27.8794 90.3021 27.8223C90.2418 27.7652 90.1688 27.7233 90.0891 27.6999C90.0095 27.6766 89.9254 27.6726 89.8438 27.6882C89.708 27.6822 89.5733 27.7156 89.456 27.7845C89.3585 27.8457 89.2811 27.9344 89.2337 28.0394C89.2186 28.0666 89.1964 28.0891 89.1693 28.1044C89.1423 28.1197 89.1115 28.1273 89.0804 28.1262H88.557C88.537 28.1276 88.5169 28.1248 88.498 28.118C88.4791 28.1112 88.4618 28.1006 88.4472 28.0868C88.4227 28.0567 88.4102 28.0185 88.412 27.9797C88.423 27.8884 88.4535 27.8006 88.5015 27.7221C88.5656 27.6086 88.6507 27.5083 88.7523 27.4265C88.8845 27.321 89.0341 27.2393 89.1943 27.1851C89.4056 27.1136 89.6277 27.0797 89.8506 27.0848C90.0898 27.0793 90.3281 27.1141 90.5557 27.1879C90.7275 27.243 90.885 27.3357 91.0167 27.459C91.1313 27.5732 91.2176 27.7125 91.2689 27.8658C91.3226 28.0239 91.3496 28.1897 91.3489 28.3567V30.438C91.3493 30.4591 91.3454 30.4801 91.3375 30.4997C91.3296 30.5193 91.3178 30.537 91.3029 30.552C91.2879 30.5669 91.2702 30.5787 91.2506 30.5866C91.231 30.5945 91.21 30.5984 91.1889 30.598H90.6465C90.6252 30.5987 90.6039 30.595 90.5841 30.587C90.5642 30.5791 90.5463 30.5672 90.5313 30.5519C90.5168 30.5368 90.5056 30.5189 90.4981 30.4993C90.4907 30.4798 90.4872 30.4589 90.4879 30.438V30.1804C90.4222 30.2685 90.3441 30.3466 90.256 30.4123C90.1486 30.4922 90.0285 30.5537 89.9008 30.594C89.743 30.6441 89.5782 30.6684 89.4126 30.6658ZM89.6377 30.0353C89.7843 30.0375 89.9291 30.0035 90.0594 29.9363C90.1885 29.8667 90.2927 29.7586 90.3577 29.6272C90.436 29.4632 90.4732 29.2826 90.4662 29.1011V28.9655L89.8032 29.0712C89.5973 29.093 89.3984 29.1586 89.2201 29.2638C89.163 29.2972 89.1153 29.3446 89.0817 29.4015C89.048 29.4585 89.0293 29.5231 89.0276 29.5892C89.0254 29.6802 89.0573 29.7687 89.117 29.8373C89.179 29.9073 89.2579 29.9601 89.3462 29.9906C89.4402 30.0218 89.5387 30.037 89.6377 30.0353Z" fill="#394455"/>
<path d="M93.6369 30.6657C93.4073 30.6706 93.1785 30.639 92.9589 30.5722C92.7928 30.5225 92.6368 30.444 92.4979 30.3403C92.3925 30.2662 92.3008 30.1745 92.2267 30.0691C92.1787 29.9999 92.1472 29.9206 92.1345 29.8373C92.131 29.8159 92.133 29.7939 92.1404 29.7735C92.1477 29.7531 92.1602 29.7349 92.1765 29.7207C92.2067 29.6934 92.2457 29.678 92.2863 29.6773H92.8111C92.8264 29.6751 92.8419 29.6751 92.8572 29.6773C92.8778 29.6865 92.8959 29.7004 92.9101 29.7179L93.0918 29.8698C93.1612 29.9259 93.2384 29.9715 93.3209 30.0054C93.4451 30.0497 93.577 30.0685 93.7087 30.0606C93.8403 30.0526 93.969 30.0182 94.087 29.9593C94.1306 29.9342 94.1682 29.8999 94.1974 29.8589C94.2265 29.8179 94.2464 29.7711 94.2558 29.7216C94.2652 29.6722 94.2638 29.6214 94.2518 29.5725C94.2397 29.5237 94.2173 29.478 94.186 29.4386C94.1059 29.3647 94.0091 29.3112 93.904 29.2827C93.7126 29.2221 93.5179 29.1723 93.3209 29.1335C93.1065 29.0883 92.8991 29.0149 92.704 28.9152C92.5547 28.8394 92.4286 28.7246 92.3392 28.583C92.2551 28.436 92.2139 28.2684 92.2204 28.0991C92.2268 27.9299 92.2807 27.7659 92.3758 27.6257C92.4933 27.4576 92.6533 27.3238 92.8396 27.2379C93.0798 27.1288 93.3419 27.0764 93.6057 27.0847C93.817 27.0807 94.0277 27.1109 94.2294 27.1742C94.3872 27.2244 94.5359 27.2995 94.6701 27.3966C94.7745 27.4718 94.8661 27.5634 94.9413 27.6678C94.9945 27.7363 95.0286 27.8177 95.0402 27.9037C95.0438 27.9247 95.0421 27.9462 95.0352 27.9663C95.0284 27.9865 95.0166 28.0046 95.0009 28.019C94.9871 28.0329 94.9706 28.0438 94.9524 28.0513C94.9342 28.0587 94.9148 28.0625 94.8952 28.0624H94.4043C94.3836 28.0629 94.3631 28.0582 94.3446 28.0488C94.3259 28.0399 94.3081 28.029 94.2918 28.0162L94.1331 27.8739C94.0706 27.818 93.9997 27.7722 93.923 27.7383C93.8205 27.6992 93.7112 27.6812 93.6016 27.6854C93.4648 27.676 93.329 27.7148 93.2179 27.7952C93.1758 27.8268 93.1416 27.8677 93.1181 27.9148C93.0945 27.9619 93.0823 28.0138 93.0823 28.0664C93.0807 28.1366 93.1026 28.2054 93.1446 28.2617C93.215 28.3352 93.3033 28.3889 93.4009 28.4176C93.5913 28.4828 93.7862 28.534 93.984 28.5708C94.2313 28.6074 94.4703 28.6868 94.6904 28.8054C94.8438 28.8896 94.9721 29.0132 95.0619 29.1634C95.1346 29.3012 95.1719 29.455 95.1704 29.6108C95.1736 29.806 95.1121 29.9967 94.9955 30.1532C94.8618 30.3248 94.6822 30.455 94.4775 30.5288C94.2082 30.626 93.9231 30.6725 93.6369 30.6657Z" fill="#394455"/>
<path d="M97.4753 30.6657C97.2623 30.6771 97.0493 30.6453 96.849 30.5724C96.6486 30.4995 96.465 30.3869 96.3092 30.2413C96.0208 29.9584 95.8658 29.5561 95.8441 29.0346C95.8441 28.9898 95.8373 28.9342 95.8373 28.8651C95.8373 28.7959 95.8373 28.743 95.8441 28.7023C95.8526 28.4001 95.931 28.104 96.0732 27.8373C96.203 27.6019 96.3973 27.4086 96.6332 27.28C96.8929 27.1448 97.1826 27.0776 97.4753 27.0847C97.7906 27.074 98.1027 27.151 98.377 27.3071C98.6182 27.4529 98.8099 27.6679 98.9275 27.924C99.056 28.2103 99.1194 28.5215 99.1132 28.8352V28.9708C99.1133 28.9917 99.1093 29.0124 99.1014 29.0317C99.0935 29.051 99.0818 29.0686 99.0671 29.0834C99.0514 29.0987 99.0327 29.1107 99.0122 29.1186C98.9917 29.1266 98.9698 29.1302 98.9478 29.1295H96.7458V29.1823C96.7482 29.3295 96.7786 29.475 96.8353 29.6108C96.8869 29.7361 96.9718 29.8448 97.0807 29.9254C97.1934 30.0066 97.3296 30.0486 97.4685 30.0447C97.5753 30.0479 97.6816 30.0285 97.7803 29.9878C97.8562 29.9545 97.9259 29.9087 97.9865 29.8522C98.0275 29.8159 98.0651 29.7759 98.099 29.7329C98.1236 29.694 98.1564 29.6612 98.1953 29.6366C98.2299 29.6238 98.2668 29.6183 98.3037 29.6203H98.8746C98.9144 29.6192 98.9532 29.6333 98.9831 29.6596C98.9974 29.6717 99.0083 29.6873 99.0148 29.7049C99.0212 29.7225 99.0229 29.7415 99.0197 29.76C99.006 29.8537 98.9687 29.9424 98.9112 30.0176C98.8298 30.1327 98.7299 30.2335 98.6156 30.3159C98.4701 30.4227 98.3079 30.5047 98.1356 30.5586C97.9226 30.6294 97.6997 30.6656 97.4753 30.6657ZM96.7458 28.5776H98.2115V28.5573C98.215 28.4014 98.1854 28.2466 98.1248 28.103C98.0729 27.9785 97.9851 27.8723 97.8726 27.7979C97.7525 27.726 97.6152 27.688 97.4753 27.688C97.3353 27.688 97.198 27.726 97.078 27.7979C96.9661 27.8723 96.8792 27.9786 96.8285 28.103C96.7705 28.2473 96.7424 28.4018 96.7458 28.5573V28.5776Z" fill="#394455"/>
<path d="M100.068 30.5993C100.047 30.5995 100.026 30.5955 100.007 30.5876C99.9876 30.5797 99.97 30.568 99.9553 30.5532C99.9402 30.5384 99.9283 30.5206 99.9204 30.501C99.9125 30.4815 99.9086 30.4604 99.9092 30.4393V29.783C99.9084 29.7611 99.9121 29.7392 99.92 29.7187C99.9279 29.6982 99.9399 29.6795 99.9553 29.6637C99.97 29.649 99.9876 29.6373 100.007 29.6294C100.026 29.6214 100.047 29.6174 100.068 29.6176H100.731C100.752 29.6175 100.772 29.6216 100.792 29.6295C100.811 29.6374 100.829 29.649 100.843 29.6637C100.859 29.6795 100.871 29.6982 100.879 29.7187C100.887 29.7392 100.89 29.7611 100.889 29.783V30.4393C100.89 30.4604 100.886 30.4815 100.878 30.501C100.87 30.5206 100.858 30.5384 100.843 30.5532C100.829 30.5679 100.811 30.5796 100.792 30.5875C100.772 30.5954 100.752 30.5994 100.731 30.5993H100.068Z" fill="#394455"/>
</g>
<defs>
<clipPath id="clip0_389_210">
<rect width="102.508" height="32" fill="white"/>
</clipPath>
</defs>
</svg>
