<svg width="20" height="20" viewBox="0 0 20 20" fill="none" xmlns="http://www.w3.org/2000/svg">
<path d="M15.8334 16.418H4.16839C3.57191 16.4173 3.00007 16.18 2.57829 15.7582C2.15651 15.3364 1.91925 14.7644 1.91854 14.1679V5.83455C1.91925 5.23798 2.15651 4.66606 2.57829 4.24422C3.00007 3.82239 3.57191 3.58509 4.16839 3.58438H15.8334C16.4299 3.58509 17.0018 3.82239 17.4235 4.24422C17.8453 4.66606 18.0826 5.23798 18.0833 5.83455V14.1679C18.0826 14.7644 17.8453 15.3364 17.4235 15.7582C17.0018 16.18 16.4299 16.4173 15.8334 16.418ZM4.16839 4.75138C3.88125 4.75168 3.60596 4.8659 3.40292 5.06896C3.19988 5.27203 3.08568 5.54737 3.08538 5.83455V14.1679C3.08568 14.4551 3.19988 14.7304 3.40292 14.9335C3.60596 15.1365 3.88125 15.2507 4.16839 15.251H15.8334C16.1206 15.2507 16.3959 15.1365 16.5989 14.9335C16.802 14.7304 16.9162 14.4551 16.9165 14.1679V5.83455C16.9162 5.54737 16.802 5.27203 16.5989 5.06896C16.3959 4.8659 16.1206 4.75168 15.8334 4.75138H4.16839Z" fill="#71777B"/>
<path d="M10.0009 11.4181C9.8858 11.418 9.77328 11.3839 9.67748 11.32L2.17851 6.32004C2.1144 6.27773 2.05927 6.22316 2.0163 6.15948C1.97333 6.0958 1.94336 6.02426 1.92811 5.94896C1.91286 5.87366 1.91264 5.79609 1.92744 5.72071C1.94225 5.64532 1.9718 5.57361 2.0144 5.50967C2.057 5.44574 2.11181 5.39086 2.17567 5.34817C2.23954 5.30548 2.31121 5.27583 2.38656 5.26092C2.46192 5.24601 2.53947 5.24613 2.61478 5.26128C2.69009 5.27643 2.76166 5.30631 2.82539 5.34921L10.0009 10.1335L17.1764 5.34917C17.3052 5.26422 17.4623 5.23371 17.6135 5.26433C17.7646 5.29495 17.8975 5.38421 17.983 5.51257C18.0686 5.64093 18.0998 5.79795 18.0698 5.94927C18.0399 6.10058 17.9513 6.23389 17.8233 6.32001L10.3244 11.32C10.2285 11.3838 10.116 11.418 10.0009 11.4181Z" fill="#71777B"/>
</svg>
