<svg width="20" height="20" viewBox="0 0 20 20" fill="none" xmlns="http://www.w3.org/2000/svg">
<path d="M10.0001 13.0838C8.89579 13.0838 7.81628 12.7563 6.89808 12.1428C5.97987 11.5293 5.26422 10.6574 4.84162 9.63717C4.41902 8.61697 4.30844 7.49438 4.52388 6.41134C4.73932 5.32831 5.2711 4.33347 6.05196 3.55265C6.83283 2.77182 7.82772 2.24007 8.91081 2.02464C9.9939 1.80921 11.1166 1.91978 12.1368 2.34236C13.1571 2.76494 14.0291 3.48055 14.6426 4.3987C15.2561 5.31686 15.5836 6.39631 15.5836 7.50057C15.5819 8.98079 14.9931 10.3999 13.9463 11.4466C12.8996 12.4933 11.4804 13.082 10.0001 13.0838ZM10.0001 3.0843C9.12661 3.0843 8.27272 3.34332 7.54644 3.82859C6.82015 4.31386 6.25408 5.00358 5.91981 5.81055C5.58554 6.61752 5.49808 7.50548 5.6685 8.36215C5.83891 9.21882 6.25954 10.0057 6.8772 10.6233C7.49486 11.241 8.28181 11.6616 9.13852 11.832C9.99524 12.0024 10.8833 11.9149 11.6903 11.5807C12.4973 11.2464 13.187 10.6804 13.6723 9.95411C14.1576 9.22786 14.4166 8.37402 14.4166 7.50057C14.4153 6.3297 13.9496 5.20716 13.1216 4.37923C12.2936 3.55131 11.171 3.08561 10.0001 3.0843Z" fill="#004E3E"/>
<path d="M12.8354 17.9937C12.733 17.9936 12.6325 17.9666 12.5438 17.9154C12.4552 17.8642 12.3816 17.7906 12.3304 17.7019L9.49639 12.7945C9.4578 12.7281 9.43269 12.6548 9.4225 12.5787C9.4123 12.5026 9.41723 12.4253 9.43699 12.3511C9.45676 12.2769 9.49097 12.2073 9.53766 12.1464C9.58436 12.0854 9.64263 12.0343 9.70912 11.9959C9.77562 11.9575 9.84904 11.9326 9.92517 11.9227C10.0013 11.9127 10.0786 11.9179 10.1528 11.9379C10.2269 11.9578 10.2964 11.9923 10.3572 12.0391C10.418 12.086 10.4689 12.1444 10.5071 12.211L12.7955 16.1745L13.6439 14.4582C13.6938 14.3541 13.7739 14.2674 13.8739 14.2096C13.9739 14.1518 14.0891 14.1256 14.2042 14.1344L16.1151 14.2581L13.8267 10.2947C13.7493 10.1606 13.7283 10.0014 13.7684 9.85187C13.8084 9.70239 13.9062 9.57494 14.0403 9.49757C14.1743 9.4202 14.3336 9.39923 14.4831 9.43929C14.6326 9.47935 14.76 9.57715 14.8374 9.71118L17.6707 14.6186C17.7234 14.71 17.7503 14.8141 17.7486 14.9196C17.7469 15.0252 17.7165 15.1283 17.6608 15.218C17.6051 15.3077 17.5261 15.3806 17.4323 15.4289C17.3384 15.4773 17.2332 15.4993 17.1278 15.4925L14.5176 15.3237L13.3583 17.6686C13.3116 17.7633 13.24 17.8435 13.1512 17.9007C13.0624 17.9579 12.9597 17.9899 12.8541 17.9932L12.8354 17.9937Z" fill="#004E3E"/>
<path d="M7.16604 17.9944L7.14733 17.994C7.04176 17.9906 6.9391 17.9586 6.8503 17.9014C6.7615 17.8442 6.68991 17.764 6.64316 17.6693L5.48389 15.3244L2.87322 15.4933C2.76786 15.5 2.66266 15.478 2.56881 15.4297C2.47496 15.3813 2.39598 15.3084 2.34029 15.2188C2.28459 15.1291 2.25426 15.026 2.25252 14.9204C2.25078 14.8149 2.27771 14.7108 2.33043 14.6194L5.16368 9.71199C5.24106 9.57797 5.36851 9.48017 5.518 9.44011C5.66749 9.40005 5.82677 9.42101 5.9608 9.49838C6.09483 9.57575 6.19264 9.7032 6.2327 9.85268C6.27276 10.0022 6.2518 10.1614 6.17443 10.2955L3.88601 14.2589L5.79684 14.1352C5.91189 14.1271 6.02673 14.1536 6.12658 14.2113C6.22644 14.2691 6.30673 14.3553 6.35715 14.4591L7.20594 16.1753L9.49395 12.2119C9.57133 12.0778 9.69878 11.98 9.84827 11.94C9.99775 11.8999 10.157 11.9209 10.2911 11.9982C10.4251 12.0756 10.5229 12.2031 10.563 12.3525C10.603 12.502 10.5821 12.6613 10.5047 12.7953L7.67141 17.7027C7.62013 17.7913 7.54645 17.8649 7.45775 17.9161C7.36905 17.9673 7.26846 17.9943 7.16604 17.9944Z" fill="#004E3E"/>
</svg>
