<svg width="20" height="20" viewBox="0 0 20 20" fill="none" xmlns="http://www.w3.org/2000/svg">
<path d="M18.0987 12.2162C18.0528 12.0686 17.9683 11.9373 17.8547 11.8374C17.7416 11.7373 17.6037 11.6727 17.457 11.6513L15.9531 11.4228L15.2816 10.0038C15.2323 9.89926 15.1627 9.80673 15.0771 9.73218C14.9915 9.65764 14.8918 9.60275 14.7847 9.57107C14.6775 9.53938 14.5651 9.53161 14.4549 9.54826C14.3447 9.56491 14.239 9.60561 14.1448 9.66772C14.0209 9.74947 13.921 9.86536 13.856 10.0027L13.1837 11.4228L11.6848 11.6506C11.5745 11.6662 11.4686 11.706 11.374 11.7674C11.2794 11.8287 11.1982 11.9101 11.1357 12.0065C11.0731 12.1028 11.0307 12.2118 11.011 12.3264C10.9914 12.4411 10.9951 12.5587 11.0218 12.6718C11.0578 12.8226 11.1332 12.9599 11.2395 13.0685L12.3265 14.1738L12.0697 15.7383C12.0457 15.8919 12.0632 16.0494 12.1202 16.1931C12.177 16.3357 12.2706 16.4588 12.3906 16.5488C12.5107 16.6387 12.6523 16.6919 12.7996 16.7022C12.9462 16.7142 13.0931 16.6819 13.2228 16.6092L14.5681 15.8716L15.9119 16.6077C16.0266 16.6716 16.1546 16.7051 16.2846 16.7052C16.3024 16.7052 16.3202 16.7045 16.338 16.703C16.4862 16.6932 16.6286 16.6392 16.7485 16.5474C16.8691 16.4561 16.963 16.3313 17.0195 16.1872C17.0753 16.0436 17.0913 15.8865 17.0657 15.7339L16.8097 14.1738L17.8953 13.07C18.002 12.9617 18.0777 12.8244 18.1136 12.6735C18.1496 12.5226 18.1444 12.3642 18.0987 12.2162Z" fill="#004E3E"/>
<path d="M9.40487 11.8374C9.29181 11.7373 9.15392 11.6727 9.00721 11.6513L7.50334 11.4228L6.83179 10.0038C6.78255 9.89926 6.71287 9.80673 6.62727 9.73218C6.54167 9.65764 6.44205 9.60275 6.33487 9.57107C6.22769 9.53938 6.11535 9.53161 6.00512 9.54826C5.89489 9.56491 5.78923 9.60561 5.695 9.66772C5.57113 9.74947 5.47119 9.86536 5.40618 10.0027L4.73391 11.4228L3.23502 11.6506C3.12474 11.6663 3.01885 11.706 2.92424 11.7674C2.82963 11.8287 2.74841 11.9102 2.68587 12.0065C2.62333 12.1028 2.58087 12.2118 2.56125 12.3264C2.54163 12.4411 2.54529 12.5587 2.57199 12.6718C2.60798 12.8226 2.68335 12.9599 2.78967 13.0685L3.87667 14.1738L3.61986 15.7383C3.59592 15.8919 3.61341 16.0494 3.67037 16.1931C3.72715 16.3357 3.82081 16.4588 3.94083 16.5488C4.06084 16.6387 4.20245 16.6919 4.34974 16.7022C4.49644 16.7142 4.64334 16.6819 4.77302 16.6092L6.11825 15.8716L7.46206 16.6077C7.57683 16.6716 7.70482 16.7051 7.83482 16.7052C7.8526 16.7052 7.87039 16.7045 7.88818 16.703C8.03639 16.6932 8.17883 16.6392 8.29865 16.5474C8.4193 16.4561 8.51317 16.3313 8.56969 16.1872C8.6255 16.0436 8.64153 15.8865 8.61593 15.7339L8.35983 14.1738L9.44541 13.07C9.52535 12.9892 9.58819 12.8918 9.62985 12.784C9.67151 12.6762 9.69106 12.5605 9.68724 12.4443C9.68341 12.3281 9.6563 12.214 9.60765 12.1094C9.55901 12.0049 9.48994 11.9122 9.40487 11.8374Z" fill="#004E3E"/>
<path d="M12.0591 9.08279C12.0768 9.08279 12.0946 9.08242 12.1124 9.08093C12.2233 9.07312 12.3313 9.04101 12.4296 8.98667C12.5278 8.93234 12.6141 8.85701 12.6827 8.76556C12.7513 8.67411 12.8008 8.56859 12.8279 8.45584C12.855 8.34309 12.8592 8.22564 12.8401 8.11109L12.584 6.55139L13.6696 5.44795C13.7764 5.34001 13.8521 5.20291 13.8881 5.05222C13.9241 4.90153 13.919 4.74329 13.8733 4.59549C13.8277 4.44768 13.7433 4.31623 13.6299 4.21608C13.5164 4.11592 13.3783 4.05108 13.2314 4.02892L11.7275 3.80079L11.0553 2.3799C10.9895 2.24095 10.888 2.124 10.762 2.04225C10.6361 1.9605 10.4909 1.9172 10.3427 1.91724C10.1945 1.91728 10.0493 1.96065 9.92343 2.04247C9.79756 2.12429 9.69605 2.24129 9.63036 2.38027L8.9581 3.80079L7.45922 4.02818C7.31293 4.04869 7.17511 4.11189 7.06155 4.21053C6.94619 4.30891 6.86026 4.43989 6.81399 4.58789C6.76581 4.73712 6.75964 4.89769 6.7962 5.05049C6.83205 5.20102 6.90746 5.33804 7.01389 5.44606L8.1009 6.55139L7.84409 8.11631C7.82617 8.23024 7.83114 8.34684 7.85869 8.45865C7.88625 8.57046 7.93577 8.67503 8.00412 8.7657C8.07246 8.85636 8.15812 8.93112 8.25563 8.9852C8.35313 9.03929 8.46034 9.07151 8.57042 9.07982C8.71804 9.08977 8.86549 9.05788 8.99724 8.98752L10.3425 8.24953L11.6863 8.98641C11.8011 9.04994 11.9291 9.08304 12.0591 9.08279Z" fill="#004E3E"/>
</svg>
