<svg xmlns="http://www.w3.org/2000/svg" width="16.012" height="16.013" viewBox="0 0 16.012 16.013">
  <g id="overview-check" transform="translate(-2.55 -2.551)">
    <path id="Path_3886" data-name="Path 3886" d="M10.237,12.852a.627.627,0,0,1-.444-.184L7.1,9.976a.628.628,0,0,1,.888-.888l2.248,2.248L16.97,4.6a.628.628,0,0,1,.888.888l-7.178,7.178a.627.627,0,0,1-.444.184Z" transform="translate(0.32 0.128)" fill="#ff6812" stroke="#ff6812" stroke-width="0.4"/>
    <path id="Path_3887" data-name="Path 3887" d="M15.94,18.363H5.173A2.423,2.423,0,0,1,2.75,15.94V5.173A2.423,2.423,0,0,1,5.173,2.751h8.075a.628.628,0,1,1,0,1.257H5.173A1.167,1.167,0,0,0,4.007,5.173V15.94a1.167,1.167,0,0,0,1.166,1.166H15.94a1.166,1.166,0,0,0,1.166-1.166V10.557a.628.628,0,1,1,1.257,0V15.94a2.423,2.423,0,0,1-2.423,2.423Z" transform="translate(0 0)" fill="#ff6812" stroke="#ff6812" stroke-width="0.4"/>
  </g>
</svg>
