<svg width="20" height="20" viewBox="0 0 20 20" fill="none" xmlns="http://www.w3.org/2000/svg">
<path d="M10.0005 5.58436C9.92387 5.58436 9.84799 5.56927 9.7772 5.53994C9.7064 5.51062 9.64208 5.46764 9.58789 5.41346C9.53371 5.35927 9.49073 5.29495 9.46141 5.22416C9.43208 5.15336 9.41699 5.07748 9.41699 5.00086V2.50086C9.41699 2.3461 9.47847 2.19769 9.5879 2.08826C9.69732 1.97883 9.84574 1.91736 10.0005 1.91736C10.1552 1.91736 10.3037 1.97883 10.4131 2.08826C10.5225 2.19769 10.584 2.3461 10.584 2.50086V5.00086C10.584 5.07748 10.5689 5.15336 10.5396 5.22416C10.5103 5.29495 10.4673 5.35927 10.4131 5.41346C10.3589 5.46764 10.2946 5.51062 10.2238 5.53994C10.153 5.56927 10.0771 5.58436 10.0005 5.58436Z" fill="#009D7B"/>
<path d="M13.5422 7.04283C13.4268 7.04284 13.3139 7.00861 13.218 6.9445C13.122 6.88038 13.0472 6.78925 13.0031 6.68263C12.9589 6.57601 12.9474 6.45869 12.9699 6.3455C12.9924 6.23231 13.048 6.12834 13.1296 6.04673L14.9216 4.25474C15.0311 4.14597 15.1793 4.08505 15.3337 4.08533C15.4881 4.08561 15.6361 4.14706 15.7453 4.25623C15.8544 4.3654 15.9159 4.51339 15.9162 4.66778C15.9164 4.82217 15.8555 4.97038 15.7468 5.07994L13.9548 6.87193C13.9006 6.92617 13.8363 6.96918 13.7655 6.99851C13.6947 7.02783 13.6188 7.0429 13.5422 7.04283Z" fill="#009D7B"/>
<path d="M17.5005 10.5844H15.0005C14.8457 10.5844 14.6973 10.5229 14.5879 10.4135C14.4785 10.304 14.417 10.1556 14.417 10.0009C14.417 9.8461 14.4785 9.69769 14.5879 9.58826C14.6973 9.47883 14.8457 9.41736 15.0005 9.41736H17.5005C17.6553 9.41736 17.8037 9.47883 17.9131 9.58826C18.0225 9.69769 18.084 9.8461 18.084 10.0009C18.084 10.1556 18.0225 10.304 17.9131 10.4135C17.8037 10.5229 17.6553 10.5844 17.5005 10.5844Z" fill="#009D7B"/>
<path d="M15.3342 15.9182C15.2575 15.9182 15.1816 15.9032 15.1108 15.8738C15.04 15.8445 14.9757 15.8015 14.9216 15.7473L13.1296 13.9553C13.0208 13.8457 12.9599 13.6975 12.9601 13.5431C12.9604 13.3887 13.0219 13.2407 13.1311 13.1316C13.2402 13.0224 13.3882 12.9609 13.5426 12.9607C13.697 12.9604 13.8452 13.0213 13.9548 13.1301L15.7468 14.9221C15.8284 15.0037 15.8839 15.1076 15.9064 15.2208C15.929 15.334 15.9174 15.4513 15.8732 15.558C15.8291 15.6646 15.7543 15.7557 15.6583 15.8198C15.5624 15.8839 15.4496 15.9182 15.3342 15.9182Z" fill="#009D7B"/>
<path d="M10.0005 18.0844C9.92387 18.0844 9.84799 18.0693 9.7772 18.0399C9.7064 18.0106 9.64208 17.9676 9.58789 17.9135C9.53371 17.8593 9.49073 17.7949 9.46141 17.7242C9.43208 17.6534 9.41699 17.5775 9.41699 17.5009V15.0009C9.41699 14.8461 9.47847 14.6977 9.5879 14.5883C9.69732 14.4788 9.84574 14.4174 10.0005 14.4174C10.1552 14.4174 10.3037 14.4788 10.4131 14.5883C10.5225 14.6977 10.584 14.8461 10.584 15.0009V17.5009C10.584 17.5775 10.5689 17.6534 10.5396 17.7242C10.5103 17.7949 10.4673 17.8593 10.4131 17.9135C10.3589 17.9676 10.2946 18.0106 10.2238 18.0399C10.153 18.0693 10.0771 18.0844 10.0005 18.0844Z" fill="#009D7B"/>
<path d="M4.66683 15.9179C4.55143 15.9179 4.43861 15.8837 4.34265 15.8196C4.2467 15.7554 4.17191 15.6643 4.12774 15.5577C4.08358 15.4511 4.07202 15.3337 4.09454 15.2206C4.11705 15.1074 4.17263 15.0034 4.25423 14.9218L6.04582 13.1298C6.09993 13.0753 6.16427 13.032 6.23515 13.0024C6.30603 12.9728 6.38205 12.9575 6.45885 12.9574C6.53566 12.9573 6.61174 12.9723 6.68272 13.0016C6.75371 13.0309 6.8182 13.074 6.87251 13.1283C6.92682 13.1826 6.96987 13.2471 6.9992 13.3181C7.02853 13.3891 7.04356 13.4652 7.04342 13.542C7.04328 13.6188 7.02798 13.6948 6.99839 13.7657C6.96881 13.8365 6.92552 13.9009 6.87102 13.955L5.07943 15.747C5.02531 15.8013 4.961 15.8443 4.89019 15.8736C4.81938 15.9029 4.74347 15.918 4.66683 15.9179Z" fill="#009D7B"/>
<path d="M5.00049 10.5844H2.50049C2.34574 10.5844 2.19732 10.5229 2.0879 10.4135C1.97847 10.304 1.91699 10.1556 1.91699 10.0009C1.91699 9.8461 1.97847 9.69769 2.0879 9.58826C2.19732 9.47883 2.34574 9.41736 2.50049 9.41736H5.00049C5.15525 9.41736 5.30366 9.47883 5.41309 9.58826C5.52252 9.69769 5.58399 9.8461 5.58399 10.0009C5.58399 10.1556 5.52252 10.304 5.41309 10.4135C5.30366 10.5229 5.15525 10.5844 5.00049 10.5844Z" fill="#009D7B"/>
<path d="M6.45842 7.04283C6.38178 7.04294 6.30587 7.02789 6.23506 6.99856C6.16426 6.96923 6.09994 6.9262 6.04582 6.87193L4.25424 5.07994C4.14546 4.97038 4.08454 4.82217 4.08482 4.66778C4.0851 4.51339 4.14656 4.3654 4.25573 4.25623C4.3649 4.14706 4.51288 4.08561 4.66727 4.08533C4.82166 4.08505 4.96987 4.14597 5.07944 4.25474L6.87102 6.04673C6.95263 6.12834 7.0082 6.23231 7.03071 6.3455C7.05323 6.45869 7.04167 6.57601 6.99751 6.68263C6.95335 6.78925 6.87856 6.88038 6.7826 6.9445C6.68664 7.00861 6.57383 7.04284 6.45842 7.04283Z" fill="#009D7B"/>
</svg>
