<svg width="200" height="32" viewBox="0 0 200 32" fill="none" xmlns="http://www.w3.org/2000/svg">
<path d="M13.8286 14.4551C13.7894 14.3784 13.7299 14.3141 13.6565 14.2691C13.5831 14.2241 13.4987 14.2003 13.4126 14.2002H9.87939V10.0004C9.87934 9.90186 9.84812 9.80589 9.79021 9.7262C9.73229 9.64652 9.65065 9.5872 9.55696 9.55674C9.46328 9.52628 9.36236 9.52625 9.26866 9.55665C9.17496 9.58704 9.09327 9.64631 9.03531 9.72595L3.70197 17.0593C3.65126 17.1289 3.6208 17.2112 3.61396 17.297C3.60712 17.3828 3.62418 17.4689 3.66324 17.5456C3.70231 17.6224 3.76185 17.6868 3.83527 17.7318C3.9087 17.7768 3.99314 17.8006 4.07925 17.8005H7.61245V22.0004C7.61247 22.0989 7.6437 22.1949 7.70165 22.2746C7.7596 22.3543 7.84131 22.4136 7.93505 22.4441C7.98158 22.4594 8.03026 22.4672 8.07925 22.4672C8.15286 22.4671 8.22541 22.4497 8.29098 22.4162C8.35655 22.3828 8.41328 22.3343 8.45653 22.2748L13.7899 14.9414C13.8406 14.8718 13.871 14.7896 13.8778 14.7037C13.8847 14.6179 13.8676 14.5319 13.8286 14.4551Z" fill="#FF6812"/>
<path d="M23.1677 15.0254V23.8438H21.8962V13.6035H23.0583L23.1677 15.0254ZM28.1511 17.2402V17.3838C28.1511 17.9215 28.0873 18.4206 27.9597 18.8809C27.8321 19.3366 27.6452 19.7331 27.3991 20.0703C27.1576 20.4076 26.8591 20.6696 26.5036 20.8564C26.1481 21.0433 25.7403 21.1367 25.28 21.1367C24.8106 21.1367 24.3959 21.0592 24.0358 20.9043C23.6758 20.7493 23.3705 20.5238 23.1198 20.2275C22.8692 19.9313 22.6686 19.5758 22.5182 19.1611C22.3724 18.7464 22.2722 18.2793 22.2175 17.7598V16.9941C22.2722 16.4473 22.3747 15.9574 22.5251 15.5244C22.6755 15.0915 22.8737 14.7223 23.1198 14.417C23.3705 14.1071 23.6735 13.8724 24.029 13.7129C24.3845 13.5488 24.7946 13.4668 25.2595 13.4668C25.7243 13.4668 26.1367 13.5579 26.4968 13.7402C26.8568 13.918 27.1599 14.1732 27.4059 14.5059C27.652 14.8385 27.8366 15.2373 27.9597 15.7021C28.0873 16.1624 28.1511 16.6751 28.1511 17.2402ZM26.8796 17.3838V17.2402C26.8796 16.8711 26.8408 16.5247 26.7634 16.2012C26.6859 15.873 26.5651 15.5859 26.4011 15.3398C26.2416 15.0892 26.0365 14.8932 25.7858 14.752C25.5352 14.6061 25.2367 14.5332 24.8903 14.5332C24.5713 14.5332 24.2933 14.5879 24.0563 14.6973C23.8239 14.8066 23.6257 14.9548 23.4616 15.1416C23.2975 15.3239 23.1631 15.5335 23.0583 15.7705C22.958 16.0029 22.8828 16.2445 22.8327 16.4951V18.2656C22.9238 18.5846 23.0515 18.8854 23.2155 19.168C23.3796 19.446 23.5983 19.6715 23.8718 19.8447C24.1452 20.0133 24.4893 20.0977 24.904 20.0977C25.2458 20.0977 25.5397 20.027 25.7858 19.8857C26.0365 19.7399 26.2416 19.5417 26.4011 19.291C26.5651 19.0404 26.6859 18.7533 26.7634 18.4297C26.8408 18.1016 26.8796 17.7529 26.8796 17.3838ZM29.4294 17.3838V17.2266C29.4294 16.6934 29.5069 16.1989 29.6618 15.7432C29.8168 15.2829 30.0401 14.8841 30.3317 14.5469C30.6234 14.2051 30.9766 13.9408 31.3913 13.7539C31.806 13.5625 32.2709 13.4668 32.7858 13.4668C33.3054 13.4668 33.7725 13.5625 34.1872 13.7539C34.6065 13.9408 34.9619 14.2051 35.2536 14.5469C35.5498 14.8841 35.7754 15.2829 35.9304 15.7432C36.0853 16.1989 36.1628 16.6934 36.1628 17.2266V17.3838C36.1628 17.917 36.0853 18.4115 35.9304 18.8672C35.7754 19.3229 35.5498 19.7217 35.2536 20.0635C34.9619 20.4007 34.6087 20.665 34.194 20.8564C33.7839 21.0433 33.319 21.1367 32.7995 21.1367C32.28 21.1367 31.8128 21.0433 31.3981 20.8564C30.9834 20.665 30.628 20.4007 30.3317 20.0635C30.0401 19.7217 29.8168 19.3229 29.6618 18.8672C29.5069 18.4115 29.4294 17.917 29.4294 17.3838ZM30.694 17.2266V17.3838C30.694 17.7529 30.7373 18.1016 30.8239 18.4297C30.9105 18.7533 31.0404 19.0404 31.2136 19.291C31.3913 19.5417 31.6123 19.7399 31.8766 19.8857C32.141 20.027 32.4486 20.0977 32.7995 20.0977C33.1459 20.0977 33.4489 20.027 33.7087 19.8857C33.973 19.7399 34.1918 19.5417 34.3649 19.291C34.5381 19.0404 34.668 18.7533 34.7546 18.4297C34.8457 18.1016 34.8913 17.7529 34.8913 17.3838V17.2266C34.8913 16.862 34.8457 16.5179 34.7546 16.1943C34.668 15.8662 34.5358 15.5768 34.3581 15.3262C34.1849 15.071 33.9662 14.8704 33.7018 14.7246C33.4421 14.5788 33.1367 14.5059 32.7858 14.5059C32.4395 14.5059 32.1341 14.5788 31.8698 14.7246C31.61 14.8704 31.3913 15.071 31.2136 15.3262C31.0404 15.5768 30.9105 15.8662 30.8239 16.1943C30.7373 16.5179 30.694 16.862 30.694 17.2266ZM39.6218 19.6875L41.5222 13.6035H42.3561L42.1921 14.8135L40.2575 21H39.444L39.6218 19.6875ZM38.3434 13.6035L39.9636 19.7559L40.0798 21H39.2253L37.0788 13.6035H38.3434ZM44.1745 19.708L45.7194 13.6035H46.9772L44.8307 21H43.9831L44.1745 19.708ZM42.5407 13.6035L44.4001 19.585L44.612 21H43.8054L41.8161 14.7998L41.652 13.6035H42.5407ZM51.3454 21.1367C50.8304 21.1367 50.3633 21.0501 49.944 20.877C49.5293 20.6992 49.1716 20.4508 48.8708 20.1318C48.5746 19.8128 48.3467 19.4346 48.1872 18.9971C48.0277 18.5596 47.9479 18.0811 47.9479 17.5615V17.2744C47.9479 16.6729 48.0368 16.1374 48.2145 15.668C48.3923 15.194 48.6338 14.793 48.9391 14.4648C49.2445 14.1367 49.5908 13.8883 49.9782 13.7197C50.3656 13.5511 50.7666 13.4668 51.1813 13.4668C51.71 13.4668 52.1657 13.5579 52.5485 13.7402C52.9359 13.9225 53.2526 14.1777 53.4987 14.5059C53.7448 14.8294 53.9271 15.2122 54.0456 15.6543C54.1641 16.0918 54.2233 16.5703 54.2233 17.0898V17.6572H48.6999V16.625H52.9587V16.5293C52.9405 16.2012 52.8721 15.8822 52.7536 15.5723C52.6397 15.2624 52.4574 15.0072 52.2067 14.8066C51.9561 14.6061 51.6143 14.5059 51.1813 14.5059C50.8942 14.5059 50.6299 14.5674 50.3884 14.6904C50.1468 14.8089 49.9395 14.9867 49.7663 15.2236C49.5931 15.4606 49.4587 15.75 49.363 16.0918C49.2673 16.4336 49.2194 16.8278 49.2194 17.2744V17.5615C49.2194 17.9124 49.2673 18.2428 49.363 18.5527C49.4632 18.8581 49.6068 19.127 49.7936 19.3594C49.985 19.5918 50.2152 19.7741 50.4841 19.9062C50.7575 20.0384 51.0674 20.1045 51.4138 20.1045C51.8604 20.1045 52.2386 20.0133 52.5485 19.8311C52.8584 19.6488 53.1296 19.4049 53.362 19.0996L54.1276 19.708C53.9681 19.9495 53.7653 20.1797 53.5192 20.3984C53.2731 20.6172 52.9701 20.7949 52.61 20.9316C52.2546 21.0684 51.833 21.1367 51.3454 21.1367ZM56.9645 14.7656V21H55.6999V13.6035H56.9304L56.9645 14.7656ZM59.2751 13.5625L59.2682 14.7383C59.1634 14.7155 59.0632 14.7018 58.9675 14.6973C58.8763 14.6882 58.7715 14.6836 58.653 14.6836C58.3613 14.6836 58.1039 14.7292 57.8806 14.8203C57.6572 14.9115 57.4681 15.0391 57.3132 15.2031C57.1582 15.3672 57.0352 15.5632 56.944 15.791C56.8574 16.0143 56.8005 16.2604 56.7731 16.5293L56.4177 16.7344C56.4177 16.2878 56.461 15.8685 56.5475 15.4766C56.6387 15.0846 56.7777 14.7383 56.9645 14.4375C57.1514 14.1322 57.3884 13.8952 57.6755 13.7266C57.9671 13.5534 58.3135 13.4668 58.7145 13.4668C58.8057 13.4668 58.9105 13.4782 59.029 13.501C59.1475 13.5192 59.2295 13.5397 59.2751 13.5625ZM63.3766 21.1367C62.8617 21.1367 62.3946 21.0501 61.9753 20.877C61.5606 20.6992 61.2028 20.4508 60.902 20.1318C60.6058 19.8128 60.378 19.4346 60.2184 18.9971C60.0589 18.5596 59.9792 18.0811 59.9792 17.5615V17.2744C59.9792 16.6729 60.0681 16.1374 60.2458 15.668C60.4235 15.194 60.6651 14.793 60.9704 14.4648C61.2757 14.1367 61.6221 13.8883 62.0095 13.7197C62.3968 13.5511 62.7979 13.4668 63.2126 13.4668C63.7412 13.4668 64.197 13.5579 64.5798 13.7402C64.9671 13.9225 65.2839 14.1777 65.53 14.5059C65.7761 14.8294 65.9584 15.2122 66.0768 15.6543C66.1953 16.0918 66.2546 16.5703 66.2546 17.0898V17.6572H60.7311V16.625H64.9899V16.5293C64.9717 16.2012 64.9033 15.8822 64.7849 15.5723C64.6709 15.2624 64.4886 15.0072 64.238 14.8066C63.9873 14.6061 63.6455 14.5059 63.2126 14.5059C62.9255 14.5059 62.6612 14.5674 62.4196 14.6904C62.1781 14.8089 61.9707 14.9867 61.7975 15.2236C61.6244 15.4606 61.4899 15.75 61.3942 16.0918C61.2985 16.4336 61.2507 16.8278 61.2507 17.2744V17.5615C61.2507 17.9124 61.2985 18.2428 61.3942 18.5527C61.4945 18.8581 61.638 19.127 61.8249 19.3594C62.0163 19.5918 62.2464 19.7741 62.5153 19.9062C62.7888 20.0384 63.0987 20.1045 63.445 20.1045C63.8916 20.1045 64.2699 20.0133 64.5798 19.8311C64.8897 19.6488 65.1608 19.4049 65.3932 19.0996L66.1589 19.708C65.9994 19.9495 65.7966 20.1797 65.5505 20.3984C65.3044 20.6172 65.0013 20.7949 64.6413 20.9316C64.2858 21.0684 63.8643 21.1367 63.3766 21.1367ZM72.3932 19.5645V10.5H73.6647V21H72.5026L72.3932 19.5645ZM67.4167 17.3838V17.2402C67.4167 16.6751 67.485 16.1624 67.6218 15.7021C67.763 15.2373 67.9613 14.8385 68.2165 14.5059C68.4763 14.1732 68.7839 13.918 69.1393 13.7402C69.4994 13.5579 69.9004 13.4668 70.3425 13.4668C70.8073 13.4668 71.2129 13.5488 71.5593 13.7129C71.9102 13.8724 72.2064 14.1071 72.4479 14.417C72.694 14.7223 72.8877 15.0915 73.029 15.5244C73.1703 15.9574 73.2682 16.4473 73.3229 16.9941V17.623C73.2728 18.1654 73.1748 18.653 73.029 19.0859C72.8877 19.5189 72.694 19.888 72.4479 20.1934C72.2064 20.4987 71.9102 20.7334 71.5593 20.8975C71.2084 21.057 70.7982 21.1367 70.3288 21.1367C69.8959 21.1367 69.4994 21.0433 69.1393 20.8564C68.7839 20.6696 68.4763 20.4076 68.2165 20.0703C67.9613 19.7331 67.763 19.3366 67.6218 18.8809C67.485 18.4206 67.4167 17.9215 67.4167 17.3838ZM68.6882 17.2402V17.3838C68.6882 17.7529 68.7246 18.0993 68.7975 18.4229C68.875 18.7464 68.9935 19.0312 69.153 19.2773C69.3125 19.5234 69.5153 19.7171 69.7614 19.8584C70.0075 19.9951 70.3015 20.0635 70.6432 20.0635C71.0625 20.0635 71.4066 19.9746 71.6755 19.7969C71.9489 19.6191 72.1677 19.3844 72.3317 19.0928C72.4958 18.8011 72.6234 18.4844 72.7145 18.1426V16.4951C72.6599 16.2445 72.5801 16.0029 72.4753 15.7705C72.375 15.5335 72.2429 15.3239 72.0788 15.1416C71.9193 14.9548 71.721 14.8066 71.4841 14.6973C71.2516 14.5879 70.9759 14.5332 70.6569 14.5332C70.3106 14.5332 70.0121 14.6061 69.7614 14.752C69.5153 14.8932 69.3125 15.0892 69.153 15.3398C68.9935 15.5859 68.875 15.873 68.7975 16.2012C68.7246 16.5247 68.6882 16.8711 68.6882 17.2402ZM79.0993 10.5H80.3708V19.5645L80.2614 21H79.0993V10.5ZM85.3679 17.2402V17.3838C85.3679 17.9215 85.3041 18.4206 85.1765 18.8809C85.0488 19.3366 84.862 19.7331 84.6159 20.0703C84.3698 20.4076 84.069 20.6696 83.7136 20.8564C83.3581 21.0433 82.9502 21.1367 82.4899 21.1367C82.0205 21.1367 81.6081 21.057 81.2526 20.8975C80.9017 20.7334 80.6055 20.4987 80.364 20.1934C80.1224 19.888 79.9287 19.5189 79.7829 19.0859C79.6416 18.653 79.5436 18.1654 79.489 17.623V16.9941C79.5436 16.4473 79.6416 15.9574 79.7829 15.5244C79.9287 15.0915 80.1224 14.7223 80.364 14.417C80.6055 14.1071 80.9017 13.8724 81.2526 13.7129C81.6035 13.5488 82.0114 13.4668 82.4763 13.4668C82.9411 13.4668 83.3535 13.5579 83.7136 13.7402C84.0736 13.918 84.3744 14.1732 84.6159 14.5059C84.862 14.8385 85.0488 15.2373 85.1765 15.7021C85.3041 16.1624 85.3679 16.6751 85.3679 17.2402ZM84.0964 17.3838V17.2402C84.0964 16.8711 84.0622 16.5247 83.9938 16.2012C83.9255 15.873 83.8161 15.5859 83.6657 15.3398C83.5153 15.0892 83.3171 14.8932 83.071 14.752C82.8249 14.6061 82.5218 14.5332 82.1618 14.5332C81.8428 14.5332 81.5648 14.5879 81.3278 14.6973C81.0954 14.8066 80.8972 14.9548 80.7331 15.1416C80.569 15.3239 80.4346 15.5335 80.3298 15.7705C80.2295 16.0029 80.1543 16.2445 80.1042 16.4951V18.1426C80.1771 18.4616 80.2956 18.7692 80.4597 19.0654C80.6283 19.3571 80.8516 19.5964 81.1296 19.7832C81.4121 19.9701 81.7608 20.0635 82.1755 20.0635C82.5173 20.0635 82.8089 19.9951 83.0505 19.8584C83.2966 19.7171 83.4948 19.5234 83.6452 19.2773C83.8002 19.0312 83.9141 18.7464 83.987 18.4229C84.0599 18.0993 84.0964 17.7529 84.0964 17.3838ZM88.9636 20.2344L91.0212 13.6035H92.3747L89.4079 22.1416C89.3395 22.3239 89.2484 22.5199 89.1345 22.7295C89.0251 22.9437 88.8838 23.1465 88.7106 23.3379C88.5375 23.5293 88.3278 23.6842 88.0817 23.8027C87.8402 23.9258 87.5508 23.9873 87.2136 23.9873C87.1133 23.9873 86.9857 23.9736 86.8307 23.9463C86.6758 23.9189 86.5664 23.8962 86.5026 23.8779L86.4958 22.8525C86.5322 22.8571 86.5892 22.8617 86.6667 22.8662C86.7487 22.8753 86.8057 22.8799 86.8376 22.8799C87.1247 22.8799 87.3685 22.8411 87.569 22.7637C87.7696 22.6908 87.9382 22.5654 88.0749 22.3877C88.2162 22.2145 88.3369 21.9753 88.4372 21.6699L88.9636 20.2344ZM87.4528 13.6035L89.3737 19.3457L89.7018 20.6787L88.7927 21.1436L86.072 13.6035H87.4528Z" fill="#363E45"/>
<g clip-path="url(#clip0_2301_2273)">
<path d="M154.554 22.6441C153.489 22.6603 152.428 22.5065 151.412 22.1885C150.567 21.9257 149.775 21.5163 149.072 20.979C148.466 20.515 147.962 19.9305 147.594 19.2624C147.258 18.6498 147.072 17.9662 147.051 17.2678C147.047 17.1848 147.061 17.1019 147.094 17.0255C147.127 16.9491 147.177 16.8812 147.24 16.8271C147.373 16.7202 147.54 16.6649 147.71 16.6712H148.151C148.321 16.6722 148.488 16.715 148.638 16.7959C148.794 16.88 148.914 17.0789 148.998 17.3926C149.229 18.2965 149.642 18.993 150.239 19.482C150.832 19.9723 151.531 20.3164 152.281 20.4868C153.027 20.6646 153.792 20.7556 154.559 20.758C156.171 20.758 157.495 20.3706 158.532 19.5959C159.569 18.8213 160.087 17.6592 160.087 16.1098C160.087 14.5605 159.621 13.4504 158.689 12.7797C157.757 12.1089 156.485 11.774 154.872 11.7749H152.102C152.01 11.7812 151.917 11.7675 151.83 11.735C151.744 11.7024 151.665 11.6516 151.6 11.5861C151.534 11.5206 151.484 11.4418 151.451 11.3551C151.419 11.2684 151.406 11.1757 151.412 11.0834V10.6115C151.407 10.4665 151.434 10.3222 151.491 10.1885C151.544 10.0701 151.613 9.95892 151.694 9.85764L158.17 2.22103H148.678C148.586 2.22726 148.493 2.21362 148.407 2.18105C148.32 2.14848 148.241 2.09774 148.176 2.03222C148.111 1.9667 148.06 1.88793 148.028 1.80121C147.995 1.7145 147.982 1.62185 147.988 1.5295V1.059C147.982 0.961837 147.995 0.864417 148.028 0.772603C148.06 0.680788 148.111 0.596479 148.177 0.524759C148.243 0.460898 148.322 0.411251 148.408 0.378845C148.494 0.34644 148.586 0.331959 148.678 0.336286H160.395C160.492 0.325798 160.591 0.337279 160.683 0.369891C160.776 0.402502 160.86 0.455416 160.929 0.524738C160.999 0.59406 161.051 0.678031 161.084 0.770484C161.117 0.862937 161.128 0.961522 161.118 1.059V1.5295C161.12 1.64473 161.093 1.75872 161.039 1.86035C160.988 1.95455 160.93 2.04515 160.867 2.13154L154.238 9.88612H154.865C156.312 9.88612 157.574 10.1121 158.651 10.5641C159.681 10.9745 160.558 11.6929 161.164 12.621C161.76 13.5431 162.059 14.7055 162.059 16.1085C162.059 17.4906 161.734 18.6685 161.085 19.642C160.425 20.6243 159.499 21.398 158.415 21.8726C157.285 22.3869 155.998 22.6441 154.554 22.6441Z" fill="#35BA96"/>
<path d="M173.022 22.6442C171.346 22.6442 169.945 22.288 168.818 21.5757C167.727 20.9078 166.841 19.9515 166.258 18.8123C165.688 17.705 165.392 16.4769 165.395 15.2313C165.392 14.6439 165.46 14.0584 165.598 13.4875C165.725 12.9556 165.896 12.4354 166.111 11.9323C166.303 11.4871 166.518 11.0522 166.755 10.6292C166.939 10.2973 167.144 9.97715 167.368 9.6706L173.556 0.969579C173.66 0.865172 173.78 0.735005 173.917 0.577716C173.995 0.495417 174.091 0.431551 174.197 0.390746C174.303 0.349941 174.416 0.333215 174.53 0.341781H175.126C175.213 0.33874 175.299 0.355623 175.378 0.391123C175.457 0.426622 175.527 0.47979 175.582 0.546529C175.697 0.682241 175.758 0.85544 175.754 1.03331C175.755 1.11427 175.739 1.19455 175.708 1.26924C175.682 1.33259 175.644 1.39087 175.598 1.44144L170.886 8.09501C171.226 8.00315 171.572 7.9401 171.922 7.90653C172.287 7.86653 172.654 7.84571 173.022 7.84416C174.277 7.84416 175.382 8.04845 176.336 8.45704C177.239 8.83115 178.053 9.39318 178.723 10.1059C179.359 10.7907 179.85 11.5963 180.168 12.4747C180.49 13.3551 180.655 14.2855 180.654 15.2231C180.657 16.4687 180.361 17.6968 179.791 18.8042C179.208 19.9431 178.322 20.8993 177.231 21.5675C176.1 22.2853 174.697 22.6442 173.022 22.6442ZM173.022 20.7594C173.979 20.7656 174.925 20.5508 175.786 20.1316C176.643 19.7146 177.366 19.0671 177.875 18.2618C178.409 17.4356 178.676 16.4254 178.676 15.2313C178.676 14.0372 178.409 13.032 177.875 12.2157C177.362 11.418 176.639 10.7767 175.786 10.3621C174.923 9.94883 173.979 9.73429 173.022 9.73429C172.065 9.73429 171.12 9.94883 170.257 10.3621C169.404 10.7767 168.682 11.418 168.169 12.2157C167.635 13.0292 167.368 14.0344 167.368 15.2313C167.368 16.4281 167.635 17.4383 168.169 18.2618C168.677 19.0671 169.401 19.7146 170.257 20.1316C171.118 20.5491 172.065 20.762 173.022 20.754V20.7594Z" fill="#35BA96"/>
<path d="M191.618 22.6441C190.194 22.6441 189.006 22.4136 188.053 21.9526C187.139 21.5257 186.35 20.8723 185.759 20.0543C185.17 19.2166 184.749 18.2726 184.518 17.2746C184.262 16.1892 184.115 15.0808 184.079 13.9661C184.079 13.4012 184.074 12.8254 184.063 12.2387C184.052 11.652 184.052 11.0604 184.063 10.4638C184.074 9.86716 184.079 9.27552 184.079 8.68886C184.095 7.57709 184.237 6.47073 184.504 5.39123C184.743 4.39374 185.169 3.45058 185.759 2.61157C186.35 1.79403 187.14 1.14068 188.053 0.713265C189.005 0.254056 190.193 0.023547 191.618 0.0217391C193.043 0.0199312 194.231 0.25044 195.183 0.713265C196.096 1.14037 196.886 1.7938 197.476 2.61157C198.067 3.45019 198.493 4.39345 198.733 5.39123C198.998 6.47086 199.141 7.57713 199.157 8.68886C199.177 9.27643 199.187 9.86807 199.188 10.4638V12.2387C199.188 12.8263 199.178 13.4021 199.157 13.9661C199.141 15.0783 198.998 16.1851 198.733 17.2651C198.493 18.2629 198.067 19.2062 197.476 20.0448C196.886 20.863 196.097 21.5166 195.183 21.9431C194.23 22.4104 193.042 22.6441 191.618 22.6441ZM191.618 20.7594C193.481 20.7594 194.863 20.1415 195.765 18.9058C196.666 17.6701 197.137 15.9738 197.177 13.817C197.199 13.2104 197.21 12.64 197.21 12.1058V10.4977C197.21 9.96434 197.199 9.41473 197.177 8.84886C197.136 6.7336 196.665 5.04773 195.765 3.79123C194.864 2.53473 193.482 1.90648 191.618 1.90648C189.776 1.90648 188.399 2.53473 187.488 3.79123C186.577 5.04773 186.1 6.7336 186.059 8.84886C186.059 9.41383 186.053 9.96344 186.042 10.4977C186.032 11.0319 186.032 11.5661 186.042 12.1004C186.053 12.6346 186.059 13.205 186.059 13.8116C186.099 15.9684 186.576 17.6647 187.488 18.9004C188.4 20.1361 189.777 20.7539 191.618 20.7539V20.7594Z" fill="#35BA96"/>
<path d="M106.893 8.69144H102.466V1.12127C102.469 1.01565 102.45 0.910573 102.409 0.813058C102.369 0.715544 102.308 0.627849 102.23 0.555846C102.073 0.409257 101.864 0.330384 101.649 0.336185H97.597C97.4927 0.331567 97.3886 0.348712 97.2912 0.386532C97.1939 0.424352 97.1055 0.482019 97.0316 0.555862C96.9578 0.629706 96.9001 0.718109 96.8623 0.81545C96.8245 0.912791 96.8073 1.01694 96.812 1.12127V21.5403C96.8075 21.6445 96.8248 21.7486 96.8627 21.8458C96.9006 21.9431 96.9583 22.0314 97.0321 22.1052C97.1059 22.179 97.1942 22.2367 97.2915 22.2746C97.3887 22.3125 97.4928 22.3298 97.597 22.3253H101.649C101.756 22.3275 101.864 22.3077 101.964 22.2671C102.064 22.2266 102.154 22.1661 102.23 22.0894C102.304 22.0196 102.363 21.9356 102.404 21.8424C102.444 21.7492 102.466 21.6487 102.466 21.547V13.7179H106.893V21.5403C106.893 21.7427 106.972 21.9371 107.113 22.0826C107.185 22.1599 107.273 22.2209 107.37 22.2616C107.468 22.3023 107.573 22.3217 107.678 22.3186H111.731C111.837 22.3214 111.942 22.3019 112.039 22.2612C112.137 22.2206 112.224 22.1597 112.297 22.0826C112.437 21.9368 112.516 21.7426 112.516 21.5403V14.3457C112.516 12.8515 111.925 11.418 110.871 10.3585C109.818 9.29903 108.387 8.69968 106.893 8.69144Z" fill="#F26922"/>
<path d="M109.676 6.01754C111.245 6.01754 112.517 4.74572 112.517 3.17686C112.517 1.60799 111.245 0.336182 109.676 0.336182C108.107 0.336182 106.836 1.60799 106.836 3.17686C106.836 4.74572 108.107 6.01754 109.676 6.01754Z" fill="#35BA96"/>
<path d="M148.404 26.0461H96.8122V27.5214H148.404V26.0461Z" fill="#35BA96"/>
<path d="M116.271 22.324C116.167 22.3275 116.063 22.3086 115.966 22.2686C115.87 22.2286 115.783 22.1685 115.712 22.0922C115.571 21.9468 115.493 21.7521 115.494 21.5498V6.93963C115.493 6.73728 115.571 6.54265 115.712 6.39725C115.783 6.3208 115.87 6.26043 115.966 6.22021C116.063 6.17998 116.166 6.16083 116.271 6.16403H119.845C119.952 6.16173 120.058 6.18123 120.157 6.22133C120.255 6.26143 120.345 6.3213 120.42 6.39725C120.494 6.46703 120.552 6.55112 120.593 6.64438C120.633 6.73764 120.653 6.83811 120.653 6.93963V8.18302C121.19 7.5432 121.865 7.03328 122.627 6.69149C123.455 6.3285 124.351 6.14813 125.254 6.16268H126.621C126.724 6.15827 126.827 6.17534 126.923 6.21282C127.019 6.25031 127.107 6.30738 127.18 6.38043C127.253 6.45347 127.31 6.5409 127.347 6.63716C127.385 6.73342 127.402 6.83642 127.398 6.93963V10.141C127.399 10.3432 127.321 10.5378 127.181 10.6834C127.109 10.7601 127.023 10.8206 126.926 10.8608C126.829 10.901 126.725 10.9201 126.621 10.9166H123.61C122.761 10.9166 122.103 11.1498 121.636 11.6162C121.17 12.0827 120.937 12.7408 120.938 13.5905V21.5457C120.938 21.6472 120.917 21.7476 120.877 21.8408C120.837 21.934 120.778 22.0181 120.705 22.0881C120.63 22.1638 120.54 22.2234 120.441 22.2633C120.342 22.3032 120.236 22.3224 120.13 22.32L116.271 22.324Z" fill="#F26922"/>
<path d="M136.944 22.6359C134.503 22.6359 132.556 21.9728 131.101 20.6467C129.647 19.3206 128.891 17.3522 128.833 14.7416V13.6569C128.893 12.0216 129.261 10.6182 129.935 9.44671C130.584 8.29922 131.557 7.36897 132.732 6.77281C133.925 6.16264 135.318 5.85711 136.913 5.8562C138.736 5.8562 140.243 6.21778 141.435 6.94095C142.603 7.64056 143.538 8.6693 144.124 9.89823C144.725 11.1421 145.025 12.5613 145.025 14.1559V14.9016C145.03 15.0048 145.013 15.1078 144.975 15.2041C144.938 15.3004 144.881 15.3878 144.807 15.4608C144.734 15.5339 144.647 15.5909 144.551 15.6284C144.455 15.6659 144.352 15.683 144.248 15.6786H134.305V15.8969C134.318 16.4607 134.428 17.018 134.631 17.5443C134.805 18.0114 135.107 18.4204 135.501 18.7254C135.911 19.0238 136.409 19.1769 136.915 19.1606C137.273 19.1722 137.629 19.1027 137.957 18.9572C138.212 18.839 138.448 18.6822 138.656 18.4921C138.81 18.3498 138.955 18.199 139.092 18.0406C139.212 17.8718 139.365 17.7292 139.542 17.6216C139.716 17.5607 139.9 17.5344 140.084 17.5443H143.932C144.121 17.5372 144.306 17.6038 144.446 17.7301C144.513 17.793 144.563 17.8711 144.593 17.9578C144.623 18.0445 144.631 18.1371 144.617 18.2277C144.595 18.5803 144.419 19.0051 144.088 19.5023C143.689 20.0688 143.201 20.567 142.643 20.9776C141.926 21.5069 141.124 21.9099 140.271 22.1694C139.193 22.4983 138.071 22.6557 136.944 22.6359ZM134.305 12.5965H139.558V12.5342C139.574 11.9331 139.473 11.3346 139.263 10.7715C139.085 10.31 138.771 9.91426 138.361 9.63789C137.931 9.35979 137.427 9.218 136.915 9.23111C136.419 9.2194 135.93 9.36147 135.517 9.63789C135.113 9.91969 134.799 10.3137 134.616 10.7715C134.395 11.3321 134.289 11.9317 134.305 12.5342V12.5965Z" fill="#F26922"/>
<path d="M150.86 30.5993C150.818 30.6001 150.777 30.5846 150.746 30.5559C150.731 30.5408 150.719 30.5226 150.711 30.5025C150.703 30.4824 150.699 30.4609 150.7 30.4393V26.1234C150.699 26.1014 150.703 26.0796 150.711 26.0591C150.719 26.0386 150.731 26.0199 150.746 26.004C150.761 25.989 150.779 25.9771 150.798 25.9692C150.818 25.9613 150.839 25.9574 150.86 25.9579H151.463C151.485 25.9569 151.506 25.9605 151.526 25.9684C151.546 25.9764 151.564 25.9885 151.579 26.004C151.608 26.0367 151.624 26.0795 151.622 26.1234V27.8346H153.577V26.1234C153.577 26.1013 153.58 26.0793 153.589 26.0588C153.597 26.0382 153.609 26.0196 153.625 26.004C153.639 25.9889 153.657 25.9769 153.676 25.969C153.696 25.9611 153.716 25.9573 153.737 25.9579H154.334C154.356 25.957 154.378 25.9606 154.398 25.9686C154.419 25.9765 154.437 25.9887 154.453 26.0043C154.469 26.0198 154.481 26.0384 154.489 26.0589C154.497 26.0794 154.5 26.1014 154.499 26.1234V30.4393C154.5 30.4604 154.496 30.4814 154.488 30.501C154.48 30.5206 154.468 30.5384 154.453 30.5532C154.437 30.5684 154.419 30.5803 154.398 30.5882C154.378 30.5962 154.356 30.5999 154.334 30.5993H153.737C153.695 30.5993 153.654 30.5824 153.624 30.5524C153.594 30.5224 153.577 30.4817 153.577 30.4393V28.663H151.622V30.4393C151.623 30.4814 151.607 30.5223 151.579 30.5532C151.564 30.5684 151.546 30.5804 151.526 30.5883C151.506 30.5963 151.485 30.6 151.463 30.5993H150.86Z" fill="#394455"/>
<path d="M155.719 26.5763C155.698 26.5766 155.677 26.5725 155.658 26.5643C155.638 26.5562 155.621 26.5441 155.606 26.5289C155.591 26.5144 155.579 26.4969 155.571 26.4775C155.563 26.4581 155.56 26.4373 155.56 26.4164V25.9391C155.56 25.9181 155.564 25.8974 155.572 25.878C155.58 25.8587 155.591 25.8411 155.606 25.8265C155.621 25.8115 155.639 25.7996 155.658 25.7917C155.677 25.7838 155.698 25.7799 155.719 25.7804H156.322C156.344 25.7795 156.366 25.7831 156.387 25.791C156.407 25.799 156.426 25.811 156.442 25.8265C156.457 25.8411 156.468 25.8587 156.476 25.878C156.484 25.8974 156.488 25.9181 156.488 25.9391V26.4164C156.488 26.4373 156.485 26.4581 156.477 26.4775C156.469 26.4969 156.457 26.5144 156.442 26.5289C156.426 26.5446 156.407 26.5568 156.387 26.565C156.366 26.5732 156.344 26.577 156.322 26.5763H155.719ZM155.745 30.594C155.724 30.5941 155.703 30.5901 155.684 30.5821C155.665 30.5742 155.647 30.5626 155.632 30.5479C155.617 30.533 155.605 30.5153 155.597 30.4957C155.589 30.4761 155.586 30.4551 155.586 30.434V27.3113C155.586 27.2901 155.589 27.2691 155.597 27.2495C155.605 27.23 155.617 27.2122 155.632 27.1974C155.647 27.1827 155.665 27.171 155.684 27.1631C155.703 27.1552 155.724 27.1512 155.745 27.1513H156.295C156.317 27.1504 156.338 27.154 156.358 27.162C156.378 27.1699 156.397 27.182 156.412 27.1974C156.441 27.2283 156.456 27.2691 156.455 27.3113V30.4394C156.456 30.4816 156.441 30.5224 156.412 30.5533C156.397 30.5687 156.378 30.5808 156.358 30.5887C156.338 30.5966 156.317 30.6003 156.295 30.5994L155.745 30.594Z" fill="#394455"/>
<path d="M157.627 30.5992C157.606 30.5994 157.586 30.5954 157.566 30.5875C157.547 30.5796 157.529 30.5679 157.515 30.5532C157.5 30.5383 157.488 30.5206 157.48 30.501C157.472 30.4814 157.468 30.4604 157.469 30.4392V27.3206C157.468 27.2986 157.471 27.2767 157.479 27.2562C157.487 27.2357 157.499 27.217 157.515 27.2013C157.529 27.1865 157.547 27.1748 157.566 27.1669C157.586 27.159 157.606 27.155 157.627 27.1552H158.17C158.213 27.1552 158.255 27.1717 158.286 27.2013C158.302 27.2166 158.315 27.2351 158.324 27.2556C158.332 27.2762 158.337 27.2983 158.336 27.3206V27.5918C158.437 27.4509 158.572 27.3387 158.73 27.2664C158.906 27.1884 159.098 27.15 159.291 27.1538H159.562C159.584 27.1531 159.605 27.1568 159.625 27.1648C159.645 27.1727 159.663 27.1847 159.679 27.1999C159.707 27.231 159.722 27.2719 159.721 27.3138V27.7911C159.722 27.8326 159.707 27.8729 159.679 27.9037C159.664 27.9192 159.646 27.9314 159.625 27.9393C159.605 27.9473 159.584 27.9508 159.562 27.9498H159.045C158.955 27.9404 158.864 27.9513 158.778 27.9816C158.693 28.012 158.615 28.061 158.551 28.1252C158.487 28.1894 158.438 28.2671 158.408 28.3526C158.377 28.4381 158.366 28.5293 158.376 28.6196V30.442C158.376 30.463 158.372 30.484 158.364 30.5035C158.356 30.5231 158.344 30.5408 158.33 30.5559C158.297 30.5863 158.255 30.6029 158.21 30.602L157.627 30.5992Z" fill="#394455"/>
<path d="M160.499 26.5764C160.478 26.5765 160.457 26.5724 160.438 26.5642C160.419 26.5561 160.401 26.5441 160.387 26.5289C160.372 26.5145 160.36 26.497 160.352 26.4776C160.344 26.4582 160.34 26.4373 160.341 26.4164V25.9391C160.34 25.9182 160.344 25.8975 160.352 25.8782C160.36 25.8588 160.372 25.8413 160.387 25.8265C160.401 25.8117 160.419 25.8001 160.438 25.7922C160.458 25.7842 160.478 25.7803 160.499 25.7804H161.103C161.125 25.7794 161.147 25.783 161.167 25.7909C161.188 25.7989 161.206 25.811 161.222 25.8265C161.237 25.8411 161.249 25.8586 161.257 25.8779C161.265 25.8973 161.27 25.9181 161.269 25.9391V26.4164C161.27 26.4374 161.266 26.4583 161.258 26.4777C161.249 26.4971 161.237 26.5145 161.222 26.5289C161.206 26.5447 161.188 26.5571 161.167 26.5653C161.147 26.5734 161.125 26.5772 161.103 26.5764H160.499ZM160.526 30.594C160.505 30.5942 160.485 30.5902 160.465 30.5823C160.446 30.5744 160.429 30.5627 160.414 30.5479C160.399 30.5331 160.387 30.5153 160.379 30.4957C160.371 30.4761 160.367 30.4551 160.368 30.434V27.3113C160.367 27.2902 160.371 27.2692 160.379 27.2496C160.387 27.23 160.399 27.2122 160.414 27.1974C160.429 27.1826 160.446 27.1709 160.465 27.163C160.485 27.1551 160.505 27.1511 160.526 27.1513H161.077C161.098 27.1504 161.12 27.1541 161.139 27.162C161.159 27.17 161.177 27.182 161.192 27.1974C161.207 27.2125 161.218 27.2304 161.225 27.25C161.233 27.2695 161.236 27.2904 161.235 27.3113V30.4394C161.236 30.4603 161.233 30.4812 161.225 30.5007C161.218 30.5203 161.207 30.5382 161.192 30.5533C161.177 30.5687 161.159 30.5807 161.139 30.5887C161.12 30.5966 161.098 30.6003 161.077 30.5994L160.526 30.594Z" fill="#394455"/>
<path d="M162.41 30.5993C162.389 30.5996 162.368 30.5957 162.348 30.5878C162.328 30.5799 162.311 30.5682 162.296 30.5532C162.281 30.5383 162.269 30.5205 162.261 30.5009C162.253 30.4813 162.249 30.4604 162.25 30.4393V27.3111C162.249 27.29 162.253 27.269 162.261 27.2495C162.269 27.2299 162.281 27.2121 162.296 27.1972C162.311 27.1822 162.328 27.1705 162.348 27.1626C162.368 27.1546 162.389 27.1508 162.41 27.1511H162.952C162.973 27.151 162.994 27.1551 163.013 27.163C163.032 27.1709 163.05 27.1825 163.065 27.1972C163.08 27.2121 163.092 27.2298 163.099 27.2494C163.107 27.269 163.111 27.29 163.111 27.3111V27.5823C163.243 27.4183 163.413 27.2878 163.605 27.2014C163.798 27.1149 164.008 27.0749 164.219 27.0847C164.465 27.0788 164.708 27.1422 164.921 27.2677C165.121 27.3904 165.282 27.5691 165.382 27.7816C165.496 28.0311 165.551 28.3034 165.543 28.5776V30.4393C165.544 30.4604 165.54 30.4814 165.532 30.501C165.524 30.5206 165.512 30.5383 165.497 30.5532C165.482 30.5679 165.465 30.5796 165.446 30.5875C165.426 30.5954 165.406 30.5994 165.385 30.5993H164.802C164.781 30.5994 164.76 30.5954 164.741 30.5875C164.721 30.5796 164.704 30.5679 164.689 30.5532C164.674 30.5383 164.662 30.5206 164.654 30.501C164.646 30.4814 164.642 30.4604 164.643 30.4393V28.6169C164.656 28.3993 164.588 28.1846 164.453 28.0135C164.385 27.9387 164.301 27.8802 164.207 27.8421C164.113 27.8041 164.012 27.7876 163.911 27.7938C163.809 27.7891 163.707 27.8063 163.612 27.8441C163.517 27.882 163.431 27.9398 163.36 28.0135C163.215 28.1801 163.142 28.3966 163.154 28.6169V30.4393C163.155 30.4604 163.151 30.4814 163.143 30.501C163.135 30.5206 163.123 30.5383 163.108 30.5532C163.093 30.5679 163.076 30.5796 163.056 30.5875C163.037 30.5954 163.016 30.5994 162.995 30.5993H162.41Z" fill="#394455"/>
<path d="M168.077 32.0582C167.806 32.067 167.537 32.0242 167.282 31.9321C167.1 31.8644 166.933 31.7607 166.791 31.6271C166.684 31.5259 166.598 31.4054 166.536 31.2718C166.494 31.1863 166.466 31.0948 166.452 31.0006C166.45 30.9793 166.453 30.9578 166.46 30.9378C166.468 30.9177 166.48 30.8998 166.496 30.8854C166.511 30.8694 166.529 30.8567 166.549 30.8481C166.569 30.8395 166.59 30.8351 166.612 30.8352H167.189C167.226 30.8329 167.263 30.8434 167.294 30.865C167.327 30.8942 167.35 30.9325 167.361 30.9748C167.392 31.0393 167.428 31.1014 167.468 31.1606C167.519 31.2334 167.589 31.2914 167.67 31.3287C167.787 31.3815 167.916 31.4057 168.044 31.3993C168.191 31.4029 168.337 31.3766 168.474 31.322C168.588 31.2744 168.681 31.1872 168.736 31.0765C168.802 30.9266 168.833 30.7632 168.825 30.5993V30.1477C168.714 30.2804 168.575 30.3869 168.418 30.4596C168.226 30.5449 168.016 30.5857 167.805 30.5789C167.595 30.5838 167.387 30.5445 167.193 30.4637C167.024 30.391 166.875 30.2795 166.757 30.1382C166.639 29.992 166.55 29.8244 166.496 29.6447C166.434 29.4399 166.399 29.2279 166.393 29.0142C166.393 28.8948 166.393 28.7755 166.393 28.6562C166.4 28.4469 166.435 28.2395 166.496 28.0393C166.551 27.8578 166.64 27.6882 166.757 27.5389C166.874 27.3944 167.023 27.2796 167.193 27.204C167.386 27.1211 167.595 27.0804 167.805 27.0847C168.025 27.0753 168.244 27.1219 168.441 27.2203C168.606 27.3082 168.75 27.4292 168.866 27.5755V27.3043C168.865 27.2823 168.869 27.2603 168.877 27.2398C168.886 27.2193 168.898 27.2007 168.913 27.185C168.928 27.1701 168.945 27.1584 168.965 27.1504C168.984 27.1425 169.005 27.1386 169.026 27.1389H169.568C169.589 27.1388 169.61 27.1428 169.629 27.1508C169.648 27.1587 169.666 27.1703 169.681 27.185C169.696 27.2008 169.708 27.2195 169.716 27.24C169.724 27.2605 169.728 27.2824 169.727 27.3043L169.721 30.5084C169.729 30.7932 169.668 31.0756 169.542 31.3315C169.422 31.5616 169.232 31.748 169 31.8643C168.712 32.0023 168.396 32.0688 168.077 32.0582ZM168.044 29.8765C168.199 29.8836 168.352 29.8419 168.482 29.7572C168.591 29.6782 168.676 29.5701 168.727 29.4454C168.779 29.321 168.81 29.1891 168.82 29.0549C168.82 28.9965 168.826 28.9193 168.826 28.8352C168.826 28.7511 168.826 28.6765 168.82 28.6237C168.811 28.4879 168.78 28.3546 168.727 28.2291C168.675 28.1049 168.59 27.9972 168.482 27.9172C168.35 27.8366 168.199 27.7939 168.044 27.7939C167.89 27.7939 167.738 27.8366 167.606 27.9172C167.497 27.9977 167.415 28.1099 167.372 28.2386C167.323 28.3798 167.295 28.5273 167.289 28.6765C167.279 28.7844 167.279 28.8928 167.289 29.0006C167.295 29.1489 167.323 29.2955 167.372 29.4359C167.414 29.5649 167.496 29.6773 167.606 29.7572C167.736 29.8419 167.889 29.8836 168.044 29.8765Z" fill="#394455"/>
<path d="M173.388 30.6658C173.173 30.6686 172.96 30.6222 172.765 30.5302C172.59 30.4477 172.438 30.3222 172.323 30.1655C172.188 29.9697 172.135 29.7288 172.175 29.4944C172.216 29.2599 172.346 29.0506 172.539 28.9112C172.834 28.7118 173.173 28.5858 173.527 28.5438L174.436 28.4082V28.2726C174.447 28.1168 174.399 27.9626 174.3 27.8414C174.236 27.7842 174.16 27.7411 174.078 27.7147C173.995 27.6883 173.909 27.6793 173.823 27.6882C173.687 27.6823 173.552 27.7158 173.435 27.7844C173.338 27.8461 173.261 27.9347 173.213 28.0394C173.198 28.0665 173.176 28.0889 173.149 28.1043C173.122 28.1196 173.092 28.1271 173.061 28.1261H172.536C172.516 28.1274 172.496 28.1246 172.478 28.1178C172.459 28.1111 172.442 28.1005 172.428 28.0868C172.402 28.0571 172.389 28.0188 172.391 27.9797C172.402 27.8884 172.433 27.8005 172.481 27.7221C172.546 27.6088 172.631 27.5086 172.733 27.4265C172.864 27.321 173.014 27.2393 173.173 27.1851C173.385 27.1137 173.607 27.0798 173.83 27.0848C174.069 27.0793 174.308 27.1142 174.536 27.1878C174.708 27.2435 174.865 27.336 174.997 27.459C175.111 27.5736 175.197 27.7128 175.248 27.8658C175.302 28.0237 175.329 28.1897 175.328 28.3566V30.438C175.328 30.4591 175.325 30.4801 175.317 30.4997C175.309 30.5193 175.297 30.5371 175.282 30.5519C175.267 30.5666 175.25 30.5782 175.23 30.5862C175.211 30.5941 175.19 30.5981 175.169 30.598H174.627C174.605 30.5989 174.584 30.5952 174.564 30.5873C174.544 30.5794 174.526 30.5673 174.51 30.5519C174.482 30.521 174.466 30.4801 174.467 30.438V30.1804C174.402 30.2688 174.324 30.3469 174.235 30.4122C174.128 30.492 174.008 30.5534 173.881 30.5939C173.722 30.6445 173.555 30.6687 173.388 30.6658ZM173.614 30.0353C173.76 30.0375 173.905 30.0035 174.034 29.9363C174.163 29.8667 174.268 29.7586 174.333 29.6272C174.411 29.4633 174.449 29.2827 174.443 29.101V28.9655L173.78 29.0712C173.573 29.0928 173.374 29.1584 173.195 29.2638C173.138 29.2972 173.091 29.3447 173.057 29.4016C173.024 29.4586 173.005 29.5231 173.004 29.5892C173.002 29.6802 173.034 29.7687 173.093 29.8373C173.155 29.9071 173.233 29.9598 173.321 29.9905C173.416 30.0219 173.515 30.0371 173.614 30.0353Z" fill="#394455"/>
<path d="M177.831 30.5993C177.6 30.6082 177.371 30.5617 177.162 30.4637C176.985 30.3774 176.842 30.2342 176.755 30.0569C176.659 29.8407 176.613 29.6058 176.62 29.3694V27.8549H176.096C176.075 27.855 176.055 27.8509 176.035 27.8427C176.016 27.8346 175.998 27.8226 175.984 27.8074C175.968 27.7918 175.956 27.7732 175.948 27.7526C175.94 27.7321 175.937 27.7101 175.938 27.6881V27.3111C175.937 27.29 175.941 27.269 175.949 27.2494C175.957 27.2298 175.969 27.2121 175.984 27.1973C175.999 27.1825 176.016 27.1709 176.035 27.163C176.055 27.1551 176.075 27.1511 176.096 27.1511H176.62V26.0501C176.619 26.0084 176.635 25.9682 176.663 25.9376C176.678 25.9222 176.696 25.9101 176.717 25.9022C176.737 25.8942 176.758 25.8906 176.78 25.8915H177.322C177.343 25.8914 177.364 25.8954 177.383 25.9033C177.402 25.9112 177.42 25.9229 177.435 25.9376C177.45 25.9522 177.461 25.9697 177.469 25.9891C177.477 26.0084 177.481 26.0292 177.481 26.0501V27.1511H178.309C178.33 27.1508 178.351 27.1547 178.371 27.1626C178.39 27.1705 178.408 27.1823 178.423 27.1972C178.438 27.2121 178.45 27.2299 178.458 27.2495C178.466 27.2691 178.47 27.29 178.469 27.3111V27.6881C178.47 27.7101 178.466 27.7319 178.458 27.7524C178.45 27.7729 178.438 27.7916 178.423 27.8074C178.408 27.8227 178.391 27.8347 178.371 27.8429C178.351 27.8511 178.33 27.8551 178.309 27.8549H177.481V29.2881C177.473 29.4357 177.506 29.5826 177.577 29.7125C177.614 29.7652 177.665 29.807 177.724 29.8337C177.783 29.8604 177.848 29.871 177.912 29.8644H178.373C178.394 29.8639 178.415 29.8677 178.435 29.8756C178.454 29.8835 178.472 29.8954 178.487 29.9105C178.502 29.9253 178.513 29.9428 178.521 29.9621C178.529 29.9815 178.533 30.0021 178.533 30.023V30.4298C178.533 30.4509 178.529 30.4719 178.521 30.4915C178.514 30.511 178.502 30.5288 178.487 30.5437C178.472 30.5587 178.454 30.5704 178.435 30.5784C178.415 30.5863 178.394 30.5902 178.373 30.5898L177.831 30.5993Z" fill="#394455"/>
<path d="M181.139 30.5993C181.118 30.5994 181.098 30.5953 181.078 30.5874C181.059 30.5795 181.042 30.5679 181.027 30.5532C181.012 30.5383 181 30.5206 180.992 30.501C180.984 30.4814 180.98 30.4604 180.981 30.4393V26.1233C180.98 26.1013 180.983 26.0794 180.991 26.0589C180.999 26.0383 181.011 26.0197 181.027 26.004C181.041 25.9891 181.059 25.9772 181.078 25.9693C181.098 25.9614 181.118 25.9575 181.139 25.9579H184.057C184.079 25.957 184.101 25.9606 184.122 25.9685C184.142 25.9765 184.161 25.9887 184.176 26.0042C184.192 26.0198 184.204 26.0384 184.212 26.0589C184.22 26.0794 184.224 26.1014 184.223 26.1233V26.5613C184.223 26.5822 184.219 26.603 184.211 26.6224C184.203 26.6418 184.192 26.6593 184.177 26.6738C184.161 26.6893 184.142 26.7014 184.122 26.7093C184.101 26.7173 184.079 26.7209 184.057 26.7199H181.876V27.8942H183.909C183.953 27.8926 183.996 27.9082 184.029 27.9376C184.045 27.9522 184.057 27.97 184.065 27.99C184.073 28.0099 184.077 28.0313 184.076 28.0528V28.4596C184.077 28.4813 184.073 28.503 184.065 28.5231C184.057 28.5432 184.045 28.5614 184.029 28.5762C183.996 28.6056 183.953 28.6212 183.909 28.6196H181.876V29.8305H184.11C184.132 29.8297 184.154 29.8335 184.175 29.8416C184.195 29.8497 184.214 29.862 184.229 29.8777C184.245 29.8934 184.257 29.9121 184.265 29.9326C184.273 29.9532 184.276 29.9752 184.276 29.9972V30.4338C184.276 30.455 184.272 30.476 184.264 30.4956C184.256 30.5152 184.244 30.5329 184.229 30.5477C184.214 30.563 184.195 30.5749 184.174 30.5828C184.154 30.5907 184.132 30.5945 184.11 30.5938L181.139 30.5993Z" fill="#394455"/>
<path d="M186.159 30.6658C185.943 30.6686 185.73 30.6222 185.535 30.5302C185.36 30.4477 185.208 30.3222 185.094 30.1655C184.958 29.9701 184.904 29.7289 184.945 29.4941C184.985 29.2594 185.116 29.05 185.31 28.9112C185.605 28.7118 185.944 28.5859 186.298 28.5438L187.207 28.4082V28.2726C187.218 28.1903 187.209 28.1066 187.182 28.0283C187.154 27.95 187.108 27.8794 187.048 27.8223C186.988 27.7652 186.915 27.7233 186.835 27.6999C186.756 27.6766 186.671 27.6726 186.59 27.6882C186.454 27.6822 186.319 27.7156 186.202 27.7845C186.105 27.8457 186.027 27.9344 185.98 28.0394C185.965 28.0666 185.942 28.0891 185.915 28.1044C185.888 28.1197 185.858 28.1273 185.827 28.1262H185.303C185.283 28.1276 185.263 28.1248 185.244 28.118C185.225 28.1112 185.208 28.1006 185.193 28.0868C185.169 28.0567 185.156 28.0185 185.158 27.9797C185.169 27.8884 185.2 27.8006 185.248 27.7221C185.312 27.6086 185.397 27.5083 185.498 27.4265C185.631 27.321 185.78 27.2393 185.94 27.1851C186.152 27.1136 186.374 27.0797 186.597 27.0848C186.836 27.0793 187.074 27.1141 187.302 27.1879C187.474 27.243 187.631 27.3357 187.763 27.459C187.877 27.5732 187.964 27.7125 188.015 27.8658C188.069 28.0239 188.096 28.1897 188.095 28.3567V30.438C188.095 30.4591 188.091 30.4801 188.084 30.4997C188.076 30.5193 188.064 30.537 188.049 30.552C188.034 30.5669 188.016 30.5787 187.997 30.5866C187.977 30.5945 187.956 30.5984 187.935 30.598H187.393C187.371 30.5987 187.35 30.595 187.33 30.587C187.31 30.5791 187.292 30.5672 187.277 30.5519C187.263 30.5368 187.252 30.5189 187.244 30.4993C187.237 30.4798 187.233 30.4589 187.234 30.438V30.1804C187.168 30.2685 187.09 30.3466 187.002 30.4123C186.895 30.4922 186.775 30.5537 186.647 30.594C186.489 30.6441 186.324 30.6684 186.159 30.6658ZM186.384 30.0353C186.53 30.0375 186.675 30.0035 186.806 29.9363C186.935 29.8667 187.039 29.7586 187.104 29.6272C187.182 29.4632 187.219 29.2826 187.212 29.1011V28.9655L186.549 29.0712C186.343 29.093 186.145 29.1586 185.966 29.2638C185.909 29.2972 185.861 29.3446 185.828 29.4015C185.794 29.4585 185.775 29.5231 185.774 29.5892C185.771 29.6802 185.803 29.7687 185.863 29.8373C185.925 29.9073 186.004 29.9601 186.092 29.9906C186.186 30.0218 186.285 30.037 186.384 30.0353Z" fill="#394455"/>
<path d="M190.383 30.6659C190.153 30.6707 189.925 30.6392 189.705 30.5723C189.539 30.5226 189.383 30.4441 189.244 30.3404C189.139 30.2663 189.047 30.1746 188.973 30.0693C188.925 30 188.893 29.9207 188.881 29.8374C188.877 29.816 188.879 29.794 188.886 29.7736C188.894 29.7532 188.906 29.735 188.923 29.7208C188.953 29.6935 188.992 29.6781 189.032 29.6774H189.557C189.572 29.6752 189.588 29.6752 189.603 29.6774C189.624 29.6866 189.642 29.7005 189.656 29.7181L189.838 29.8699C189.907 29.926 189.984 29.9716 190.067 30.0055C190.191 30.0498 190.323 30.0686 190.455 30.0607C190.586 30.0528 190.715 30.0183 190.833 29.9594C190.877 29.9343 190.914 29.9 190.943 29.859C190.973 29.818 190.993 29.7712 191.002 29.7218C191.011 29.6723 191.01 29.6215 190.998 29.5726C190.986 29.5238 190.963 29.4781 190.932 29.4387C190.852 29.3649 190.755 29.3114 190.65 29.2828C190.459 29.2223 190.264 29.1725 190.067 29.1337C189.853 29.0884 189.645 29.015 189.45 28.9154C189.301 28.8395 189.175 28.7247 189.085 28.5831C189.001 28.4362 188.96 28.2685 188.966 28.0993C188.973 27.93 189.027 27.766 189.122 27.6259C189.239 27.4577 189.399 27.3239 189.586 27.2381C189.826 27.1289 190.088 27.0765 190.352 27.0848C190.563 27.0808 190.774 27.111 190.975 27.1743C191.133 27.2245 191.282 27.2996 191.416 27.3967C191.521 27.4719 191.612 27.5635 191.687 27.6679C191.741 27.7364 191.775 27.8178 191.786 27.9038C191.79 27.9248 191.788 27.9463 191.781 27.9665C191.774 27.9866 191.763 28.0047 191.747 28.0191C191.733 28.033 191.717 28.044 191.699 28.0514C191.68 28.0589 191.661 28.0626 191.641 28.0625H191.15C191.13 28.063 191.109 28.0583 191.091 28.0489C191.072 28.0401 191.054 28.0291 191.038 28.0164L190.879 27.874C190.817 27.8181 190.746 27.7723 190.669 27.7384C190.567 27.6993 190.457 27.6813 190.348 27.6855C190.211 27.6761 190.075 27.7149 189.964 27.7954C189.922 27.8269 189.888 27.8679 189.864 27.9149C189.841 27.962 189.828 28.0139 189.828 28.0665C189.827 28.1368 189.849 28.2055 189.891 28.2618C189.961 28.3353 190.049 28.3891 190.147 28.4177C190.337 28.4829 190.532 28.5341 190.73 28.5709C190.977 28.6075 191.216 28.6869 191.437 28.8055C191.59 28.8897 191.718 29.0133 191.808 29.1635C191.881 29.3014 191.918 29.4551 191.917 29.6109C191.92 29.8061 191.858 29.9968 191.742 30.1533C191.608 30.3249 191.428 30.4551 191.224 30.5289C190.954 30.6261 190.669 30.6726 190.383 30.6659Z" fill="#394455"/>
<path d="M194.222 30.6657C194.009 30.6771 193.796 30.6453 193.596 30.5724C193.395 30.4995 193.212 30.3869 193.056 30.2413C192.767 29.9584 192.612 29.5561 192.591 29.0346C192.591 28.9898 192.584 28.9342 192.584 28.8651C192.584 28.7959 192.584 28.743 192.591 28.7023C192.599 28.4001 192.678 28.104 192.82 27.8373C192.95 27.6019 193.144 27.4086 193.38 27.28C193.64 27.1448 193.929 27.0776 194.222 27.0847C194.537 27.074 194.849 27.151 195.124 27.3071C195.365 27.4529 195.557 27.6679 195.674 27.924C195.803 28.2103 195.866 28.5215 195.86 28.8352V28.9708C195.86 28.9917 195.856 29.0124 195.848 29.0317C195.84 29.051 195.829 29.0686 195.814 29.0834C195.798 29.0987 195.779 29.1107 195.759 29.1186C195.738 29.1266 195.716 29.1302 195.694 29.1295H193.492V29.1823C193.495 29.3295 193.525 29.475 193.582 29.6108C193.634 29.7361 193.718 29.8448 193.827 29.9254C193.94 30.0066 194.076 30.0486 194.215 30.0447C194.322 30.0479 194.428 30.0285 194.527 29.9878C194.603 29.9545 194.673 29.9087 194.733 29.8522C194.774 29.8159 194.812 29.7759 194.846 29.7329C194.87 29.694 194.903 29.6612 194.942 29.6366C194.977 29.6238 195.014 29.6183 195.05 29.6203H195.621C195.661 29.6192 195.7 29.6333 195.73 29.6596C195.744 29.6717 195.755 29.6873 195.761 29.7049C195.768 29.7225 195.77 29.7415 195.766 29.76C195.753 29.8537 195.715 29.9424 195.658 30.0176C195.577 30.1327 195.477 30.2335 195.362 30.3159C195.217 30.4227 195.055 30.5047 194.882 30.5586C194.669 30.6294 194.446 30.6656 194.222 30.6657ZM193.492 28.5776H194.958V28.5573C194.962 28.4014 194.932 28.2466 194.871 28.103C194.82 27.9785 194.732 27.8723 194.619 27.7979C194.499 27.726 194.362 27.688 194.222 27.688C194.082 27.688 193.945 27.726 193.825 27.7979C193.713 27.8723 193.626 27.9786 193.575 28.103C193.517 28.2473 193.489 28.4018 193.492 28.5573V28.5776Z" fill="#394455"/>
<path d="M196.813 30.5994C196.792 30.5995 196.771 30.5956 196.752 30.5876C196.733 30.5797 196.715 30.568 196.7 30.5533C196.685 30.5385 196.674 30.5207 196.666 30.5011C196.658 30.4815 196.654 30.4605 196.654 30.4394V29.7831C196.654 29.7611 196.657 29.7392 196.665 29.7187C196.673 29.6982 196.685 29.6795 196.7 29.6638C196.715 29.649 196.733 29.6373 196.752 29.6294C196.771 29.6215 196.792 29.6175 196.813 29.6177H197.476C197.497 29.6176 197.518 29.6216 197.537 29.6295C197.556 29.6374 197.574 29.6491 197.589 29.6638C197.604 29.6795 197.616 29.6982 197.624 29.7187C197.632 29.7392 197.636 29.7611 197.635 29.7831V30.4394C197.635 30.4605 197.631 30.4815 197.623 30.5011C197.616 30.5207 197.604 30.5385 197.589 30.5533C197.574 30.568 197.556 30.5796 197.537 30.5875C197.518 30.5955 197.497 30.5995 197.476 30.5994H196.813Z" fill="#394455"/>
</g>
<defs>
<clipPath id="clip0_2301_2273">
<rect width="102.508" height="32" fill="white" transform="translate(96.7458)"/>
</clipPath>
</defs>
</svg>
