<svg width="20" height="20" viewBox="0 0 20 20" fill="none" xmlns="http://www.w3.org/2000/svg">
<path d="M9.99937 13.0855C9.84914 13.0854 9.70476 13.0272 9.59635 12.9232C9.48795 12.8192 9.42388 12.6774 9.41751 12.5273C9.37721 11.7249 9.5413 10.9255 9.8944 10.2039C10.2138 9.52726 10.7503 8.97694 11.4186 8.64053C11.8309 8.50228 12.1867 8.23309 12.4319 7.87395C12.6617 7.52789 12.7736 7.11684 12.7509 6.70204C12.7493 6.44163 12.6901 6.18479 12.5775 5.94996C12.465 5.71513 12.3018 5.50813 12.0998 5.3438C11.6256 4.95537 11.0299 4.74597 10.4169 4.7522H9.58354C8.97054 4.74599 8.37485 4.95541 7.9006 5.34387C7.70207 5.50384 7.54099 5.70535 7.42865 5.93422C7.31632 6.1631 7.25547 6.4138 7.25037 6.6687C7.25037 6.82346 7.1889 6.97187 7.07947 7.0813C6.97004 7.19073 6.82163 7.2522 6.66687 7.2522C6.51212 7.2522 6.3637 7.19073 6.25428 7.0813C6.14485 6.97187 6.08337 6.82346 6.08337 6.6687C6.0898 6.24569 6.18776 5.82908 6.37053 5.44753C6.5533 5.06599 6.81653 4.72855 7.14213 4.45842C7.8257 3.88541 8.69162 3.57569 9.58354 3.5852H10.4169C11.3088 3.57569 12.1747 3.88541 12.8583 4.45842C13.1839 4.72855 13.4471 5.06599 13.6299 5.44753C13.8127 5.82908 13.9106 6.24569 13.917 6.6687C13.9479 7.33066 13.7644 7.98491 13.394 8.53437C13.0235 9.08382 12.4858 9.49919 11.8606 9.71884C11.4544 9.94825 11.1314 10.3003 10.9377 10.7247C10.6756 11.2701 10.5537 11.8723 10.5829 12.4768C10.5862 12.5533 10.5744 12.6297 10.5482 12.7017C10.522 12.7737 10.4818 12.8398 10.4301 12.8962C10.3783 12.9527 10.3159 12.9984 10.2465 13.0307C10.177 13.0631 10.1019 13.0814 10.0254 13.0847C10.0165 13.0855 10.0083 13.0855 9.99937 13.0855Z" fill="#535A5F"/>
<path d="M10.0002 16.4268C9.88457 16.4272 9.77141 16.3933 9.67499 16.3295C9.57857 16.2657 9.50321 16.1747 9.4584 16.0681C9.4136 15.9615 9.40136 15.8441 9.42323 15.7305C9.4451 15.617 9.5001 15.5124 9.5813 15.4301C9.66249 15.3478 9.76624 15.2913 9.87947 15.2679C9.9927 15.2444 10.1103 15.255 10.2175 15.2984C10.3248 15.3417 10.4167 15.4158 10.4819 15.5113C10.5471 15.6068 10.5825 15.7195 10.5837 15.8351V15.8433C10.5837 15.9199 10.5686 15.9958 10.5393 16.0666C10.51 16.1374 10.467 16.2017 10.4128 16.2559C10.3586 16.3101 10.2943 16.3531 10.2235 16.3824C10.1527 16.4117 10.0768 16.4268 10.0002 16.4268Z" fill="#535A5F"/>
</svg>
