<svg width="32" height="32" viewBox="0 0 32 32" fill="none" xmlns="http://www.w3.org/2000/svg">
<rect width="32" height="32" rx="16" fill="#00C49A" fill-opacity="0.1"/>
<path d="M15.9995 19.0845C15.8493 19.0844 15.7049 19.0262 15.5965 18.9222C15.4881 18.8182 15.424 18.6764 15.4176 18.5263C15.3773 17.7239 15.5414 16.9245 15.8945 16.2029C16.2139 15.5262 16.7505 14.9759 17.4188 14.6395C17.831 14.5013 18.1868 14.2321 18.432 13.8729C18.6618 13.5269 18.7737 13.1158 18.751 12.701C18.7494 12.4406 18.6902 12.1838 18.5777 11.949C18.4651 11.7141 18.302 11.5071 18.0999 11.3428C17.6257 10.9544 17.03 10.745 16.417 10.7512H15.5837C14.9707 10.745 14.375 10.9544 13.9007 11.3429C13.7022 11.5028 13.5411 11.7043 13.4288 11.9332C13.3164 12.1621 13.2556 12.4128 13.2505 12.6677C13.2505 12.8225 13.189 12.9709 13.0796 13.0803C12.9702 13.1897 12.8217 13.2512 12.667 13.2512C12.5122 13.2512 12.3638 13.1897 12.2544 13.0803C12.145 12.9709 12.0835 12.8225 12.0835 12.6677C12.0899 12.2447 12.1879 11.8281 12.3707 11.4465C12.5534 11.065 12.8167 10.7275 13.1423 10.4574C13.8258 9.8844 14.6917 9.57469 15.5837 9.5842H16.417C17.3089 9.57469 18.1748 9.8844 18.8584 10.4574C19.184 10.7275 19.4472 11.065 19.63 11.4465C19.8128 11.8281 19.9107 12.2447 19.9172 12.6677C19.948 13.3297 19.7645 13.9839 19.3941 14.5334C19.0236 15.0828 18.4859 15.4982 17.8607 15.7178C17.4546 15.9472 17.1315 16.2993 16.9378 16.7237C16.6757 17.2691 16.5538 17.8713 16.583 18.4758C16.5863 18.5523 16.5745 18.6287 16.5483 18.7007C16.5221 18.7727 16.482 18.8388 16.4302 18.8952C16.3784 18.9517 16.316 18.9974 16.2466 19.0297C16.1772 19.062 16.102 19.0804 16.0255 19.0837C16.0166 19.0845 16.0085 19.0845 15.9995 19.0845Z" fill="#00C49A"/>
<path d="M16.0003 22.4258C15.8847 22.4262 15.7715 22.3923 15.6751 22.3285C15.5787 22.2647 15.5033 22.1737 15.4585 22.0671C15.4137 21.9605 15.4015 21.8431 15.4234 21.7295C15.4452 21.616 15.5002 21.5114 15.5814 21.4291C15.6626 21.3468 15.7664 21.2903 15.8796 21.2669C15.9928 21.2434 16.1105 21.254 16.2177 21.2974C16.3249 21.3407 16.4169 21.4148 16.482 21.5103C16.5472 21.6058 16.5826 21.7185 16.5838 21.8341V21.8423C16.5838 21.9189 16.5687 21.9948 16.5394 22.0656C16.5101 22.1364 16.4671 22.2007 16.4129 22.2549C16.3587 22.3091 16.2944 22.352 16.2236 22.3814C16.1528 22.4107 16.0769 22.4258 16.0003 22.4258Z" fill="#00C49A"/>
</svg>
