<svg width="20" height="20" viewBox="0 0 20 20" fill="none" xmlns="http://www.w3.org/2000/svg">
<path d="M10 18.0844C8.40124 18.0844 6.83838 17.6103 5.50906 16.722C4.17973 15.8338 3.14365 14.5713 2.53183 13.0943C1.92001 11.6172 1.75993 9.99189 2.07183 8.42385C2.38373 6.8558 3.15361 5.41546 4.28411 4.28496C5.41461 3.15447 6.85495 2.38459 8.42299 2.07268C9.99104 1.76078 11.6164 1.92086 13.0934 2.53268C14.5705 3.1445 15.833 4.18059 16.7212 5.50991C17.6094 6.83923 18.0835 8.4021 18.0835 10.0009C18.0811 12.144 17.2286 14.1986 15.7132 15.7141C14.1978 17.2295 12.1431 18.0819 10 18.0844ZM10 3.08436C8.63205 3.08436 7.29482 3.49001 6.15741 4.25C5.01999 5.01 4.13349 6.09021 3.60999 7.35403C3.0865 8.61786 2.94953 10.0085 3.21641 11.3502C3.48328 12.6919 4.14201 13.9243 5.1093 14.8916C6.07659 15.8589 7.309 16.5176 8.65067 16.7845C9.99234 17.0513 11.383 16.9144 12.6468 16.3909C13.9107 15.8674 14.9909 14.9809 15.7509 13.8435C16.5109 12.7061 16.9165 11.3688 16.9165 10.0009C16.9144 8.16714 16.185 6.40912 14.8884 5.11248C13.5917 3.81584 11.8337 3.08647 10 3.08436Z" fill="#69778A"/>
<path d="M10.0081 7.25102C9.85297 7.25118 9.70404 7.18989 9.59394 7.08054C9.48383 6.9712 9.4215 6.8227 9.42058 6.66752C9.42012 6.59111 9.43476 6.51536 9.46367 6.44463C9.49257 6.37389 9.53517 6.30956 9.58902 6.25534C9.64286 6.20112 9.70688 6.15807 9.77742 6.12867C9.84795 6.09927 9.92359 6.0841 10 6.08402H10.0081C10.1629 6.08402 10.3113 6.1455 10.4207 6.25493C10.5302 6.36436 10.5916 6.51277 10.5916 6.66752C10.5916 6.82228 10.5302 6.97069 10.4207 7.08012C10.3113 7.18955 10.1629 7.25102 10.0081 7.25102Z" fill="#69778A"/>
<path d="M10.8333 13.9177H10C9.92338 13.9177 9.84751 13.9026 9.77671 13.8733C9.70592 13.844 9.64159 13.801 9.58741 13.7468C9.53323 13.6926 9.49025 13.6283 9.46092 13.5575C9.4316 13.4867 9.41651 13.4108 9.41651 13.3342V10.5844H9.16667C9.01192 10.5844 8.86351 10.5229 8.75408 10.4135C8.64465 10.304 8.58317 10.1556 8.58317 10.0009C8.58317 9.8461 8.64465 9.69769 8.75408 9.58826C8.86351 9.47883 9.01192 9.41736 9.16667 9.41736H10C10.0766 9.41736 10.1525 9.43245 10.2233 9.46177C10.2941 9.4911 10.3584 9.53408 10.4126 9.58826C10.4668 9.64244 10.5098 9.70677 10.5391 9.77756C10.5684 9.84835 10.5835 9.92423 10.5835 10.0009V12.7507H10.8333C10.9881 12.7507 11.1365 12.8122 11.2459 12.9216C11.3554 13.031 11.4168 13.1794 11.4168 13.3342C11.4168 13.4889 11.3554 13.6374 11.2459 13.7468C11.1365 13.8562 10.9881 13.9177 10.8333 13.9177Z" fill="#69778A"/>
</svg>
