<svg width="20" height="20" viewBox="0 0 20 20" fill="none" xmlns="http://www.w3.org/2000/svg">
<path d="M3.3335 8.08538H3.73633C3.74528 8.08477 3.75425 8.08477 3.76319 8.08538H6.66683C6.74364 8.08567 6.81976 8.0708 6.89081 8.0416C6.96185 8.01241 7.02644 7.96948 7.08086 7.91527C7.13527 7.86107 7.17845 7.79665 7.20791 7.72572C7.23737 7.65478 7.25254 7.57873 7.25254 7.50193C7.25254 7.42512 7.23737 7.34907 7.20791 7.27814C7.17845 7.2072 7.13527 7.14279 7.08086 7.08858C7.02644 7.03437 6.96185 6.99144 6.89081 6.96225C6.81976 6.93306 6.74364 6.91818 6.66683 6.91847H4.69825C5.35564 5.82601 6.33556 4.9642 7.50308 4.4517C8.6706 3.9392 9.9683 3.80123 11.2175 4.05677C12.4667 4.31231 13.6059 4.9488 14.4784 5.8786C15.3508 6.8084 15.9135 7.98579 16.089 9.24863C16.1084 9.38795 16.1775 9.51558 16.2835 9.60805C16.3895 9.70052 16.5253 9.75161 16.666 9.75193C16.693 9.75185 16.7199 9.74995 16.7466 9.74623C16.8225 9.73574 16.8956 9.71039 16.9617 9.67165C17.0278 9.63291 17.0856 9.58152 17.1319 9.52043C17.1781 9.45933 17.2119 9.38973 17.2313 9.31558C17.2506 9.24144 17.2551 9.16421 17.2446 9.08831C17.0414 7.62022 16.398 6.2482 15.3991 5.15324C14.4002 4.05827 13.0928 3.2918 11.6495 2.95493C10.2061 2.61805 8.69445 2.7266 7.31401 3.26626C5.93357 3.80591 4.74916 4.75132 3.917 5.97778V4.16882C3.917 4.01407 3.85552 3.86567 3.7461 3.75625C3.63667 3.64683 3.48825 3.58536 3.3335 3.58536C3.17875 3.58536 3.03033 3.64683 2.9209 3.75625C2.81148 3.86567 2.75 4.01407 2.75 4.16882V7.50192C2.75 7.57854 2.76509 7.65441 2.79441 7.7252C2.82374 7.79599 2.86672 7.86031 2.9209 7.91449C2.97508 7.96867 3.03941 8.01165 3.1102 8.04097C3.181 8.07029 3.25687 8.08538 3.3335 8.08538Z" fill="#71777B"/>
<path d="M16.6668 11.9177H13.3335C13.2567 11.9174 13.1806 11.9323 13.1095 11.9615C13.0385 11.9907 12.9739 12.0336 12.9195 12.0878C12.8651 12.142 12.8219 12.2064 12.7924 12.2774C12.763 12.3483 12.7478 12.4244 12.7478 12.5012C12.7478 12.578 12.763 12.654 12.7924 12.7249C12.8219 12.7959 12.8651 12.8603 12.9195 12.9145C12.9739 12.9687 13.0385 13.0116 13.1095 13.0408C13.1806 13.07 13.2567 13.0849 13.3335 13.0846H15.3021C14.6448 14.1772 13.6649 15.0391 12.4973 15.5517C11.3298 16.0642 10.032 16.2022 8.78276 15.9467C7.53352 15.6911 6.39423 15.0546 5.5218 14.1247C4.64937 13.1948 4.08671 12.0174 3.9113 10.7544C3.89004 10.6012 3.80878 10.4627 3.68538 10.3694C3.56199 10.2761 3.40658 10.2356 3.25334 10.2568C3.1001 10.2781 2.96158 10.3594 2.86825 10.4827C2.77493 10.6061 2.73444 10.7615 2.7557 10.9148C2.97708 12.5079 3.71614 13.984 4.85904 15.1158C6.00194 16.2476 7.48528 16.9723 9.08057 17.1782C9.38849 17.2179 9.69865 17.2377 10.0091 17.2376C11.2071 17.2402 12.3875 16.9487 13.4466 16.3887C14.5057 15.8287 15.4111 15.0173 16.0833 14.0257V15.8343C16.0833 15.989 16.1448 16.1374 16.2542 16.2469C16.3637 16.3563 16.5121 16.4178 16.6668 16.4178C16.8216 16.4178 16.97 16.3563 17.0794 16.2469C17.1889 16.1374 17.2503 15.989 17.2503 15.8343V12.5012C17.2503 12.4246 17.2353 12.3487 17.2059 12.2779C17.1766 12.2071 17.1336 12.1428 17.0794 12.0886C17.0253 12.0344 16.9609 11.9914 16.8901 11.9621C16.8193 11.9328 16.7435 11.9177 16.6668 11.9177Z" fill="#71777B"/>
</svg>
