<svg width="20" height="20" viewBox="0 0 20 20" fill="none" xmlns="http://www.w3.org/2000/svg">
<path d="M9.99962 13.0838C8.89531 13.0838 7.81579 12.7563 6.89759 12.1428C5.97939 11.5293 5.26373 10.6574 4.84113 9.63717C4.41853 8.61697 4.30795 7.49438 4.52339 6.41134C4.73883 5.32831 5.27061 4.33347 6.05148 3.55265C6.83234 2.77182 7.82723 2.24007 8.91032 2.02464C9.99341 1.80921 11.1161 1.91978 12.1363 2.34236C13.1566 2.76494 14.0286 3.48055 14.6421 4.3987C15.2556 5.31686 15.5831 6.39631 15.5831 7.50057C15.5814 8.98079 14.9926 10.3999 13.9458 11.4466C12.8991 12.4933 11.4799 13.082 9.99962 13.0838ZM9.99962 3.0843C9.12612 3.0843 8.27224 3.34332 7.54595 3.82859C6.81966 4.31386 6.25359 5.00358 5.91932 5.81055C5.58505 6.61752 5.49759 7.50548 5.66801 8.36215C5.83842 9.21882 6.25906 10.0057 6.87671 10.6233C7.49437 11.241 8.28132 11.6616 9.13804 11.832C9.99475 12.0024 10.8828 11.9149 11.6898 11.5807C12.4968 11.2464 13.1865 10.6804 13.6718 9.95411C14.1571 9.22786 14.4161 8.37402 14.4161 7.50057C14.4148 6.3297 13.9491 5.20716 13.1211 4.37923C12.2931 3.55131 11.1705 3.08561 9.99962 3.0843Z" fill="#009D7B"/>
<path d="M12.8349 17.9937C12.7325 17.9936 12.632 17.9666 12.5433 17.9154C12.4547 17.8642 12.3811 17.7906 12.3299 17.7019L9.4959 12.7945C9.45731 12.7281 9.4322 12.6548 9.42201 12.5787C9.41182 12.5026 9.41674 12.4253 9.43651 12.3511C9.45627 12.2769 9.49048 12.2073 9.53718 12.1464C9.58387 12.0854 9.64214 12.0343 9.70863 11.9959C9.77513 11.9575 9.84855 11.9326 9.92468 11.9227C10.0008 11.9127 10.0782 11.9179 10.1523 11.9379C10.2264 11.9578 10.2959 11.9923 10.3567 12.0391C10.4175 12.086 10.4685 12.1444 10.5066 12.211L12.7951 16.1745L13.6434 14.4582C13.6933 14.3541 13.7735 14.2674 13.8734 14.2096C13.9734 14.1518 14.0886 14.1256 14.2037 14.1344L16.1146 14.2581L13.8262 10.2947C13.7488 10.1606 13.7278 10.0014 13.7679 9.85187C13.808 9.70239 13.9058 9.57494 14.0398 9.49757C14.1738 9.4202 14.3331 9.39923 14.4826 9.43929C14.6321 9.47935 14.7595 9.57715 14.8369 9.71118L17.6702 14.6186C17.7229 14.71 17.7498 14.8141 17.7481 14.9196C17.7464 15.0252 17.716 15.1283 17.6603 15.218C17.6046 15.3077 17.5257 15.3806 17.4318 15.4289C17.3379 15.4773 17.2327 15.4993 17.1274 15.4925L14.5171 15.3237L13.3578 17.6686C13.3111 17.7633 13.2395 17.8435 13.1507 17.9007C13.0619 17.9579 12.9592 17.9899 12.8537 17.9932L12.8349 17.9937Z" fill="#009D7B"/>
<path d="M7.16556 17.9944L7.14684 17.994C7.04127 17.9906 6.93861 17.9586 6.84981 17.9014C6.76102 17.8442 6.68942 17.764 6.64267 17.6693L5.4834 15.3244L2.87273 15.4933C2.76737 15.5 2.66217 15.478 2.56832 15.4297C2.47447 15.3813 2.3955 15.3084 2.3398 15.2188C2.2841 15.1291 2.25377 15.026 2.25203 14.9204C2.2503 14.8149 2.27722 14.7108 2.32994 14.6194L5.1632 9.71199C5.24057 9.57797 5.36802 9.48017 5.51751 9.44011C5.667 9.40005 5.82628 9.42101 5.96031 9.49838C6.09435 9.57575 6.19215 9.7032 6.23221 9.85268C6.27228 10.0022 6.25131 10.1614 6.17394 10.2955L3.88552 14.2589L5.79635 14.1352C5.91141 14.1271 6.02624 14.1536 6.1261 14.2113C6.22595 14.2691 6.30625 14.3553 6.35666 14.4591L7.20545 16.1753L9.49346 12.2119C9.57084 12.0778 9.69829 11.98 9.84778 11.94C9.99727 11.8999 10.1565 11.9209 10.2906 11.9982C10.4246 12.0756 10.5224 12.2031 10.5625 12.3525C10.6025 12.502 10.5816 12.6613 10.5042 12.7953L7.67092 17.7027C7.61964 17.7913 7.54596 17.8649 7.45726 17.9161C7.36857 17.9673 7.26797 17.9943 7.16556 17.9944Z" fill="#009D7B"/>
</svg>
