<svg width="37" height="36" viewBox="0 0 37 36" fill="none" xmlns="http://www.w3.org/2000/svg">
<rect x="0.5" width="36" height="36" rx="18" fill="#D5F9F1"/>
<path d="M18.5005 13.6673L18.4976 13.6673C18.2329 13.6692 17.9798 13.7758 17.7937 13.964C17.6075 14.1521 17.5035 14.4063 17.5044 14.671C17.5053 14.9356 17.6111 15.1891 17.7986 15.3759C17.986 15.5627 18.2399 15.6676 18.5046 15.6676C18.7692 15.6676 19.0231 15.5627 19.2106 15.3759C19.398 15.1891 19.5038 14.9356 19.5047 14.671C19.5057 14.4063 19.4016 14.1521 19.2155 13.964C19.0293 13.7758 18.7762 13.6692 18.5115 13.6673V13.6673H18.5086L18.5005 13.6673ZM14.241 11.6261C15.5018 10.7837 16.984 10.334 18.5003 10.334C20.533 10.3364 22.4817 11.1449 23.9191 12.5822C25.3563 14.0195 26.1649 15.9682 26.1673 18.0008C26.1673 19.5172 25.7177 20.9995 24.8752 22.2603C24.0328 23.5211 22.8354 24.5038 21.4345 25.084C20.0335 25.6643 18.492 25.8162 17.0048 25.5203C15.5176 25.2245 14.1515 24.4943 13.0792 23.4221C12.007 22.3499 11.2768 20.9838 10.981 19.4965C10.6852 18.0093 10.837 16.4678 11.4173 15.0668C11.9976 13.6659 12.9802 12.4685 14.241 11.6261ZM19.4245 17.6181L19.0396 17.7775L19.4245 17.6181C19.3743 17.4967 19.3006 17.3865 19.2077 17.2936C19.1149 17.2007 19.0046 17.127 18.8832 17.0768C18.7619 17.0265 18.6318 17.0006 18.5005 17.0006H17.6672C17.4019 17.0006 17.1475 17.106 16.9599 17.2936C16.7724 17.4812 16.667 17.7356 16.667 18.0008C16.667 18.2661 16.7724 18.5205 16.9599 18.708C17.1077 18.8558 17.297 18.9526 17.5003 18.987V21.3341C17.5003 21.4655 17.5262 21.5955 17.5765 21.7169C17.6267 21.8382 17.7004 21.9485 17.7933 22.0414C17.8861 22.1342 17.9964 22.2079 18.1177 22.2582C18.2391 22.3085 18.3692 22.3343 18.5005 22.3343H19.3338C19.5991 22.3343 19.8535 22.2289 20.0411 22.0414C20.2286 21.8538 20.334 21.5994 20.334 21.3341C20.334 21.0689 20.2286 20.8145 20.0411 20.6269C19.8933 20.4791 19.704 20.3824 19.5007 20.348V18.0008C19.5007 17.8695 19.4748 17.7394 19.4245 17.6181Z" fill="#00C49A" stroke="#00C49A" stroke-width="0.833333"/>
</svg>
