<svg width="20" height="20" viewBox="0 0 20 20" fill="none" xmlns="http://www.w3.org/2000/svg">
<path d="M14.1668 16.4168H5.00011C4.88856 16.4167 4.77937 16.3847 4.68547 16.3245C4.59157 16.2642 4.51691 16.1784 4.47032 16.077C4.42373 15.9756 4.40717 15.8631 4.42261 15.7526C4.43804 15.6421 4.48482 15.5384 4.5574 15.4537L9.23189 9.99996L4.5574 4.54627C4.48482 4.46156 4.43804 4.35783 4.42261 4.24735C4.40717 4.13687 4.42373 4.02428 4.47032 3.92293C4.51691 3.82157 4.59157 3.73569 4.68547 3.67547C4.77937 3.61524 4.88856 3.5832 5.00011 3.58313H14.1668C14.5425 3.58319 14.9029 3.73248 15.1686 3.99817C15.4343 4.26387 15.5836 4.62421 15.5836 4.99996V6.66663C15.5836 6.82138 15.5221 6.9698 15.4127 7.07923C15.3033 7.18865 15.1549 7.25013 15.0001 7.25013C14.8454 7.25013 14.6969 7.18865 14.5875 7.07923C14.4781 6.9698 14.4166 6.82138 14.4166 6.66663V4.99996C14.4164 4.93375 14.3901 4.8703 14.3434 4.82337C14.3202 4.80009 14.2927 4.78163 14.2624 4.76906C14.2321 4.75648 14.1996 4.75005 14.1668 4.75013H6.26801L10.4428 9.62032C10.5334 9.72607 10.5832 9.86072 10.5832 9.99996C10.5832 10.1392 10.5334 10.2739 10.4428 10.3796L6.26801 15.2498H14.1668C14.1996 15.2499 14.2321 15.2434 14.2624 15.2309C14.2927 15.2183 14.3202 15.1998 14.3434 15.1766C14.3901 15.1296 14.4164 15.0662 14.4166 15V13.3333C14.4166 13.1785 14.4781 13.0301 14.5875 12.9207C14.6969 12.8113 14.8454 12.7498 15.0001 12.7498C15.1549 12.7498 15.3033 12.8113 15.4127 12.9207C15.5221 13.0301 15.5836 13.1785 15.5836 13.3333V15C15.5836 15.3757 15.4343 15.7361 15.1686 16.0018C14.9029 16.2675 14.5425 16.4167 14.1668 16.4168Z" fill="#009D7B"/>
</svg>
