<svg width="20" height="20" viewBox="0 0 20 20" fill="none" xmlns="http://www.w3.org/2000/svg">
<path d="M15.0002 17.2509H5.00017C4.40356 17.2504 3.83155 17.0131 3.40969 16.5913C2.98783 16.1694 2.75057 15.5974 2.75 15.0008V5.00078C2.75057 4.40417 2.98783 3.83216 3.40969 3.4103C3.83155 2.98844 4.40356 2.75118 5.00017 2.75061H15.0002C15.5968 2.75118 16.1688 2.98844 16.5906 3.4103C17.0125 3.83216 17.2498 4.40417 17.2503 5.00078V15.0008C17.2498 15.5974 17.0125 16.1694 16.5906 16.5913C16.1688 17.0131 15.5968 17.2504 15.0002 17.2509ZM5.00017 3.91761C4.71299 3.91791 4.43765 4.03213 4.23458 4.23519C4.03152 4.43826 3.9173 4.7136 3.917 5.00078V15.0008C3.9173 15.288 4.03152 15.5633 4.23458 15.7664C4.43765 15.9694 4.71299 16.0836 5.00017 16.0839H15.0002C15.2873 16.0836 15.5627 15.9694 15.7657 15.7664C15.9688 15.5633 16.083 15.288 16.0833 15.0008V5.00078C16.083 4.7136 15.9688 4.43826 15.7657 4.23519C15.5627 4.03213 15.2873 3.91791 15.0002 3.91761H5.00017Z" fill="#69778A"/>
<path d="M12.5002 10.5843H7.50017C7.34541 10.5843 7.197 10.5228 7.08757 10.4134C6.97814 10.3039 6.91667 10.1555 6.91667 10.0008C6.91667 9.84602 6.97814 9.69761 7.08757 9.58818C7.197 9.47875 7.34541 9.41728 7.50017 9.41728H12.5002C12.6549 9.41728 12.8033 9.47875 12.9128 9.58818C13.0222 9.69761 13.0837 9.84602 13.0837 10.0008C13.0837 10.1555 13.0222 10.3039 12.9128 10.4134C12.8033 10.5228 12.6549 10.5843 12.5002 10.5843Z" fill="#69778A"/>
</svg>
