<svg width="14" height="14" viewBox="0 0 14 14" fill="none" xmlns="http://www.w3.org/2000/svg">
<path d="M0.949951 11.667V11.667V10.3337C0.949951 10.1436 1.02547 9.96123 1.1599 9.82681C1.29432 9.69238 1.47664 9.61686 1.66675 9.61686C1.85686 9.61686 2.03918 9.69238 2.17361 9.82681C2.30803 9.96123 2.38355 10.1436 2.38355 10.3337L2.38355 11.6669C2.38355 11.6669 2.38355 11.667 2.38355 11.667C2.38364 11.8305 2.44862 11.9873 2.56423 12.1029C2.67983 12.2185 2.8366 12.2834 3.00008 12.2835L0.949951 11.667ZM0.949951 11.667C0.950054 12.2107 1.16608 12.7321 1.55052 13.1166C1.93496 13.501 2.45635 13.717 3.00004 13.7171H3.00008M0.949951 11.667L3.00008 13.7171M3.00008 13.7171H11.0001H11.0001M3.00008 13.7171H11.0001M11.0001 13.7171C11.5438 13.717 12.0652 13.501 12.4496 13.1166C12.8341 12.7321 13.0501 12.2107 13.0502 11.667V11.667M11.0001 13.7171L13.0502 11.667M13.0502 11.667V10.3337C13.0502 10.2395 13.0317 10.1463 12.9957 10.0594C12.9596 9.97239 12.9068 9.89337 12.8403 9.82681C12.7737 9.76024 12.6947 9.70744 12.6077 9.67142C12.5208 9.6354 12.4275 9.61686 12.3334 9.61686C12.2393 9.61686 12.1461 9.6354 12.0591 9.67142M13.0502 11.667L12.0591 9.67142M12.0591 9.67142C11.9721 9.70745 11.8931 9.76025 11.8266 9.82681M12.0591 9.67142L11.8266 9.82681M11.8266 9.82681C11.76 9.89337 11.7072 9.97239 11.6712 10.0594M11.8266 9.82681L11.6712 10.0594M11.6712 10.0594C11.6352 10.1463 11.6166 10.2395 11.6166 10.3337M11.6712 10.0594L11.6166 10.3337M11.6166 10.3337V11.6669M11.6166 10.3337V11.6669M11.6166 11.6669C11.6166 11.6669 11.6166 11.667 11.6166 11.667C11.6165 11.8305 11.5515 11.9873 11.4359 12.1029M11.6166 11.6669L11.4359 12.1029M11.4359 12.1029C11.3203 12.2185 11.1636 12.2834 11.0001 12.2835M11.4359 12.1029L11.0001 12.2835M11.0001 12.2835C11.0001 12.2835 11 12.2835 11 12.2835M11.0001 12.2835H11M11 12.2835H3.00018H11ZM4.17297 5.50783L4.17361 5.50719L6.28329 3.39751V9.667C6.28329 9.8571 6.35881 10.0394 6.49323 10.1739C6.62766 10.3083 6.80998 10.3838 7.00009 10.3838C7.19019 10.3838 7.37252 10.3083 7.50694 10.1739C7.64137 10.0394 7.71689 9.8571 7.71689 9.667V3.39751L9.82656 5.50719L9.8272 5.50783C9.9618 5.64145 10.1439 5.71629 10.3335 5.71594C10.5232 5.7156 10.705 5.64011 10.8391 5.506C10.9732 5.37189 11.0487 5.19009 11.049 5.00043C11.0494 4.81077 10.9745 4.62871 10.8409 4.49411L10.8403 4.49347L7.50694 1.16014L7.50695 1.16014L7.50627 1.15947C7.37167 1.02589 7.18972 0.950928 7.00009 0.950928C6.81045 0.950928 6.6285 1.02589 6.4939 1.15947L6.4939 1.15947L6.49323 1.16014L3.1599 4.49347L3.15926 4.49411C3.02563 4.62871 2.9508 4.81077 2.95114 5.00043C2.95149 5.19009 3.02698 5.37189 3.16109 5.506C3.2952 5.64011 3.47699 5.7156 3.66665 5.71594C3.85631 5.71629 4.03838 5.64145 4.17297 5.50783Z" fill="white" stroke="white" stroke-width="0.5"/>
</svg>
