<svg width="20" height="20" viewBox="0 0 20 20" fill="none" xmlns="http://www.w3.org/2000/svg">
<path d="M10.0003 9.752C9.22557 9.752 8.46829 9.52228 7.82417 9.09189C7.18005 8.6615 6.67802 8.04978 6.38157 7.33407C6.08511 6.61836 6.00755 5.83082 6.15868 5.07103C6.30981 4.31123 6.68285 3.61332 7.23063 3.06554C7.77841 2.51776 8.47632 2.14472 9.23611 1.99359C9.99591 1.84246 10.7835 1.92002 11.4992 2.21648C12.2149 2.51294 12.8266 3.01497 13.257 3.65909C13.6874 4.30321 13.9171 5.06049 13.9171 5.83516C13.9159 6.87362 13.5029 7.86922 12.7686 8.60352C12.0343 9.33782 11.0387 9.75085 10.0003 9.752ZM10.0003 3.08533C9.45638 3.08533 8.92473 3.2466 8.47252 3.54876C8.02032 3.85092 7.66786 4.28038 7.45974 4.78285C7.25161 5.28531 7.19715 5.83821 7.30325 6.37163C7.40936 6.90504 7.67125 7.39502 8.05582 7.77959C8.4404 8.16416 8.93037 8.42605 9.46378 8.53216C9.9972 8.63826 10.5501 8.5838 11.0526 8.37568C11.555 8.16755 11.9845 7.8151 12.2867 7.36289C12.5888 6.91068 12.7501 6.37903 12.7501 5.83516C12.7492 5.10613 12.4592 4.40721 11.9437 3.8917C11.4282 3.3762 10.7293 3.0862 10.0003 3.08533Z" fill="#71777B"/>
<path d="M15.0002 18.0853C14.9236 18.0853 14.8477 18.0702 14.777 18.0409C14.7062 18.0116 14.6418 17.9686 14.5876 17.9144C14.5335 17.8602 14.4905 17.7959 14.4612 17.7251C14.4318 17.6543 14.4167 17.5785 14.4167 17.5018V15.8352C14.4165 15.1059 14.1267 14.4066 13.6111 13.891C13.0954 13.3753 12.3961 13.0856 11.6669 13.0853H8.33358C7.60435 13.0856 6.90505 13.3753 6.38941 13.891C5.87376 14.4066 5.58398 15.1059 5.58375 15.8352V17.5018C5.58375 17.6566 5.52227 17.805 5.41285 17.9144C5.30342 18.0239 5.155 18.0853 5.00025 18.0853C4.84549 18.0853 4.69708 18.0239 4.58765 17.9144C4.47822 17.805 4.41675 17.6566 4.41675 17.5018V15.8352C4.41698 14.7964 4.82972 13.8003 5.56422 13.0658C6.29871 12.3313 7.29484 11.9186 8.33358 11.9183H11.6669C12.7057 11.9186 13.7018 12.3313 14.4363 13.0658C15.1708 13.8003 15.5835 14.7964 15.5837 15.8352V17.5018C15.5837 17.5785 15.5687 17.6543 15.5393 17.7251C15.51 17.7959 15.467 17.8602 15.4128 17.9144C15.3587 17.9686 15.2943 18.0116 15.2235 18.0409C15.1528 18.0702 15.0769 18.0853 15.0002 18.0853Z" fill="#71777B"/>
</svg>
