<svg width="500" height="262" viewBox="0 0 500 262" fill="none" xmlns="http://www.w3.org/2000/svg">
<path d="M496.909 43.147C496.909 43.147 490.887 39.473 484.231 53.7943C477.574 68.1155 475.147 76.3351 475.147 76.3351C475.147 76.3351 473.353 79.3463 471.264 77.4949C469.175 75.6435 466.221 70.2911 462.792 71.386C459.262 72.5315 458.232 76.5584 459.125 82.3863C460.019 88.2142 461.495 101.051 461.632 102.211C461.769 103.371 461.164 105.093 459.536 104.027C457.908 102.96 448.399 93.1416 443.99 97.9322C439.581 102.723 444.71 118.55 445.272 120.264C445.834 121.979 445.481 122.764 444.66 123.232C443.839 123.7 440.957 120.084 438.177 117.39C435.396 114.696 431.614 112.073 429.309 115.048C427.004 118.024 426.658 130.054 438.782 149.13L444.977 157.602L455.473 156.636C477.805 153.207 486.637 145.038 487.357 141.342C488.077 137.647 483.64 136.552 479.764 136.206C475.889 135.86 471.264 136.055 471.076 135.133C470.889 134.211 471.249 133.469 472.913 132.727C474.577 131.985 489.871 125.444 490.584 118.967C491.297 112.491 477.617 111.828 475.766 111.281C473.915 110.733 474.808 109.163 475.766 108.507C476.724 107.852 487.371 100.511 492.335 97.3487C497.298 94.1862 499.589 90.7788 498.148 87.3641C496.708 84.072 490.75 85.3687 487.977 85.0085C485.203 84.6483 486.298 81.3201 486.298 81.3201C486.298 81.3201 490.887 74.1163 497.284 59.6582C503.681 45.2001 496.772 43.0894 496.772 43.0894" fill="#F5F5F5"/>
<path d="M490.945 55.9023C490.945 55.9023 490.909 56.0103 490.823 56.212C490.736 56.4138 490.607 56.7307 490.448 57.1125L488.964 60.5344C487.668 63.5095 485.766 67.803 483.396 73.0979C478.656 83.6875 471.985 98.2537 464.565 114.318C457.145 130.383 450.416 144.949 445.619 155.517L439.949 168.03L438.408 171.43C438.228 171.805 438.091 172.1 437.997 172.309C437.952 172.41 437.901 172.509 437.846 172.605C437.877 172.499 437.916 172.396 437.961 172.295C438.055 172.079 438.177 171.783 438.336 171.402C438.681 170.602 439.186 169.449 439.82 167.973C441.116 164.997 443.018 160.711 445.388 155.416C450.128 144.827 456.799 130.26 464.219 114.189C471.639 98.1169 478.346 83.5651 483.144 73.0042C485.535 67.7382 487.466 63.4663 488.813 60.4983L490.362 57.0981C490.535 56.7163 490.672 56.4282 490.772 56.212C490.873 55.9959 490.945 55.9023 490.945 55.9023Z" fill="#E0E0E0"/>
<path d="M466.646 78.9991C466.775 79.2253 466.874 79.4675 466.941 79.7195C467.114 80.1733 467.337 80.8432 467.611 81.6717C468.144 83.3358 468.828 85.641 469.534 88.2056L471.314 94.7754C471.53 95.5607 471.71 96.2162 471.861 96.7637C471.948 96.9953 472.004 97.2376 472.027 97.4841C471.897 97.2579 471.798 97.0157 471.731 96.7637C471.559 96.3098 471.335 95.6399 471.069 94.8043C470.55 93.1402 469.894 90.8205 469.188 88.256L467.366 81.7005L466.811 79.7195C466.729 79.4864 466.673 79.2447 466.646 78.9991Z" fill="#E0E0E0"/>
<path d="M473.006 97.6312C473.006 97.5376 477.674 95.9167 483.502 94.0293C489.33 92.1419 494.084 90.6507 494.113 90.7444C494.142 90.838 489.445 92.4589 483.617 94.3463C477.789 96.2337 473.035 97.7249 473.006 97.6312Z" fill="#E0E0E0"/>
<path d="M460.489 121.821C460.746 121.773 461.006 121.751 461.267 121.756L463.371 121.684C465.143 121.619 467.599 121.526 470.301 121.317C473.002 121.108 475.444 120.863 477.217 120.661L479.306 120.424C479.562 120.376 479.824 120.361 480.084 120.38C479.85 120.465 479.609 120.525 479.363 120.56C478.873 120.654 478.16 120.777 477.281 120.906C475.524 121.173 473.074 121.475 470.366 121.677C467.657 121.879 465.193 121.936 463.407 121.929C462.521 121.929 461.8 121.929 461.303 121.893C461.03 121.906 460.756 121.882 460.489 121.821Z" fill="#E0E0E0"/>
<path d="M451.037 106.185C451.204 106.357 451.349 106.548 451.469 106.755C451.729 107.129 452.103 107.684 452.55 108.375C453.45 109.751 454.668 111.668 455.993 113.793C457.319 115.918 458.508 117.856 459.35 119.268C459.775 119.988 460.107 120.55 460.33 120.953C460.466 121.152 460.575 121.367 460.654 121.594C460.481 121.427 460.333 121.235 460.215 121.025C459.955 120.644 459.588 120.096 459.134 119.404C458.241 118.029 457.024 116.112 455.691 113.98C454.358 111.848 453.177 109.917 452.334 108.505C451.916 107.785 451.613 107.223 451.354 106.827C451.223 106.626 451.117 106.411 451.037 106.185Z" fill="#E0E0E0"/>
<path d="M437.275 126.123C437.485 126.343 437.671 126.584 437.83 126.843L439.22 128.918C440.373 130.676 441.958 133.118 443.687 135.827C445.416 138.535 446.965 141.006 448.067 142.8L449.363 144.961C449.531 145.217 449.676 145.487 449.796 145.768C449.586 145.548 449.4 145.306 449.241 145.047L447.858 142.973C446.698 141.208 445.113 138.766 443.384 136.057C441.655 133.348 440.114 130.878 439.004 129.084C438.486 128.234 438.053 127.513 437.715 126.923C437.541 126.672 437.393 126.404 437.275 126.123Z" fill="#E0E0E0"/>
<path d="M449.63 145.18C449.949 145.107 450.275 145.069 450.602 145.065L453.268 144.877C455.515 144.719 458.627 144.488 462.049 144.157C465.471 143.826 468.533 143.437 470.802 143.127L473.446 142.774C473.769 142.716 474.097 142.687 474.425 142.687C474.114 142.794 473.793 142.869 473.467 142.911C472.848 143.033 471.947 143.192 470.838 143.372C468.605 143.739 465.514 144.171 462.085 144.517C458.656 144.863 455.537 145.058 453.282 145.151C452.151 145.194 451.244 145.223 450.61 145.223C450.282 145.237 449.955 145.222 449.63 145.18Z" fill="#E0E0E0"/>
<path d="M67.9321 114.061C84.7386 102.845 88.8232 81.6438 88.4846 62.4888C88.4198 59.2903 88.8304 55.9333 87.332 53.1238C85.8336 50.3143 82.2893 48.3261 79.3573 49.63C76.9441 50.7106 75.8491 53.4552 74.4731 55.7172C72.6175 58.7394 69.9488 61.1785 66.7723 62.7554C64.6975 63.7783 62.1402 64.3834 60.1231 63.2452C57.3568 61.6892 57.0831 57.8784 57.1551 54.7015L57.5441 36.9513C57.609 33.7744 57.6738 30.5327 56.7157 27.4999C55.7576 24.467 53.5964 21.6431 50.5492 20.7499C47.502 19.8566 43.6912 21.5423 42.9924 24.6399C42.7042 25.9294 42.9492 27.2765 42.8411 28.5948C42.7331 29.9131 42.1207 31.3611 40.8096 31.7069C39.4985 32.0527 38.2523 31.1378 37.3014 30.2013C34.0308 26.938 31.8409 22.7813 29.8022 18.6752C27.7635 14.569 25.7752 10.2971 22.8217 6.76006C19.8681 3.22298 15.7331 0.384675 11.1298 0.0532991C6.5266 -0.278077 1.57756 2.46658 0.324096 6.91134C-0.92937 11.3561 1.66401 15.9521 4.48791 19.6189C8.69284 25.0506 13.6594 29.8474 19.2342 33.8608C20.2427 34.5812 21.3233 35.3664 21.6979 36.5479C22.3606 38.709 20.3003 40.7477 18.168 41.4176C15.7547 42.138 13.1253 41.8859 10.6472 42.138C8.16907 42.3901 5.39559 43.4419 4.40867 45.7399C3.04715 48.9672 5.74138 52.4107 8.414 54.6799C13.7683 59.2251 19.8589 62.8235 26.4236 65.3199C28.7792 66.2132 31.2574 66.9984 33.1376 68.6697C35.0178 70.341 36.1343 73.2081 34.9457 75.4269C33.7571 77.6456 30.7819 78.3084 28.311 77.8329C25.8401 77.3575 23.6429 75.9816 21.2945 75.0667C16.8929 73.3522 11.2091 73.5683 8.29154 77.2999C6.38972 79.7492 6.17361 83.1998 7.06688 86.1678C7.96016 89.1357 9.83316 91.7075 11.8214 94.092C18.7803 102.405 27.7563 109.148 37.9569 112.822C48.1575 116.496 57.645 117.576 67.896 114.047" fill="#EBEBEB"/>
<path d="M66.6418 114.468C63.9404 104.779 56.5564 81.9792 52.1261 71.2455L48.8339 63.3213C47.7462 60.7208 46.6728 58.149 45.4553 55.6925C43.116 50.9903 40.5187 46.4209 37.6752 42.0052C34.981 37.755 32.2723 33.8217 29.751 30.1549C27.2297 26.4882 24.7083 23.1384 22.3455 20.1632C18.6193 15.4488 14.5243 11.0382 10.099 6.97301C8.53572 5.53224 7.28946 4.45167 6.4322 3.73129L5.40926 2.85242C5.18594 2.67232 5.06348 2.58588 5.06348 2.58588C5.06348 2.58588 5.16433 2.69394 5.37324 2.88844L6.32415 3.73849C7.15259 4.45888 8.38444 5.58267 9.92606 7.04505C14.2849 11.1582 18.3303 15.5913 22.0285 20.3073C24.3769 23.2897 26.8118 26.6611 29.3692 30.3206C31.9265 33.9801 34.6064 37.9278 37.2934 42.1709C40.119 46.5881 42.6995 51.1575 45.0231 55.8582C46.2261 58.3075 47.2995 60.9008 48.3873 63.4726C49.4751 66.0444 50.5484 68.7242 51.6795 71.3968C56.081 82.1161 63.4865 104.895 66.2096 114.555" fill="#E0E0E0"/>
<path d="M45.3042 55.5674C45.4533 55.1273 45.5594 54.6737 45.6212 54.2131C45.7941 53.3342 46.0102 52.052 46.2551 50.4815C46.7522 47.3262 47.2925 42.9463 47.876 38.1125C48.4595 33.2788 49.0718 28.9205 49.6337 25.7796C49.9074 24.2092 50.1452 22.9413 50.3541 22.0696C50.4667 21.6204 50.5414 21.1626 50.5774 20.7009C50.4011 21.1289 50.266 21.5727 50.174 22.0264C49.9363 22.8908 49.6481 24.1875 49.3311 25.722C48.6324 28.8484 47.984 33.2211 47.4005 38.0765C46.817 42.9319 46.3127 47.2038 45.9237 50.4599C45.7292 51.9727 45.5635 53.2334 45.4339 54.2059C45.3523 54.6553 45.3089 55.1107 45.3042 55.5674Z" fill="#E0E0E0"/>
<path d="M4.05566 47.35C4.19324 47.3939 4.33633 47.4181 4.48069 47.422L5.70534 47.5445C6.77151 47.6525 8.30592 47.7966 10.1933 48.0343C13.9753 48.481 19.1837 49.295 24.8891 50.4404C30.5946 51.5858 35.6949 52.8753 39.3688 53.9055C41.2058 54.4097 42.6826 54.8564 43.6911 55.1589L44.8725 55.5047C45.0064 55.5566 45.1472 55.5881 45.2904 55.5984C45.1704 55.5193 45.0393 55.4586 44.9014 55.4183C44.5844 55.2958 44.181 55.1517 43.7488 54.986C42.7474 54.6258 41.2778 54.1216 39.4265 53.5453C35.7741 52.4287 30.6594 51.096 24.9468 49.9434C19.2341 48.7907 14.0546 48.0632 10.2293 47.6958C8.33474 47.5013 6.78592 47.4076 5.71975 47.3644H4.4879C4.34498 47.3416 4.19978 47.3368 4.05566 47.35Z" fill="#E0E0E0"/>
<path d="M62.623 101.282C62.7329 101.126 62.827 100.959 62.904 100.784L63.6244 99.3437C64.2439 98.0614 65.0651 96.1884 66.1313 93.8616C68.1916 89.2151 70.8354 82.7029 73.6665 75.4846C76.4976 68.2664 79.0838 61.7109 81.0504 57.0285L83.4132 51.4959C83.6726 50.8764 83.8887 50.3793 84.0544 49.9903C84.136 49.8167 84.2012 49.6358 84.2489 49.45C84.1325 49.6018 84.0379 49.7691 83.9679 49.9471L83.2476 51.3879C82.628 52.6702 81.7708 54.5431 80.7478 56.8628C78.6875 61.5164 76.0365 68.0287 73.2126 75.2469C70.3888 82.4651 67.7882 88.9918 65.8071 93.6743L63.4443 99.2068L62.8103 100.712C62.7249 100.894 62.662 101.085 62.623 101.282Z" fill="#E0E0E0"/>
<path d="M7.92383 82.8915C8.09617 82.9816 8.27719 83.054 8.46412 83.1077L10.0562 83.6479L15.9201 85.6146C20.8691 87.2715 27.6768 89.6415 35.1904 92.2781C42.704 94.9147 49.5404 97.2343 54.5183 98.812C57.0036 99.5972 59.0279 100.217 60.4255 100.62L62.0463 101.074C62.2333 101.137 62.4265 101.181 62.6226 101.204C62.4477 101.112 62.2644 101.037 62.0751 100.98L60.4831 100.44L54.6192 98.4878C49.6701 96.8309 42.8625 94.4609 35.3489 91.8243C27.8353 89.1877 21.006 86.8608 16.0282 85.2904C13.5356 84.5052 11.5185 83.8857 10.1138 83.4822L8.50014 83.0212C8.31273 82.9592 8.11971 82.9158 7.92383 82.8915Z" fill="#E0E0E0"/>
<path d="M344.536 3.04556H435.354L417.59 15.6739V26.2203C417.55 31.4311 415.442 36.4127 411.729 40.0696C408.017 43.7266 403.004 45.7593 397.793 45.721H340.804C335.593 45.7593 330.58 43.7266 326.868 40.0696C323.156 36.4127 321.048 31.4311 321.008 26.2203C321.03 23.1536 321.657 20.1214 322.852 17.2969C324.046 14.4724 325.786 11.911 327.971 9.7589C330.156 7.60682 332.743 5.90627 335.585 4.75437C338.428 3.60248 341.469 3.02182 344.536 3.04556Z" fill="#F5F5F5"/>
<path d="M402.268 17.2077C402.268 17.3086 387.14 17.395 368.41 17.395C349.68 17.395 334.552 17.3086 334.552 17.2077C334.552 17.1069 349.68 17.0204 368.41 17.0204C387.14 17.0204 402.268 17.0997 402.268 17.2077Z" fill="#E0E0E0"/>
<path d="M402.268 24.238C402.268 24.3389 387.14 24.4253 368.41 24.4253C349.68 24.4253 334.552 24.3389 334.552 24.238C334.552 24.1372 349.68 24.0507 368.41 24.0507C387.14 24.0507 402.268 24.13 402.268 24.238Z" fill="#E0E0E0"/>
<path d="M206.75 219.269H99.2837L116.789 231.934V256.787C116.789 257.469 116.923 258.144 117.184 258.773C117.446 259.403 117.828 259.975 118.311 260.457C118.793 260.939 119.366 261.321 119.996 261.581C120.626 261.841 121.301 261.975 121.983 261.974H206.75C207.432 261.975 208.107 261.841 208.737 261.581C209.367 261.321 209.94 260.939 210.422 260.457C210.904 259.975 211.287 259.403 211.548 258.773C211.809 258.144 211.944 257.469 211.944 256.787V224.456C211.942 223.08 211.394 221.761 210.42 220.788C209.446 219.816 208.126 219.269 206.75 219.269Z" fill="#F5F5F5"/>
<path d="M202.269 236.762C202.269 236.87 186.06 236.95 166.07 236.95C146.079 236.95 129.871 236.87 129.871 236.762C129.871 236.654 146.072 236.575 166.07 236.575C186.068 236.575 202.269 236.661 202.269 236.762Z" fill="#E0E0E0"/>
<path d="M202.269 246.295C202.269 246.395 186.06 246.482 166.07 246.482C146.079 246.482 129.871 246.395 129.871 246.295C129.871 246.194 146.072 246.107 166.07 246.107C186.068 246.107 202.269 246.194 202.269 246.295Z" fill="#E0E0E0"/>
<path d="M426.167 96.7012H300.395C284.962 96.7012 272.452 109.212 272.452 124.645V227.011C272.452 242.444 284.962 254.955 300.395 254.955H426.167C441.6 254.955 454.111 242.444 454.111 227.011V124.645C454.111 109.212 441.6 96.7012 426.167 96.7012Z" fill="#00C49A"/>
<g opacity="0.4">
<path d="M426.167 96.7198H300.395C284.962 96.7198 272.451 109.231 272.451 124.663V227.03C272.451 242.462 284.962 254.973 300.395 254.973H426.167C441.6 254.973 454.11 242.462 454.11 227.03V124.663C454.11 109.231 441.6 96.7198 426.167 96.7198Z" fill="black"/>
</g>
<path d="M454.06 151.906H481.268L453.447 179.735L454.06 151.906Z" fill="#00C49A"/>
<g opacity="0.4">
<path d="M454.06 151.909H481.268L453.447 179.738L454.06 151.909Z" fill="black"/>
</g>
<path d="M268.102 169.06L256.698 156.094C253.615 153.01 252.556 151.526 253.175 150.986C253.996 150.266 253.644 150.503 260.048 155.308C260.048 155.308 250.971 148.371 254.119 148.328C254.674 148.328 256.215 149.221 257.865 150.302C255.617 148.393 254.983 147.103 255.423 146.491C256.143 145.425 261.705 149.279 264.262 151.13C262.173 149.574 258.189 146.556 257.49 145.605C256.525 144.308 258.477 144.416 260.062 144.956C261.841 145.562 271.675 150.583 274.585 151.879C274.818 152.019 275.079 152.106 275.349 152.134C275.619 152.163 275.893 152.133 276.15 152.046C276.408 151.959 276.643 151.817 276.84 151.631C277.038 151.444 277.192 151.217 277.294 150.964C278.367 146.455 281.616 143.523 282.855 143.141C284.094 142.759 285.052 144.344 284.166 145.497C283.332 146.838 282.688 148.287 282.25 149.805C281.848 150.995 281.651 152.244 281.666 153.5C281.666 154.941 281.767 156.187 281.861 157.232L292.285 171.531L274.851 181.617L268.102 169.06Z" fill="#FFBE9D"/>
<path d="M264.024 157.327C263.908 157.486 261.863 156.095 259.5 154.215C257.137 152.335 255.293 150.678 255.43 150.527C255.566 150.376 257.591 151.773 259.954 153.639C262.316 155.505 264.125 157.162 264.024 157.327Z" fill="#AA6550"/>
<path d="M266.23 155.043C266.115 155.209 263.875 153.84 261.224 151.996C258.573 150.152 256.512 148.517 256.628 148.358C256.743 148.2 258.983 149.554 261.634 151.398C264.285 153.243 266.346 154.878 266.23 155.043Z" fill="#AA6550"/>
<path d="M267.842 152.543C267.727 152.709 265.58 151.455 263.052 149.741C260.523 148.026 258.564 146.506 258.672 146.333C258.78 146.16 260.927 147.421 263.462 149.136C265.998 150.85 267.95 152.377 267.842 152.543Z" fill="#AA6550"/>
<path d="M388.313 85.4258C391.303 88.0192 391.295 92.5864 390.95 96.5269C390.604 100.467 390.337 104.955 393.068 107.822C395.322 110.185 399.407 111.215 399.926 114.436C400.048 115.192 399.934 115.968 399.598 116.657C399.262 117.346 398.72 117.914 398.048 118.283C397.376 118.651 396.607 118.803 395.845 118.716C395.083 118.63 394.367 118.31 393.795 117.8C394.674 120.343 394.069 123.52 391.865 125.061C389.66 126.603 385.965 125.652 385.28 123.051C385.392 123.485 385.413 123.938 385.343 124.381C385.272 124.824 385.111 125.247 384.869 125.625C384.628 126.003 384.311 126.326 383.939 126.576C383.566 126.826 383.146 126.996 382.705 127.077C382.264 127.157 381.811 127.146 381.375 127.043C380.938 126.941 380.527 126.75 380.168 126.481C379.809 126.213 379.509 125.874 379.286 125.484C379.064 125.095 378.924 124.664 378.876 124.218" fill="#263238"/>
<path d="M345.499 112.038C345.096 113.003 344.327 113.769 343.361 114.167C342.394 114.564 341.309 114.562 340.344 114.16C339.379 113.758 338.614 112.989 338.216 112.022C337.818 111.055 337.82 109.97 338.223 109.005C338.907 107.507 340.528 106.427 340.686 104.784C340.874 102.803 338.849 101.384 337.084 100.519C335.32 99.6549 333.187 98.5311 332.993 96.5428C332.798 94.5546 334.52 93.1354 335.953 91.8532C337.387 90.5709 338.835 88.5826 337.92 86.8753C337.466 85.9964 336.523 85.4994 335.91 84.7141C334.563 82.9996 335.269 80.2694 336.991 78.9511C338.713 77.6328 341.09 77.4239 343.237 77.8057C345.383 78.1875 347.4 79.0808 349.489 79.7075C352.953 80.7145 356.587 80.9924 360.163 80.5237C363.739 80.055 367.179 78.8499 370.265 76.9844" fill="#263238"/>
<path d="M358.257 158.414C361.979 159.165 365.847 158.423 369.026 156.347C372.205 154.272 374.441 151.029 375.251 147.32L385.473 100.452C386.111 97.7457 386.2 94.9389 385.734 92.1977C385.269 89.4564 384.258 86.8363 382.763 84.4924C381.267 82.1484 379.317 80.1282 377.026 78.5511C374.736 76.9741 372.153 75.8722 369.43 75.3108L368.364 75.1523C363.156 74.3867 357.851 75.6111 353.506 78.5815C349.16 81.552 346.093 86.0504 344.915 91.1808C342.639 101.072 340.255 112.029 339.534 117.41C338.043 128.554 348.899 131.911 348.899 131.911L346.947 141.276C346.56 143.142 346.545 145.066 346.904 146.937C347.263 148.809 347.988 150.591 349.037 152.182C350.087 153.772 351.441 155.14 353.02 156.205C354.6 157.271 356.375 158.014 358.243 158.392L358.257 158.414Z" fill="#FFBE9D"/>
<path d="M346.918 98.6219C346.855 99.0355 346.955 99.4574 347.197 99.7988C347.438 100.14 347.803 100.374 348.215 100.452C348.414 100.497 348.62 100.502 348.822 100.467C349.023 100.431 349.215 100.356 349.387 100.245C349.559 100.135 349.707 99.9906 349.822 99.822C349.937 99.6533 350.018 99.4632 350.059 99.263C350.126 98.8499 350.029 98.427 349.788 98.0849C349.547 97.7428 349.181 97.5089 348.769 97.4332C348.57 97.3878 348.363 97.3826 348.161 97.4179C347.959 97.4533 347.767 97.5285 347.594 97.6391C347.422 97.7498 347.273 97.8937 347.157 98.0624C347.041 98.2312 346.96 98.4213 346.918 98.6219Z" fill="#263238"/>
<path d="M346.509 97.0052C346.675 97.2429 348.008 96.5225 349.722 96.7818C351.437 97.0412 352.553 98.0713 352.769 97.8912C352.877 97.812 352.726 97.4086 352.244 96.9331C351.579 96.3123 350.738 95.9122 349.837 95.7877C348.949 95.6536 348.041 95.8049 347.244 96.2199C346.661 96.5513 346.43 96.8971 346.509 97.0052Z" fill="#263238"/>
<path d="M363.624 101.381C363.559 101.795 363.658 102.218 363.9 102.559C364.142 102.901 364.509 103.135 364.921 103.211C365.12 103.256 365.327 103.261 365.529 103.225C365.731 103.189 365.923 103.113 366.095 103.002C366.267 102.89 366.415 102.745 366.53 102.576C366.645 102.406 366.725 102.216 366.765 102.015C366.83 101.602 366.731 101.18 366.488 100.839C366.246 100.498 365.88 100.266 365.468 100.192C365.269 100.146 365.062 100.14 364.861 100.175C364.659 100.21 364.466 100.285 364.294 100.396C364.122 100.507 363.974 100.651 363.859 100.82C363.744 100.99 363.664 101.18 363.624 101.381Z" fill="#263238"/>
<path d="M363.263 99.7621C363.429 99.9927 364.762 99.2795 366.469 99.5388C368.176 99.7982 369.307 100.828 369.523 100.648C369.624 100.569 369.48 100.166 368.99 99.6901C368.326 99.0692 367.485 98.6692 366.584 98.5447C365.696 98.4105 364.788 98.5619 363.991 98.9769C363.436 99.2867 363.177 99.6541 363.263 99.7621Z" fill="#263238"/>
<path d="M355.203 111.532C355.203 111.431 354.188 111.093 352.502 110.624C352.07 110.516 351.673 110.365 351.645 110.055C351.674 109.602 351.84 109.167 352.12 108.809C352.692 107.815 353.285 106.77 353.899 105.675C356.385 101.202 358.222 97.5062 358.07 97.4053C357.919 97.3045 355.729 100.849 353.244 105.33L351.515 108.485C351.166 108.975 350.998 109.571 351.039 110.171C351.084 110.33 351.163 110.477 351.271 110.602C351.38 110.726 351.515 110.825 351.666 110.891C351.897 110.99 352.139 111.06 352.387 111.1C353.304 111.36 354.25 111.506 355.203 111.532Z" fill="#263238"/>
<path d="M363.798 92.9937C363.899 93.4836 365.642 93.5124 367.609 94.0455C369.576 94.5786 371.117 95.3638 371.449 94.9892C371.593 94.8091 371.377 94.3264 370.793 93.7861C370.001 93.106 369.065 92.6156 368.055 92.3522C367.045 92.0887 365.988 92.0593 364.965 92.2661C364.158 92.4534 363.762 92.7992 363.798 92.9937Z" fill="#263238"/>
<path d="M347.862 92.1183C348.106 92.5505 349.302 92.32 350.743 92.5073C352.184 92.6946 353.322 93.1556 353.625 92.7883C353.776 92.6082 353.625 92.1903 353.178 91.7437C352.538 91.2002 351.752 90.8593 350.918 90.7644C350.084 90.6694 349.241 90.8248 348.495 91.2106C347.977 91.5348 347.753 91.9094 347.862 92.1183Z" fill="#263238"/>
<path d="M375.186 86.5426L375.236 86.6003C376.805 88.2567 377.673 90.4562 377.656 92.7379V92.9612C377.656 96.203 377.073 99.4447 377.08 102.65C377.087 105.856 377.707 109.271 379.731 111.792C380.56 112.837 382.173 113.701 383.117 112.765C383.449 112.366 383.662 111.882 383.729 111.367C385.444 103.796 388.527 97.3124 389.687 89.3017C389.848 88.2294 389.751 87.1341 389.404 86.1068C389.056 85.0795 388.47 84.1497 387.691 83.3945C386.193 81.9538 384.327 80.3977 382.332 81.0101C380.336 81.6224 377.419 84.7561 375.755 86.0528" fill="#263238"/>
<path d="M380.986 104.951C381.187 104.893 388.96 103.805 387.599 111.377C386.237 118.948 378.954 116.023 378.954 115.8C378.954 115.576 380.986 104.951 380.986 104.951Z" fill="#FFBE9D"/>
<path d="M381.778 113.337C381.778 113.337 381.894 113.453 382.095 113.59C382.386 113.782 382.739 113.854 383.082 113.791C383.932 113.64 384.833 112.495 385.114 111.133C385.259 110.49 385.259 109.824 385.114 109.181C385.084 108.932 384.994 108.694 384.852 108.487C384.711 108.28 384.521 108.11 384.3 107.992C384.155 107.924 383.992 107.909 383.837 107.95C383.683 107.991 383.548 108.085 383.457 108.216C383.32 108.403 383.341 108.569 383.298 108.569C383.255 108.569 383.161 108.417 383.298 108.115C383.373 107.935 383.508 107.787 383.68 107.697C383.916 107.576 384.19 107.553 384.444 107.632C384.745 107.752 385.011 107.948 385.215 108.2C385.42 108.452 385.556 108.753 385.611 109.073C385.811 109.776 385.838 110.518 385.69 111.234C385.366 112.754 384.328 114.036 383.183 114.159C382.968 114.181 382.752 114.156 382.548 114.083C382.345 114.011 382.161 113.894 382.009 113.741C381.757 113.518 381.749 113.345 381.778 113.337Z" fill="#EB996E"/>
<path d="M382.418 82.2192C384.738 79.4457 380.257 74.331 376.655 72.5949C373.053 70.8587 367.867 71.9681 363.948 72.6597C361.477 73.0991 358.97 73.8483 356.506 73.3801C354.871 72.9709 353.307 72.3176 351.867 71.4422C350.423 70.5826 348.821 70.0216 347.156 69.7926C346.318 69.6895 345.468 69.8169 344.698 70.1609C343.927 70.5049 343.265 71.0525 342.783 71.7448C341.926 73.1856 342.524 75.4404 344.137 75.9086C343.651 75.5394 343.082 75.2937 342.48 75.1926C341.878 75.0915 341.26 75.1379 340.68 75.3279C340.1 75.518 339.574 75.8459 339.149 76.2836C338.723 76.7214 338.41 77.2558 338.236 77.8412C338.062 78.4265 338.033 79.0453 338.151 79.6444C338.269 80.2435 338.531 80.805 338.913 81.2808C339.296 81.7566 339.788 82.1325 340.348 82.3763C340.908 82.62 341.518 82.7243 342.127 82.6802C341.169 81.7005 339.311 82.8171 339.246 84.1858C339.181 85.5546 340.262 86.7144 341.407 87.442C344.368 89.3006 348.128 89.3942 351.572 88.7747C355.015 88.1552 358.314 86.8729 361.743 86.1669C365.172 85.4609 370.928 84.121 374.026 85.7563C376.302 86.9521 377.556 90.0786 379.004 89.6536C379.689 89.401 380.307 88.9921 380.807 88.4594C381.307 87.9268 381.676 87.2849 381.885 86.5847C382.275 85.1789 382.438 83.7197 382.368 82.2624" fill="#263238"/>
<path d="M397.237 117.374C397.378 117.342 397.513 117.283 397.633 117.201C397.989 116.972 398.274 116.648 398.454 116.265C398.734 115.652 398.819 114.968 398.699 114.305C398.512 113.434 398.035 112.651 397.345 112.087C396.526 111.413 395.604 110.875 394.615 110.495C393.502 110.089 392.433 109.572 391.423 108.953C390.365 108.21 389.559 107.162 389.111 105.949C388.619 104.643 388.391 103.252 388.441 101.857C388.513 98.9756 389.313 96.2742 389.507 93.7312C389.702 91.1883 389.377 88.8038 388.297 87.1541C387.484 85.8274 386.196 84.8611 384.695 84.4527C384.293 84.3513 383.877 84.3101 383.463 84.3302C383.319 84.3325 383.176 84.3543 383.038 84.3951C383.585 84.3915 384.13 84.4593 384.659 84.5968C386.086 85.048 387.297 86.0098 388.059 87.2982C389.06 88.8974 389.406 91.2171 389.154 93.7024C388.902 96.1877 388.131 98.8892 388.045 101.85C387.999 103.296 388.244 104.736 388.765 106.086C389.247 107.367 390.109 108.471 391.236 109.248C392.27 109.869 393.363 110.385 394.499 110.79C395.463 111.147 396.365 111.653 397.172 112.288C397.83 112.809 398.296 113.534 398.497 114.349C398.629 114.969 398.569 115.615 398.325 116.2C398.102 116.701 397.719 117.114 397.237 117.374Z" fill="#455A64"/>
<path d="M343.893 75.7747C343.792 75.6989 343.68 75.6383 343.562 75.5946C343.427 75.5282 343.287 75.4728 343.144 75.4289C342.944 75.3607 342.74 75.3101 342.531 75.2776C341.848 75.1698 341.149 75.2189 340.488 75.4211C339.826 75.6233 339.22 75.9733 338.713 76.4446C338.201 77.0694 337.817 77.7896 337.584 78.5637C337.352 79.3378 337.275 80.1504 337.359 80.9543C337.456 81.9528 337.752 82.9218 338.229 83.804C338.707 84.6862 339.357 85.4637 340.14 86.0906C341.94 87.5411 344.132 88.4215 346.436 88.6192C348.937 88.8343 351.457 88.6814 353.914 88.1653C357.809 87.4021 361.54 85.9584 364.935 83.9006C366.391 83.0005 367.913 82.2129 369.488 81.545C370.863 80.9873 372.328 80.6869 373.811 80.6589C375.968 80.6122 378.103 81.1076 380.02 82.0997C380.713 82.4875 381.384 82.9131 382.03 83.3748C381.453 82.808 380.801 82.3233 380.092 81.934C378.17 80.8631 376.003 80.3096 373.803 80.3275C372.284 80.3391 370.78 80.6297 369.366 81.1848C367.774 81.8519 366.235 82.6394 364.762 83.5404C361.391 85.5556 357.696 86.9717 353.841 87.7259C351.421 88.2386 348.938 88.3963 346.472 88.1941C344.239 88.0089 342.111 87.1667 340.356 85.7736C339.601 85.1769 338.973 84.4358 338.508 83.5934C338.043 82.7511 337.75 81.8245 337.647 80.8678C337.559 80.1013 337.623 79.3249 337.836 78.5832C338.049 77.8415 338.406 77.149 338.886 76.5455C339.367 76.087 339.943 75.7412 340.573 75.5332C341.204 75.3251 341.873 75.2599 342.531 75.3425C342.998 75.4445 343.453 75.5892 343.893 75.7747Z" fill="#455A64"/>
<path d="M348.106 69.4307C348.08 70.0096 348.171 70.5877 348.372 71.1308C348.935 72.632 349.985 73.9006 351.355 74.7327C352.275 75.3325 353.299 75.7574 354.373 75.9862C355.606 76.2345 356.868 76.3001 358.119 76.1807C360.763 75.9862 363.529 75.0785 366.432 74.3293C369.336 73.5801 372.239 73.1839 374.746 73.8539C376.971 74.4434 378.949 75.728 380.393 77.5206C381.387 78.7112 382.122 80.0946 382.555 81.5836C382.843 82.6425 382.879 83.2621 382.929 83.2549C382.939 83.1061 382.939 82.9569 382.929 82.8082C382.89 82.3836 382.82 81.9623 382.72 81.5476C382.336 80.0116 381.62 78.5782 380.624 77.3477C379.166 75.4815 377.145 74.1351 374.861 73.5081C372.268 72.7877 369.285 73.1983 366.368 73.9547C363.45 74.7111 360.705 75.6188 358.119 75.8277C356.901 75.9538 355.671 75.9028 354.467 75.6764C353.426 75.4646 352.431 75.0694 351.528 74.5094C350.192 73.7218 349.146 72.5243 348.545 71.0948C348.353 70.5534 348.206 69.9968 348.106 69.4307Z" fill="#455A64"/>
<path d="M351.788 117.197C351.883 117.941 352.079 118.668 352.372 119.358C352.525 119.699 352.748 120.004 353.028 120.252C353.307 120.501 353.636 120.687 353.993 120.799C354.379 120.879 354.779 120.861 355.157 120.746C355.534 120.632 355.877 120.424 356.154 120.143C356.706 119.561 357.062 118.821 357.17 118.026C357.285 117.305 357.17 116.405 356.449 116.174C356.158 116.102 355.854 116.102 355.563 116.174L351.572 116.895" fill="#EB996E"/>
<path d="M352.487 120.288C353.121 120.532 353.795 120.659 354.475 120.662C355.179 120.621 355.842 120.318 356.334 119.812C356.624 119.503 356.845 119.136 356.983 118.735C357.121 118.334 357.172 117.908 357.133 117.486C357.112 117.269 357.063 117.056 356.989 116.852C356.895 116.657 356.924 116.672 356.759 116.65C356.593 116.628 356.334 116.65 356.117 116.686L355.447 116.736C354.583 116.801 353.805 116.852 353.149 116.888C352.431 116.988 351.702 116.973 350.988 116.844C351.662 116.599 352.368 116.453 353.085 116.412C353.733 116.319 354.525 116.225 355.368 116.124L356.031 116.052C356.27 116.017 356.51 115.995 356.751 115.987C356.942 115.992 357.126 116.058 357.277 116.174C357.412 116.293 357.513 116.445 357.573 116.614C357.67 116.873 357.733 117.145 357.76 117.421C357.807 117.939 357.739 118.462 357.561 118.951C357.383 119.441 357.099 119.885 356.73 120.252C356.115 120.836 355.294 121.155 354.446 121.138C353.892 121.14 353.348 120.988 352.876 120.698C352.631 120.497 352.465 120.317 352.487 120.288Z" fill="#263238"/>
<path d="M348.913 131.913C348.913 131.913 356.175 134.665 363.242 132.633C363.242 132.633 357.911 137.107 348.186 135.392L348.913 131.913Z" fill="#EB996E"/>
<path d="M359.993 235.201C359.643 234.972 359.311 234.717 358.999 234.438C358.689 234.186 358.278 233.876 357.839 233.544C357.399 233.213 356.866 232.824 356.254 232.428C355.642 232.032 355.008 231.599 354.266 231.189C353.524 230.778 352.739 230.346 351.896 229.914C348.2 228.095 344.226 226.907 340.139 226.398C339.195 226.297 338.302 226.182 337.459 226.16C336.616 226.139 335.831 226.103 335.118 226.11C334.405 226.117 333.749 226.153 333.18 226.175C332.611 226.196 332.121 226.24 331.739 226.283C331.327 226.346 330.91 226.375 330.493 226.369C330.898 226.265 331.31 226.188 331.725 226.139C332.202 226.057 332.683 225.999 333.166 225.966C333.735 225.923 334.383 225.843 335.111 225.843C335.838 225.843 336.624 225.8 337.474 225.843C338.324 225.887 339.231 225.959 340.182 226.045C342.244 226.302 344.282 226.721 346.277 227.299C348.257 227.907 350.184 228.676 352.04 229.597C352.883 230.043 353.697 230.454 354.41 230.915C355.123 231.376 355.8 231.787 356.391 232.204C356.982 232.622 357.5 233.026 357.954 233.371C358.408 233.717 358.783 234.049 359.078 234.322C359.407 234.589 359.713 234.883 359.993 235.201Z" fill="#FAFAFA"/>
<path d="M317.656 198.207L323.563 172.612C325.825 162.987 328.505 153.738 333.007 152.643V155.618L331.077 228.744C331.077 228.744 319.039 242.431 303.702 234.838C298.904 232.454 290.152 215.705 290.152 215.705C290.152 215.705 269.787 179.369 270.637 177.719C271.487 176.07 283.928 160.034 285.196 159.234L317.656 198.207Z" fill="#CC530E"/>
<path d="M378.445 145.387C390.187 147.635 403.406 154.486 409.493 172.041C411.712 178.453 427.877 225.717 427.877 225.717L400.308 225.141L395.856 215.408L398.017 231.221L399.883 253.769L330.266 254.943L330.755 220.97L331.425 153.398C331.425 153.398 332.203 152.375 344.212 145.755C351.661 141.641 378.445 145.387 378.445 145.387Z" fill="#CC530E"/>
<g opacity="0.2">
<path d="M385.389 190.598C386.535 204.861 387.846 209.27 388.991 223.534C389.018 224.884 389.262 226.222 389.711 227.496C389.952 228.129 390.338 228.697 390.839 229.154C391.339 229.611 391.94 229.943 392.593 230.125C394.624 230.536 397.261 232.005 397.83 230.017L395.907 216.279C395.493 214.281 394.855 212.335 394.005 210.48C389.733 200.993 388.155 200.438 385.36 190.598" fill="black"/>
</g>
<path d="M344.205 153.148L344.436 151.664L346.662 137.429C346.726 137.016 346.944 136.641 347.273 136.382C347.602 136.123 348.016 135.998 348.434 136.032L375.844 138.323C376.672 138.391 377.44 138.783 377.98 139.415C378.519 140.046 378.788 140.866 378.726 141.694L378.114 149.964L369.555 161.13L357.23 163.053" fill="#CC530E"/>
<path d="M330.434 179.87C330.542 179.87 330.622 191.022 330.622 204.774C330.622 218.526 330.542 229.678 330.434 229.678C330.326 229.678 330.247 218.526 330.247 204.774C330.247 191.022 330.334 179.87 330.434 179.87Z" fill="#263238"/>
<path d="M400.899 227.504C400.899 227.504 400.899 227.454 400.813 227.346C400.726 227.237 400.676 227.057 400.582 226.856L399.747 224.961L396.743 217.966L386.953 194.835C385.051 190.311 383.243 186.003 381.6 182.077C380.77 180.238 380.174 178.302 379.828 176.314C379.524 174.577 379.365 172.818 379.353 171.055C379.261 168.5 379.632 165.95 380.447 163.527L380.671 162.929L380.923 162.425C381.041 162.157 381.186 161.901 381.355 161.661L381.658 161.215C381.693 161.164 381.731 161.116 381.773 161.071C381.299 161.867 380.901 162.706 380.584 163.577C379.83 165.995 379.504 168.525 379.619 171.055C379.631 174.812 380.413 178.526 381.917 181.969L387.298 194.712L396.987 217.887L399.869 224.925L400.64 226.848L400.834 227.353C400.861 227.401 400.882 227.452 400.899 227.504Z" fill="#263238"/>
<path d="M386.986 147.994C386.734 148.25 386.467 148.491 386.186 148.715C385.376 149.332 384.493 149.848 383.557 150.249C382.074 150.868 380.521 151.303 378.932 151.546C376.832 151.872 374.716 152.081 372.593 152.172C370.23 152.273 367.651 152.23 364.885 152.28C361.946 152.276 359.019 152.634 356.168 153.347C353.01 154.093 350.152 155.778 347.97 158.18C346.883 159.489 346.105 161.025 345.694 162.676C345.254 164.368 345.284 166.149 345.78 167.826C346.056 168.654 346.462 169.432 346.983 170.131C347.508 170.81 348.171 171.37 348.928 171.774C349.663 172.176 350.5 172.352 351.334 172.278C352.15 172.194 352.906 171.809 353.452 171.198C353.939 170.555 354.286 169.816 354.469 169.031C354.653 168.245 354.67 167.43 354.518 166.638C354.399 165.855 354.155 165.096 353.798 164.39C353.443 163.701 353.015 163.051 352.523 162.452C350.597 160.233 348.004 158.699 345.132 158.08C342.643 157.493 340.049 157.522 337.575 158.166C335.54 158.692 333.597 159.526 331.812 160.637C330.453 161.484 329.171 162.448 327.98 163.518C326.993 164.383 326.294 165.132 325.818 165.622L325.285 166.198C325.227 166.267 325.162 166.33 325.091 166.386C325.939 165.314 326.879 164.318 327.9 163.41C329.08 162.319 330.358 161.34 331.718 160.486C333.52 159.339 335.488 158.479 337.553 157.935C340.068 157.261 342.711 157.216 345.247 157.806C348.193 158.427 350.857 159.993 352.833 162.265C353.336 162.866 353.775 163.518 354.144 164.21C354.507 164.952 354.75 165.747 354.864 166.566C354.99 167.4 354.975 168.25 354.821 169.08C354.666 169.943 354.286 170.751 353.719 171.421C353.113 172.101 352.276 172.53 351.37 172.624C350.462 172.71 349.548 172.522 348.748 172.084C347.944 171.654 347.24 171.06 346.681 170.34C346.131 169.607 345.703 168.79 345.413 167.92C344.895 166.177 344.865 164.326 345.326 162.568C345.747 160.859 346.552 159.27 347.682 157.921C349.917 155.47 352.839 153.75 356.067 152.986C358.95 152.282 361.91 151.938 364.877 151.964C367.651 151.92 370.23 151.964 372.578 151.899C374.693 151.825 376.802 151.635 378.896 151.33C380.475 151.103 382.023 150.692 383.506 150.105C384.437 149.727 385.322 149.243 386.143 148.664C386.431 148.47 386.626 148.29 386.77 148.189C386.835 148.117 386.908 148.052 386.986 147.994Z" fill="#FAFAFA"/>
<path d="M410.808 177.919C410.707 177.947 410.603 177.964 410.498 177.969C410.297 177.969 410.001 178.02 409.612 178.034C408.524 178.07 407.434 178.044 406.349 177.955C404.973 177.854 403.345 177.645 401.544 177.393C399.743 177.141 397.769 176.874 395.68 176.766C393.727 176.66 391.768 176.808 389.852 177.206C388.286 177.524 386.782 178.096 385.4 178.899C384.148 179.664 383.037 180.639 382.115 181.78C382.154 181.684 382.208 181.594 382.274 181.514C382.426 181.259 382.599 181.018 382.792 180.793C383.49 179.941 384.325 179.21 385.263 178.632C386.654 177.782 388.179 177.173 389.773 176.831C391.719 176.406 393.713 176.246 395.702 176.356C397.812 176.464 399.793 176.752 401.594 177.018C403.395 177.285 405.009 177.523 406.37 177.652C407.732 177.782 408.849 177.84 409.612 177.847C410.012 177.846 410.411 177.87 410.808 177.919Z" fill="#FAFAFA"/>
<path d="M393.499 210.241C392.145 209.926 390.752 209.807 389.364 209.888C387.736 209.998 386.125 210.286 384.559 210.745C382.722 211.242 380.669 211.97 378.364 212.683C375.861 213.532 373.241 213.986 370.598 214.03C367.555 214.03 364.544 213.404 361.752 212.193C358.649 210.882 355.889 208.876 353.683 206.329C352.49 204.999 351.518 203.486 350.802 201.849C350.04 200.154 349.754 198.284 349.973 196.439C350.224 194.579 351.131 192.87 352.531 191.619C353.226 191.013 354.06 190.587 354.958 190.38C355.838 190.194 356.749 190.219 357.617 190.453C358.484 190.687 359.284 191.124 359.951 191.727C360.602 192.324 361.054 193.106 361.247 193.968C361.434 194.811 361.366 195.691 361.053 196.496C360.75 197.27 360.291 197.974 359.706 198.564C358.589 199.683 357.238 200.541 355.751 201.078C355.051 201.344 354.327 201.544 353.59 201.676C353.23 201.741 352.869 201.82 352.516 201.87L351.443 202C348.811 202.261 346.153 202.073 343.584 201.445C341.465 200.941 339.422 200.156 337.511 199.111C336.065 198.33 334.71 197.393 333.469 196.316L332.749 195.689L332.158 195.091C331.84 194.79 331.541 194.467 331.265 194.126L330.746 193.507C330.687 193.439 330.634 193.367 330.588 193.291C330.658 193.35 330.723 193.415 330.782 193.485L331.323 194.076C331.608 194.406 331.914 194.719 332.238 195.012L332.835 195.596L333.556 196.208C334.802 197.255 336.157 198.166 337.597 198.924C339.499 199.94 341.526 200.701 343.627 201.186C346.171 201.792 348.799 201.962 351.4 201.69L352.452 201.561C352.804 201.503 353.172 201.424 353.518 201.359C354.238 201.229 354.945 201.031 355.628 200.768C357.067 200.244 358.373 199.41 359.454 198.326C360.005 197.768 360.436 197.104 360.721 196.374C361.004 195.632 361.067 194.824 360.902 194.047C360.688 193.254 360.262 192.534 359.669 191.965C359.076 191.396 358.339 191 357.537 190.82C356.717 190.583 355.849 190.558 355.016 190.749C354.183 190.939 353.412 191.338 352.776 191.907C351.442 193.096 350.58 194.725 350.348 196.496C350.141 198.272 350.415 200.071 351.14 201.705C351.838 203.304 352.781 204.784 353.935 206.092C356.103 208.591 358.814 210.563 361.86 211.855C364.608 213.054 367.571 213.682 370.569 213.699C373.185 213.667 375.781 213.229 378.263 212.402C380.561 211.682 382.585 211.005 384.48 210.522C386.061 210.078 387.687 209.809 389.328 209.722C389.925 209.685 390.524 209.685 391.122 209.722C391.633 209.802 392.073 209.838 392.418 209.917L393.204 210.111C393.308 210.141 393.407 210.184 393.499 210.241Z" fill="#FAFAFA"/>
<path d="M330.201 202.504C330.136 202.504 329.805 201.783 329.106 200.573C327.277 197.502 324.611 195.015 321.419 193.405C320.195 192.786 319.388 192.512 319.41 192.447C319.612 192.465 319.811 192.511 320 192.584C320.525 192.74 321.037 192.933 321.535 193.16C323.185 193.913 324.703 194.927 326.03 196.164C327.359 197.4 328.476 198.846 329.336 200.443C329.609 200.922 329.849 201.418 330.057 201.927C330.13 202.112 330.179 202.306 330.201 202.504Z" fill="#FAFAFA"/>
<path d="M302.25 233.353C302.25 233.353 302.2 233.295 302.135 233.173C302.07 233.05 301.962 232.856 301.839 232.632C301.58 232.157 301.206 231.444 300.745 230.522C299.406 227.919 298.302 225.202 297.445 222.403C296.872 220.459 296.527 218.455 296.415 216.431C296.358 215.301 296.404 214.167 296.552 213.045C296.731 211.858 297.015 210.688 297.402 209.551C298.243 207.093 299.698 204.891 301.631 203.154C302.662 202.208 303.876 201.48 305.197 201.016C306.518 200.551 307.92 200.36 309.317 200.453C310.769 200.562 312.125 201.221 313.106 202.297C313.573 202.829 313.912 203.461 314.098 204.143C314.284 204.826 314.312 205.542 314.18 206.238C314.024 206.92 313.668 207.539 313.157 208.017C312.657 208.474 312.054 208.803 311.399 208.975C310.131 209.305 308.785 209.143 307.631 208.521C306.561 207.944 305.626 207.146 304.887 206.18C304.178 205.286 303.594 204.299 303.151 203.248C302.371 201.362 302.048 199.318 302.207 197.283C302.352 195.604 302.843 193.973 303.648 192.493C304.244 191.375 305.007 190.355 305.91 189.467C306.474 188.904 307.094 188.399 307.761 187.962C307.984 187.81 308.172 187.717 308.294 187.645L308.481 187.551C308.481 187.551 308.251 187.717 307.804 188.026C307.161 188.485 306.561 189.001 306.011 189.568C305.147 190.464 304.419 191.481 303.849 192.586C303.084 194.049 302.625 195.652 302.502 197.298C302.363 199.293 302.699 201.293 303.482 203.133C303.919 204.153 304.491 205.11 305.182 205.978C305.899 206.903 306.802 207.666 307.833 208.219C308.91 208.798 310.166 208.948 311.349 208.637C311.955 208.495 312.511 208.188 312.954 207.751C313.398 207.314 313.712 206.763 313.863 206.158C313.977 205.522 313.947 204.868 313.775 204.244C313.603 203.621 313.293 203.044 312.869 202.556C311.949 201.554 310.681 200.94 309.324 200.842C307.978 200.753 306.628 200.938 305.355 201.385C304.083 201.832 302.914 202.532 301.919 203.443C300.033 205.139 298.608 207.285 297.777 209.681C297.388 210.793 297.101 211.939 296.919 213.103C296.77 214.206 296.719 215.319 296.768 216.431C296.869 218.433 297.198 220.418 297.748 222.345C298.578 225.137 299.638 227.855 300.917 230.471L301.948 232.632C302.056 232.863 302.142 233.05 302.214 233.194C302.286 233.338 302.25 233.353 302.25 233.353Z" fill="#FAFAFA"/>
<path d="M293.352 169.806C293.352 169.806 293.388 169.907 293.417 170.101C293.467 170.392 293.504 170.685 293.525 170.98C293.62 172.056 293.62 173.138 293.525 174.215C293.234 177.798 292.008 181.242 289.971 184.203C287.933 187.165 285.154 189.54 281.912 191.093C280.942 191.567 279.932 191.955 278.894 192.253C278.534 192.368 278.238 192.419 278.044 192.469C277.849 192.519 277.741 192.527 277.741 192.512C278.102 192.357 278.473 192.224 278.851 192.116C279.861 191.766 280.846 191.344 281.797 190.855C284.953 189.261 287.657 186.899 289.661 183.986C291.665 181.073 292.905 177.703 293.265 174.186C293.379 173.124 293.42 172.055 293.388 170.987C293.35 170.595 293.338 170.2 293.352 169.806Z" fill="#FAFAFA"/>
<path d="M417.113 201.031C416.042 201.702 415.1 202.561 414.333 203.566C413.612 204.496 412.892 205.727 412.078 207.024C411.185 208.476 410.155 209.839 409.002 211.094C406.893 213.373 404.392 215.254 401.618 216.648C400.783 217.071 399.922 217.439 399.039 217.751C398.717 217.877 398.384 217.973 398.045 218.039C398.343 217.868 398.657 217.726 398.981 217.614C399.587 217.347 400.465 216.973 401.496 216.411C404.187 214.964 406.621 213.083 408.699 210.842C409.841 209.606 410.865 208.268 411.761 206.844C412.477 205.654 413.259 204.504 414.102 203.401C414.688 202.661 415.386 202.017 416.17 201.492C416.382 201.35 416.606 201.227 416.84 201.124C417.027 201.052 417.113 201.016 417.113 201.031Z" fill="#FAFAFA"/>
<path d="M378.184 146.342C378.079 146.387 377.967 146.416 377.853 146.428L376.895 146.601C376.059 146.738 374.849 146.918 373.358 147.12C370.361 147.523 366.211 147.999 361.608 148.337C359.453 148.534 357.288 148.611 355.125 148.568C353.34 148.524 351.571 148.221 349.873 147.667C348.727 147.296 347.646 146.749 346.667 146.047C346.4 145.859 346.145 145.654 345.904 145.434C345.745 145.276 345.666 145.197 345.673 145.182C345.681 145.168 346.048 145.47 346.747 145.903C347.742 146.542 348.821 147.042 349.952 147.387C351.635 147.898 353.381 148.17 355.139 148.193C357.303 148.216 359.467 148.13 361.623 147.934C366.211 147.595 370.361 147.17 373.358 146.832L376.909 146.428C377.332 146.37 377.758 146.341 378.184 146.342Z" fill="#263238"/>
<path d="M427.55 230.844C428.092 233.631 428.015 236.503 427.323 239.257C426.631 242.01 425.342 244.578 423.547 246.778C421.753 248.977 419.496 250.756 416.937 251.986C414.378 253.216 411.58 253.868 408.741 253.896L354.172 253.291L355.613 235.62L402.337 228.604" fill="#FFBE9D"/>
<path d="M358.957 236.393C358.705 236.472 355.557 235.06 352.733 233.756C349.737 232.368 346.449 231.73 343.152 231.897L330.142 232.56C330.142 232.56 330.941 234.721 332.303 235.442C333.664 236.162 341.826 236.393 341.826 236.393L341.409 236.818C339.702 238.575 337.374 239.594 334.925 239.656H333.679C332.756 239.583 331.845 239.404 330.963 239.123L327.757 237.826C326.785 237.394 325.762 237.459 325.337 238.438C324.912 239.418 325.236 240.542 327.887 241.875C329.364 242.595 334.853 244.518 334.853 244.518C334.891 245.3 334.999 246.076 335.177 246.838C335.415 247.638 337.569 248.437 337.569 248.437C338.129 249.623 338.769 250.768 339.485 251.866C339.737 252.155 341.69 252.767 343.771 253.35C347.128 254.29 350.681 254.262 354.022 253.271L358.979 251.787V236.659" fill="#FFBE9D"/>
<path d="M341.162 246.268C338.87 246.21 336.623 245.618 334.6 244.539C334.6 244.453 336.04 245 337.863 245.469C339.686 245.937 341.17 246.16 341.162 246.268Z" fill="#AA6550"/>
<path d="M340.703 249.278C340.092 249.405 339.458 249.357 338.873 249.141C338.262 249.028 337.693 248.749 337.23 248.334C337.82 248.452 338.398 248.618 338.959 248.831C339.551 248.935 340.134 249.085 340.703 249.278Z" fill="#AA6550"/>
<path d="M343.079 235.268C342.794 235.668 342.458 236.029 342.078 236.341C341.215 237.165 340.263 237.89 339.239 238.502C338.208 239.104 337.087 239.537 335.918 239.784C335.449 239.91 334.963 239.963 334.478 239.943C336.088 239.573 337.642 238.994 339.102 238.221C340.103 237.618 341.055 236.936 341.948 236.183C342.297 235.845 342.676 235.538 343.079 235.268Z" fill="#AA6550"/>
<path d="M360.283 234.072L358.958 254.055H410.357C413.847 254.058 417.272 253.109 420.263 251.311C423.648 249.277 426.324 246.249 427.928 242.64C429.531 239.031 429.984 235.016 429.224 231.14C428.485 227.345 427.375 223.632 425.91 220.054L400.063 224.311L400.892 227.524L360.283 234.072Z" fill="#CC530E"/>
<path d="M412.799 225.778C412.629 225.827 412.455 225.866 412.28 225.893L410.775 226.167L405.221 227.089L386.952 229.971L368.661 232.773L363.114 233.58L361.601 233.782C361.425 233.806 361.247 233.821 361.068 233.825C361.239 233.765 361.415 233.724 361.594 233.702L363.093 233.436L368.625 232.506L386.894 229.625L405.221 226.801L410.768 225.994L412.28 225.793C412.452 225.769 412.626 225.765 412.799 225.778Z" fill="#263238"/>
<path d="M386.487 253.995C386.393 253.995 386.797 252.554 386.847 250.198C386.858 249.559 386.832 248.919 386.768 248.282C386.706 247.556 386.6 246.834 386.451 246.121C386.094 244.477 385.533 242.885 384.78 241.381C384.009 239.884 383.066 238.482 381.97 237.203L381.25 236.36C381.005 236.086 380.738 235.848 380.494 235.603C380.011 235.106 379.499 234.71 379.053 234.328C377.216 232.888 375.912 232.167 375.955 232.102C376.274 232.23 376.58 232.387 376.87 232.571C377.229 232.758 377.575 232.967 377.907 233.197C378.289 233.471 378.765 233.738 379.218 234.127C379.737 234.515 380.233 234.934 380.702 235.38C380.955 235.625 381.236 235.856 381.488 236.101L382.273 236.951C383.401 238.238 384.369 239.658 385.154 241.179C385.917 242.714 386.479 244.341 386.826 246.02C386.973 246.755 387.07 247.498 387.114 248.246C387.16 248.894 387.16 249.544 387.114 250.191C387.1 250.729 387.052 251.266 386.97 251.798C386.93 252.199 386.86 252.596 386.761 252.986C386.699 253.33 386.607 253.667 386.487 253.995Z" fill="#FAFAFA"/>
<path d="M417.782 252.574C416.979 252.569 416.179 252.475 415.397 252.293C414.476 252.082 413.581 251.765 412.732 251.349C411.606 250.789 410.589 250.033 409.728 249.116C408.684 247.992 407.925 246.633 407.516 245.154C407.289 244.332 407.161 243.485 407.135 242.633C407.083 241.731 407.155 240.827 407.351 239.946C407.543 239.007 407.905 238.111 408.417 237.302C408.952 236.443 409.695 235.734 410.578 235.241C411.491 234.709 412.541 234.458 413.597 234.521C414.139 234.559 414.668 234.706 415.152 234.953C415.636 235.201 416.065 235.544 416.413 235.962C416.773 236.374 417.044 236.856 417.207 237.378C417.371 237.9 417.424 238.451 417.364 238.995C417.276 239.522 417.071 240.024 416.764 240.462C416.458 240.901 416.057 241.266 415.592 241.53C413.848 242.444 411.84 242.719 409.915 242.308C407.183 241.883 404.685 240.515 402.855 238.441C401.025 236.368 399.978 233.72 399.895 230.955C399.849 230.152 399.917 229.347 400.097 228.564C400.03 229.357 400.011 230.153 400.039 230.948C400.173 233.116 400.882 235.21 402.092 237.014C402.994 238.338 404.157 239.464 405.51 240.322C406.862 241.181 408.376 241.754 409.959 242.006C411.798 242.401 413.718 242.147 415.39 241.285C415.808 241.049 416.168 240.723 416.445 240.331C416.722 239.938 416.908 239.489 416.99 239.016C417.032 238.523 416.977 238.027 416.827 237.555C416.677 237.083 416.436 236.646 416.116 236.268C415.797 235.89 415.406 235.578 414.967 235.352C414.527 235.125 414.046 234.987 413.553 234.946C412.576 234.88 411.602 235.103 410.751 235.587C409.951 236.066 409.263 236.711 408.734 237.479C408.206 238.247 407.85 239.121 407.689 240.039C407.494 240.894 407.419 241.772 407.466 242.647C407.486 243.472 407.604 244.292 407.819 245.089C408.199 246.529 408.92 247.856 409.923 248.958C410.746 249.862 411.721 250.615 412.804 251.184C413.634 251.608 414.509 251.939 415.412 252.17C416.925 252.509 417.789 252.523 417.782 252.574Z" fill="#FAFAFA"/>
<path d="M213.896 34.8634H85.1708C77.647 34.8634 70.4313 37.8522 65.1111 43.1724C59.7909 48.4925 56.8021 55.7082 56.8021 63.232V109.106H29.0312L56.8021 136.876V168.062C56.8021 175.585 59.7909 182.801 65.1111 188.121C70.4313 193.441 77.647 196.43 85.1708 196.43H213.896C221.42 196.43 228.636 193.441 233.956 188.121C239.276 182.801 242.265 175.585 242.265 168.062V63.232C242.265 55.7082 239.276 48.4925 233.956 43.1724C228.636 37.8522 221.42 34.8634 213.896 34.8634Z" fill="#00C49A"/>
<path d="M161.308 39.6486C160.494 41.7593 161.891 44.0574 163.469 45.6854C165.047 47.3135 166.934 48.8551 167.431 51.0595C167.842 52.9109 167.157 54.8343 167.323 56.7217C167.489 58.6091 168.533 60.3885 169.124 62.2326C170.197 65.5752 169.765 69.2276 168.807 72.6062C168.116 75.4137 166.796 78.0274 164.946 80.2494C164.014 81.35 162.859 82.2402 161.558 82.8611C160.256 83.482 158.838 83.8196 157.396 83.8514C156.989 83.877 156.58 83.8186 156.196 83.6798C155.812 83.541 155.46 83.3248 155.163 83.0445C154.759 82.4617 154.536 81.7726 154.522 81.0635C152.872 66.5585 152.872 51.9132 154.522 37.4082" fill="#263238"/>
<path d="M159.789 86.4435C166.056 86.1697 171.848 92.1705 171.351 98.4234C177.698 99.9723 182.157 106.953 180.939 113.364C180.529 115.482 179.585 117.499 179.456 119.646C179.311 121.994 180.176 124.278 180.601 126.583C181.417 130.785 180.981 135.133 179.347 139.089C178.361 141.473 176.516 143.937 173.937 144.009C173.064 143.972 172.212 143.721 171.459 143.278C170.705 142.834 170.072 142.212 169.615 141.466C168.717 139.956 168.125 138.285 167.872 136.546C166.755 130.913 166.431 125.128 164.875 119.603C163.319 114.077 160.293 108.631 155.301 105.829C152.542 104.273 149.228 103.538 147.031 101.255C145.926 100.008 145.189 98.479 144.903 96.8379C144.616 95.1969 144.792 93.5086 145.41 91.9616C146.058 90.4286 147.021 89.0492 148.238 87.9135C149.454 86.7777 150.896 85.9111 152.47 85.3701" fill="#263238"/>
<path d="M116.407 44.8567C116.335 42.1769 118.805 40.1094 121.298 39.0937C123.791 38.0779 126.564 37.7393 128.783 36.2121C130.757 34.8866 132.075 32.8191 133.739 31.1694C135.794 29.0856 138.366 27.5862 141.192 26.8252C144.018 26.0641 146.996 26.0689 149.819 26.8389C152.642 27.6089 155.21 29.1165 157.258 31.2068C159.306 33.2972 160.761 35.8949 161.474 38.7335C162.432 42.5443 161.776 47.0539 158.772 49.5896C155.286 52.5288 150.128 51.8732 145.64 50.9584C141.152 50.0435 136.109 49.143 132.377 51.7724C130.13 53.35 128.833 55.929 127.457 58.3135C126.081 60.6979 124.36 63.1256 121.759 64.0261C119.158 64.9266 115.621 63.3706 115.521 60.6259" fill="#263238"/>
<path d="M126.967 45.4082C125.852 45.5288 124.822 46.0634 124.082 46.9064C123.342 47.7494 122.945 48.8394 122.969 49.961L125.642 110.473C125.757 117.619 136.203 121.632 143.853 121.452C151.583 121.272 151.828 117.482 151.929 110.682C152.087 99.3288 152.073 95.0641 152.08 95.129C152.087 95.1938 161.841 93.4865 163.837 80.7213C164.824 74.3892 164.485 64.0013 163.93 55.5079C163.433 47.8647 158.347 38.4997 150.733 39.321L126.967 45.4082Z" fill="#FFBE9D"/>
<path d="M161.73 63.5022C161.734 63.9273 161.572 64.3374 161.279 64.6454C160.986 64.9533 160.584 65.135 160.159 65.1518C159.954 65.1696 159.747 65.1462 159.55 65.0831C159.354 65.02 159.172 64.9185 159.015 64.7844C158.858 64.6503 158.729 64.4864 158.637 64.3021C158.544 64.1178 158.488 63.9169 158.474 63.7111C158.468 63.2854 158.629 62.8743 158.923 62.5659C159.216 62.2575 159.619 62.0764 160.044 62.0614C160.25 62.0437 160.457 62.0671 160.653 62.1301C160.85 62.1932 161.032 62.2948 161.189 62.4288C161.346 62.5629 161.474 62.7269 161.567 62.9111C161.66 63.0954 161.715 63.2963 161.73 63.5022Z" fill="#263238"/>
<path d="M161.689 60.8867C161.488 61.1028 160.249 60.1663 158.491 60.1663C156.733 60.1663 155.444 61.0596 155.249 60.8435C155.155 60.7498 155.364 60.3608 155.926 59.9502C156.685 59.4221 157.588 59.1427 158.512 59.1506C159.427 59.1452 160.32 59.4302 161.063 59.9646C161.603 60.3896 161.79 60.793 161.689 60.8867Z" fill="#263238"/>
<path d="M144.84 63.5022C144.844 63.9273 144.683 64.3374 144.389 64.6454C144.096 64.9533 143.695 65.135 143.27 65.1518C143.064 65.1696 142.857 65.1462 142.661 65.0831C142.464 65.02 142.282 64.9185 142.125 64.7844C141.968 64.6503 141.84 64.4864 141.747 64.3021C141.654 64.1178 141.599 63.9169 141.584 63.7111C141.578 63.2854 141.739 62.8743 142.033 62.5659C142.326 62.2575 142.729 62.0764 143.155 62.0614C143.36 62.0437 143.567 62.0671 143.764 62.1301C143.96 62.1932 144.142 62.2948 144.299 62.4288C144.456 62.5629 144.585 62.7269 144.678 62.9111C144.77 63.0954 144.826 63.2963 144.84 63.5022Z" fill="#263238"/>
<path d="M144.442 61.2658C144.241 61.4819 143.002 60.5454 141.244 60.5454C139.486 60.5454 138.197 61.4387 138.009 61.2226C137.916 61.1289 138.117 60.7399 138.679 60.3293C139.437 59.8 140.341 59.5181 141.265 59.5225C142.181 59.5192 143.074 59.8068 143.816 60.3437C144.32 60.7832 144.507 61.1722 144.442 61.2658Z" fill="#263238"/>
<path d="M150.817 74.3172C150.817 74.2164 151.897 74.0291 153.698 73.7985C154.145 73.7481 154.57 73.6545 154.649 73.3519C154.682 72.8875 154.577 72.4238 154.346 72.0192L153.007 68.6046C151.155 63.742 149.808 59.7439 150.01 59.6719C150.211 59.5998 151.868 63.4827 153.72 68.3164L155.002 71.7527C155.281 72.2937 155.365 72.9146 155.24 73.5104C155.176 73.6675 155.079 73.8085 154.954 73.9232C154.83 74.0378 154.681 74.1232 154.519 74.1731C154.285 74.2378 154.042 74.2717 153.799 74.274C151.926 74.4037 150.824 74.4181 150.817 74.3172Z" fill="#263238"/>
<path d="M152.081 95.1252C146.082 95.2287 140.171 93.6651 135.008 90.6084C135.008 90.6084 139.164 99.3539 151.915 98.1292L152.081 95.1252Z" fill="#EB996E"/>
<path d="M150.084 78.6093C149.745 78.1831 149.302 77.8517 148.797 77.6473C148.292 77.4428 147.743 77.3722 147.203 77.4423C146.815 77.4771 146.438 77.5901 146.095 77.7746C145.752 77.9591 145.45 78.2112 145.207 78.5157C144.973 78.8095 144.835 79.1683 144.812 79.5434C144.788 79.9184 144.881 80.2915 145.077 80.612C145.359 80.9284 145.73 81.1526 146.141 81.2553C146.552 81.3581 146.985 81.3348 147.383 81.1883C148.212 80.8935 148.974 80.4354 149.623 79.8412C149.823 79.7019 149.994 79.5258 150.127 79.3225C150.193 79.2258 150.228 79.1116 150.228 78.9947C150.228 78.8779 150.193 78.7637 150.127 78.667" fill="#EB996E"/>
<path d="M145.647 75.6076C145.935 75.6076 145.943 77.5022 147.578 78.8493C149.213 80.1964 151.245 79.9875 151.259 80.2901C151.259 80.4125 150.805 80.6647 149.948 80.6863C148.83 80.7066 147.741 80.3316 146.872 79.6273C146.041 78.9473 145.506 77.9709 145.381 76.9043C145.302 76.0614 145.518 75.6076 145.647 75.6076Z" fill="#263238"/>
<path d="M145.164 58.2352C144.991 58.7178 143.234 58.4945 141.173 58.7466C139.113 58.9988 137.442 59.5679 137.168 59.1356C137.046 58.9339 137.334 58.4801 138.004 58.0191C138.898 57.4441 139.912 57.0805 140.968 56.9556C142.024 56.8308 143.094 56.9481 144.098 57.2987C144.883 57.6373 145.265 58.0119 145.164 58.2352Z" fill="#263238"/>
<path d="M161.013 55.8727C160.703 56.2689 159.493 55.8727 158.031 55.8727C156.568 55.8727 155.344 56.1464 155.063 55.7286C154.933 55.5269 155.127 55.1307 155.668 54.7489C156.391 54.2966 157.231 54.0682 158.084 54.0926C158.936 54.1169 159.762 54.3929 160.458 54.8858C161.013 55.2676 161.164 55.6782 161.013 55.8727Z" fill="#263238"/>
<path d="M118.07 87.3513C119.827 87.7064 121.643 87.6388 123.368 87.154C125.093 86.6692 126.678 85.7812 127.993 84.5631C129.307 83.3451 130.313 81.832 130.928 80.1486C131.542 78.4652 131.748 76.6599 131.527 74.8815C131.131 71.7478 129.445 68.5709 130.533 65.6029C131.974 61.6913 137.456 60.4882 138.911 56.5766C139.754 54.3074 138.998 51.6492 139.956 49.4232C140.856 47.3341 143.061 46.131 145.207 45.353C147.354 44.575 149.645 44.0419 151.446 42.6444C153.247 41.2469 154.363 38.6103 153.204 36.6436C143.689 37.7851 134.345 40.0559 125.368 43.408C123.286 44.186 121.103 45.1225 119.871 46.9667C118.575 48.9261 118.64 51.4475 118.748 53.7959C119.281 65.2356 117.537 75.9476 118.07 87.3873" fill="#263238"/>
<path d="M115.037 83.7608C114.964 83.75 114.894 83.7281 114.828 83.696C114.622 83.6243 114.426 83.5275 114.245 83.4078C113.543 82.9539 112.991 82.3021 112.66 81.5348C112.115 80.3221 111.968 78.9676 112.242 77.6664C112.676 75.9759 113.464 74.397 114.554 73.0343C115.671 71.4783 117.09 69.9007 118.055 67.8908C118.57 66.8695 118.858 65.7488 118.898 64.6059C118.857 63.3926 118.613 62.1948 118.178 61.0616C117.692 59.8364 117.436 58.5325 117.421 57.2147C117.491 55.8047 117.905 54.4333 118.627 53.2202C119.349 52.0071 120.357 50.9894 121.564 50.2558C122.857 49.55 124.292 49.1415 125.763 49.06C127.187 48.9902 128.598 48.7483 129.963 48.3396C131.246 47.8541 132.299 46.9057 132.917 45.6814C133.505 44.477 133.973 43.2174 134.314 41.921C134.679 40.6772 135.161 39.4711 135.755 38.3191C136.838 36.135 138.488 34.2816 140.531 32.9522C142.336 31.8178 144.447 31.2692 146.575 31.3818C148.338 31.473 150.018 32.1615 151.337 33.334C152.321 34.2184 153.054 35.3465 153.462 36.6046C153.728 37.3921 153.828 38.2258 153.757 39.0539C153.743 39.3419 153.694 39.6272 153.613 39.9039C153.613 39.9039 153.664 39.6086 153.685 39.0467C153.72 38.2314 153.598 37.417 153.325 36.6478C152.829 35.2321 151.919 33.9984 150.713 33.1068C149.506 32.2152 148.06 31.707 146.561 31.6483C144.491 31.5572 142.444 32.1055 140.697 33.2188C138.708 34.5256 137.106 36.3415 136.058 38.4776C135.476 39.6299 135.008 40.8362 134.66 42.0795C134.308 43.3993 133.826 44.6807 133.219 45.9047C132.885 46.5381 132.45 47.1124 131.93 47.6048C131.392 48.1025 130.76 48.4871 130.071 48.7358C128.668 49.1684 127.216 49.4249 125.749 49.4994C124.331 49.5741 122.948 49.9655 121.701 50.6448C120.547 51.3444 119.583 52.3153 118.891 53.4729C118.199 54.6306 117.801 55.9399 117.731 57.2868C117.744 58.5639 117.988 59.8282 118.452 61.0183C118.91 62.1863 119.166 63.4239 119.208 64.6779C119.159 65.8671 118.855 67.0318 118.315 68.0925C117.306 70.1528 115.873 71.6944 114.749 73.2577C113.664 74.5818 112.873 76.1214 112.429 77.7744C112.142 79.0322 112.261 80.3486 112.768 81.5348C113.079 82.2907 113.599 82.9426 114.266 83.415C114.749 83.66 115.044 83.732 115.037 83.7608Z" fill="#455A64"/>
<path d="M152.056 28.2012C152.231 28.2141 152.401 28.2658 152.553 28.3525C152.986 28.5359 153.39 28.7783 153.756 29.0728C155.011 30.0467 155.843 31.4668 156.078 33.038C156.312 34.6091 155.932 36.2103 155.017 37.5085C154.751 37.8954 154.436 38.2465 154.08 38.5531C153.821 38.7692 153.663 38.8628 153.648 38.8412C154.054 38.3809 154.437 37.9 154.794 37.4005C155.605 36.1346 155.931 34.6173 155.71 33.1298C155.489 31.6423 154.736 30.2854 153.591 29.3106C153.101 28.9115 152.589 28.5411 152.056 28.2012Z" fill="#455A64"/>
<path d="M180.281 115.569C180.433 115.126 180.555 114.673 180.648 114.215C180.817 112.957 180.598 111.678 180.021 110.548C179.133 108.889 177.719 107.571 176.002 106.802C174.997 106.326 173.947 105.952 172.868 105.685C171.744 105.397 170.556 105.159 169.367 104.77C168.171 104.444 167.068 103.842 166.147 103.013C165.322 102.187 164.788 101.114 164.627 99.9581C164.432 98.8848 164.368 97.869 164.13 96.9613C163.917 96.1216 163.521 95.3393 162.97 94.6705C162.164 93.6908 161.094 92.9632 159.887 92.5742C159.03 92.3149 158.518 92.3149 158.518 92.2716C158.64 92.2595 158.763 92.2595 158.885 92.2716C159.238 92.296 159.587 92.3514 159.93 92.4373C161.193 92.7858 162.323 93.5061 163.172 94.5048C163.765 95.1954 164.196 96.0102 164.432 96.8893C164.692 97.833 164.771 98.8631 164.973 99.9005C165.121 100.994 165.628 102.007 166.413 102.782C167.297 103.566 168.35 104.136 169.489 104.446C170.649 104.821 171.838 105.066 172.969 105.361C174.062 105.629 175.125 106.01 176.139 106.499C177.913 107.312 179.36 108.7 180.245 110.44C180.822 111.621 181.008 112.956 180.778 114.251C180.709 114.596 180.6 114.932 180.454 115.252C180.407 115.363 180.349 115.469 180.281 115.569Z" fill="#455A64"/>
<path d="M124.871 93.087C118.388 91.358 112.841 85.0403 110.579 78.7514C108.317 72.4625 108.317 65.5973 108.901 58.9409C109.318 54.1216 110.168 49.0213 113.367 45.3906C118.194 39.9157 123.452 37.1206 130.714 37.3512" fill="#263238"/>
<path d="M162.547 107.106L156.532 105.594C157.188 105.143 157.666 104.478 157.884 103.712C158.103 102.947 158.047 102.13 157.728 101.401C157.347 100.467 156.717 99.6549 155.907 99.0541C155.096 98.4532 154.137 98.0864 153.132 97.9935L125.714 94.8959C125.235 94.832 124.748 94.9307 124.331 95.1762C123.915 95.4218 123.593 95.7999 123.416 96.2502C122.201 99.3431 122.16 101.888 123.294 103.886H123.164L117.877 104.938L108.915 183.993L167.612 181.248L162.547 107.106Z" fill="#F5F5F5"/>
<path d="M153.916 105.913C153.556 106.019 153.187 106.091 152.814 106.13C152.093 106.245 151.063 106.367 149.781 106.497C143.07 107.12 136.305 106.783 129.69 105.496C128.422 105.243 127.406 105.013 126.707 104.826C126.34 104.755 125.981 104.648 125.634 104.509C126.006 104.536 126.375 104.596 126.736 104.689C127.456 104.826 128.472 105.02 129.74 105.236C136.349 106.373 143.071 106.707 149.759 106.23C151.042 106.144 152.079 106.05 152.799 105.978C153.169 105.927 153.543 105.906 153.916 105.913Z" fill="#263238"/>
<path d="M127.385 118.483C127.963 117.283 128.65 116.14 129.438 115.068C130.126 113.928 130.92 112.854 131.808 111.862C131.23 113.062 130.54 114.206 129.748 115.277C129.064 116.418 128.273 117.491 127.385 118.483Z" fill="#E0E0E0"/>
<path d="M146.303 119.8C144.472 117.92 142.824 115.87 141.383 113.677C142.343 114.575 143.216 115.561 143.991 116.623C144.862 117.605 145.637 118.669 146.303 119.8Z" fill="#E0E0E0"/>
<path d="M137.513 129.817C137.099 128.536 136.803 127.219 136.627 125.884C136.327 124.571 136.156 123.232 136.116 121.886C136.531 123.167 136.828 124.484 137.002 125.819C137.293 127.133 137.465 128.472 137.513 129.817Z" fill="#E0E0E0"/>
<path d="M151.957 130.506C150.94 131.771 149.827 132.956 148.629 134.05C147.516 135.235 146.311 136.331 145.027 137.328C146.044 136.063 147.156 134.878 148.355 133.784C149.473 132.603 150.677 131.507 151.957 130.506Z" fill="#E0E0E0"/>
<path d="M132.586 143.886C129.932 142.299 127.769 140.008 126.34 137.265C126.441 137.2 127.543 138.929 129.279 140.752C131.016 142.575 132.658 143.792 132.586 143.886Z" fill="#E0E0E0"/>
<path d="M138.809 154.364C138.809 154.472 137.167 154.998 135.265 156.014C133.363 157.03 131.973 158.096 131.901 158.002C132.808 157.031 133.891 156.242 135.092 155.675C136.235 155.002 137.497 154.557 138.809 154.364Z" fill="#E0E0E0"/>
<path d="M148.931 154.98C148.502 154.616 148.117 154.202 147.786 153.748C147.123 152.955 146.237 151.824 145.315 150.535C144.393 149.245 143.615 148.042 143.075 147.149C142.753 146.687 142.487 146.189 142.282 145.665C142.665 146.076 143.006 146.525 143.298 147.005L145.625 150.319L147.995 153.589C148.355 154.018 148.669 154.484 148.931 154.98Z" fill="#E0E0E0"/>
<path d="M149.946 163.922C148.546 164.413 147.097 164.751 145.624 164.93C144.167 165.234 142.682 165.382 141.194 165.37C142.633 165.008 144.093 164.739 145.567 164.563C147.013 164.263 148.475 164.049 149.946 163.922Z" fill="#E0E0E0"/>
<path d="M133.558 104.733C133.508 104.733 133.854 104.3 134.149 103.537C134.515 102.538 134.624 101.463 134.466 100.41C134.287 99.3499 133.975 98.3163 133.537 97.3343C133.324 96.9323 133.16 96.5067 133.047 96.0664C133.348 96.4118 133.591 96.8034 133.767 97.2262C134.291 98.2024 134.649 99.259 134.826 100.353C135 101.469 134.848 102.613 134.387 103.645C134.226 104.082 133.937 104.461 133.558 104.733Z" fill="#E0E0E0"/>
<path d="M144.523 98.8994C145.036 99.6067 145.403 100.409 145.603 101.26C145.802 102.112 145.829 102.994 145.682 103.856C145.574 103.856 145.56 102.71 145.236 101.349C144.912 99.9872 144.443 98.957 144.523 98.8994Z" fill="#E0E0E0"/>
<path d="M193.977 155.178L221.279 107.222L224.571 98.9011C224.571 98.9011 233.086 80.6034 233.677 78.7304C234.362 76.5692 235.565 76.3963 236.343 76.6989C237.553 77.1816 237.942 78.9825 237.409 80.8483C237.221 81.4895 233.915 91.546 233.915 91.546C234.804 90.7795 235.748 90.0789 236.739 89.4497C238.835 88.0089 242.675 88.081 246.233 89.3488C249.792 90.6167 250.671 91.2867 250.246 92.6842C250.152 92.9465 250 93.1844 249.802 93.3802C249.604 93.5759 249.364 93.7246 249.101 93.8152C248.263 94.1652 247.324 94.1858 246.471 93.8729C240.751 91.9278 238.216 94.5068 238.216 94.5068L237.791 95.5946C237.791 95.5946 242.113 94.2186 244.533 96.1637C244.895 96.4492 245.198 96.8013 245.427 97.201C246.21 97.4569 246.913 97.9129 247.466 98.5238C248.019 99.1347 248.403 99.8795 248.58 100.684C248.756 101.489 248.72 102.326 248.474 103.113C248.228 103.899 247.781 104.608 247.177 105.168C246.915 105.468 246.568 105.68 246.182 105.778C245.796 105.876 245.389 105.854 245.016 105.716C244.667 105.478 244.386 105.153 244.202 104.772C244.085 104.582 243.952 104.401 243.806 104.232L242.178 107.114C242.178 107.114 238.165 113.381 236.724 116.313L217.922 166.401C217.304 168.05 216.364 169.559 215.156 170.841C213.948 172.122 212.497 173.15 210.887 173.864C209.277 174.578 207.542 174.965 205.781 175.001C204.021 175.036 202.27 174.721 200.633 174.073C198.866 173.376 197.27 172.307 195.952 170.939C194.634 169.571 193.625 167.936 192.994 166.144C192.363 164.352 192.124 162.446 192.294 160.554C192.463 158.662 193.037 156.828 193.977 155.178Z" fill="#FFBE9D"/>
<path d="M223.16 107.046C224.125 107.68 225.458 107.248 226.322 106.499C227.187 105.749 227.763 104.719 228.599 103.905C231.026 101.478 235.082 101.247 237.409 98.7041C237.733 98.3511 238.021 97.8108 237.74 97.4218C237.459 97.0328 236.941 97.1048 236.508 97.1913L225.335 99.4029" fill="#FFBE9D"/>
<path d="M225.336 99.3829C225.713 99.2123 226.11 99.0913 226.518 99.0227C227.289 98.8282 228.412 98.5761 229.796 98.3023L234.665 97.2722L236.106 96.9768C236.661 96.7737 237.273 96.7943 237.813 97.0344C237.968 97.1487 238.084 97.3064 238.148 97.4874C238.213 97.6683 238.221 97.8642 238.174 98.0502C238.099 98.3553 237.951 98.6374 237.741 98.8714C237.365 99.2881 236.942 99.6603 236.481 99.9808C234.622 101.27 232.583 101.796 230.955 102.653C230.179 103.02 229.464 103.507 228.837 104.094C228.261 104.649 227.807 105.283 227.332 105.823C226.99 106.3 226.547 106.696 226.036 106.983C225.524 107.271 224.956 107.443 224.371 107.487C223.514 107.487 223.161 107.062 223.19 107.055C223.565 107.184 223.96 107.245 224.357 107.235C224.888 107.147 225.395 106.95 225.847 106.656C226.298 106.362 226.683 105.978 226.979 105.528C227.44 104.898 227.933 104.292 228.456 103.712C229.109 103.065 229.86 102.525 230.682 102.113C232.36 101.205 234.392 100.672 236.106 99.4477C236.519 99.1543 236.901 98.8187 237.244 98.4464C237.561 98.0934 237.669 97.6684 237.446 97.5459C237.223 97.4234 236.726 97.4811 236.229 97.5819L234.788 97.8485L229.889 98.7489C228.492 98.9939 227.361 99.1812 226.575 99.2964C226.169 99.39 225.751 99.4191 225.336 99.3829Z" fill="#EB996E"/>
<path d="M237.641 95.5935C237.927 94.9248 238.366 94.3326 238.923 93.8646C239.546 93.397 240.305 93.1442 241.084 93.1442C242.063 93.1501 243.036 93.3105 243.965 93.6196C244.915 93.9401 245.895 94.1621 246.89 94.2824C247.725 94.3783 248.571 94.249 249.34 93.9078C249.604 93.7859 249.836 93.6038 250.017 93.3762C250.199 93.1485 250.324 92.8816 250.384 92.5967C250.439 92.3962 250.439 92.1848 250.384 91.9844C250.341 91.9844 250.341 92.2005 250.233 92.5607C250.154 92.8035 250.022 93.026 249.848 93.2126C249.674 93.3993 249.461 93.5456 249.224 93.6413C248.491 93.9138 247.702 94.0028 246.926 93.9006C245.96 93.7486 245.01 93.5074 244.088 93.1802C243.126 92.8635 242.118 92.7078 241.106 92.7192C240.255 92.739 239.436 93.0434 238.779 93.5836C238.343 93.9464 238.008 94.4153 237.806 94.9451C237.626 95.3702 237.612 95.5863 237.641 95.5935Z" fill="#EB996E"/>
<path d="M237.604 80.1515C237.321 80.7959 237.095 81.4636 236.927 82.1469C236.502 83.5301 235.997 85.1725 235.436 86.9879C234.874 88.8033 234.319 90.4313 233.872 91.8072C233.612 92.4599 233.412 93.1351 233.274 93.8243C233.632 93.2175 233.927 92.5754 234.153 91.9081C234.629 90.6978 235.234 89.0266 235.839 87.1176C236.444 85.2085 236.912 83.5157 237.215 82.2262C237.417 81.5502 237.548 80.8548 237.604 80.1515Z" fill="#EB996E"/>
<path d="M239.181 98.5891C239.4 98.6207 239.624 98.6207 239.843 98.5891C240.12 98.5419 240.403 98.5547 240.674 98.6268C240.945 98.6989 241.197 98.8286 241.414 99.0069C241.539 99.1391 241.628 99.3014 241.672 99.4781C241.716 99.6548 241.714 99.8398 241.666 100.015C241.55 100.458 241.378 100.884 241.155 101.283C240.866 101.784 240.771 102.374 240.888 102.94C240.986 103.24 241.154 103.513 241.376 103.737C241.599 103.961 241.871 104.13 242.17 104.23C242.466 104.323 242.777 104.356 243.086 104.325C243.394 104.294 243.693 104.2 243.964 104.05C244.468 103.792 244.883 103.388 245.153 102.89C245.542 102.069 245.809 101.195 245.945 100.296C246.05 99.6934 246.05 99.0768 245.945 98.4738C245.922 98.2473 245.835 98.0322 245.693 97.8543C245.657 97.8543 245.751 98.0848 245.787 98.4954C245.817 99.0831 245.766 99.6723 245.635 100.246C245.464 101.098 245.184 101.923 244.8 102.702C244.565 103.141 244.192 103.49 243.739 103.694C243.285 103.899 242.777 103.948 242.293 103.833C242.055 103.757 241.839 103.626 241.662 103.451C241.484 103.275 241.35 103.061 241.27 102.825C241.176 102.354 241.255 101.866 241.493 101.449C241.717 101.013 241.887 100.551 241.997 100.073C242.046 99.8444 242.035 99.6071 241.965 99.3839C241.896 99.1607 241.771 98.959 241.601 98.798C241.351 98.5998 241.058 98.4627 240.745 98.3977C240.432 98.3327 240.109 98.3415 239.8 98.4234C239.586 98.4447 239.377 98.5007 239.181 98.5891Z" fill="#EB996E"/>
<path d="M243.893 103.704C243.893 103.704 243.756 103.891 243.771 104.295C243.791 104.578 243.877 104.852 244.022 105.096C244.167 105.34 244.367 105.547 244.606 105.7C244.976 105.912 245.394 106.024 245.82 106.024C246.246 106.024 246.665 105.912 247.034 105.7C247.922 105.187 248.578 104.351 248.864 103.365C249.177 102.401 249.177 101.362 248.864 100.397C248.608 99.6179 248.148 98.9213 247.531 98.3804C247.124 98.0166 246.653 97.7331 246.141 97.5448C245.959 97.4574 245.759 97.4131 245.557 97.4151C246.199 97.726 246.795 98.1235 247.329 98.5965C247.934 99.1861 248.361 99.9334 248.562 100.753C248.763 101.573 248.73 102.433 248.467 103.236C248.21 104.121 247.632 104.879 246.847 105.361C246.533 105.545 246.177 105.647 245.813 105.657C245.449 105.667 245.088 105.585 244.765 105.419C244.55 105.293 244.365 105.124 244.22 104.921C244.076 104.719 243.977 104.488 243.929 104.244C243.857 103.927 243.929 103.704 243.893 103.704Z" fill="#EB996E"/>
<path d="M234.801 108.199C234.516 108.006 234.18 107.903 233.836 107.903C232.957 107.818 232.075 108.028 231.329 108.501L231.639 108.71C231.736 108.235 231.803 107.753 231.84 107.269C232.093 104.489 231.207 102.342 231.12 102.4C231.397 103.995 231.501 105.616 231.43 107.233C231.395 107.695 231.335 108.154 231.25 108.609L231.163 109.078L231.56 108.811C232.234 108.37 233.023 108.135 233.829 108.134C234.427 108.148 234.787 108.249 234.801 108.199Z" fill="#EB996E"/>
<path d="M240.486 91.1407C240.371 91.1407 240.529 92.0051 241.293 92.6679C242.056 93.3307 242.914 93.3883 242.914 93.2658C242.914 93.1434 242.229 92.9345 241.574 92.3509C240.918 91.7674 240.601 91.0975 240.486 91.1407Z" fill="#EB996E"/>
<path d="M155.249 194.951L183.812 195.232L179.022 174.506L180.628 178.418C182.109 182.029 184.63 185.119 187.872 187.293C191.114 189.468 194.929 190.628 198.832 190.628C207.866 190.628 214.111 183.907 217.93 175.724C226.862 156.59 235.471 125.779 235.471 125.779L218.059 110.478C205.452 134.323 193.609 155.027 193.609 155.027C193.609 155.027 190.188 144.632 187.544 135.353C184.9 126.075 184.922 121.205 180.866 116.58C174.62 109.463 165.738 107.698 157.468 105.565L157.158 144.063L155.249 194.951Z" fill="#00C49A"/>
<path d="M122.565 166.307L174.577 176.392L177.105 196.376H97.3589C95.176 196.403 93.0114 195.974 91.0034 195.117C88.9954 194.261 87.188 192.995 85.6967 191.401C84.2054 189.806 83.0629 187.918 82.3421 185.858C81.6213 183.797 81.3381 181.609 81.5105 179.432C82.6559 164.866 83.9022 146.929 84.8531 139.343C85.5734 133.429 87.9507 127.313 90.7386 122.054C94.7656 114.476 108.186 104.765 119.95 104.261L122.176 153.801" fill="#00C49A"/>
<g opacity="0.4">
<path d="M155.25 194.937L183.813 195.218L179.023 174.492L180.629 178.404C182.11 182.016 184.631 185.105 187.873 187.279C191.115 189.454 194.93 190.615 198.833 190.615C207.867 190.615 214.112 183.893 217.93 175.71C226.863 156.576 235.472 125.766 235.472 125.766L218.06 110.465C205.453 134.309 193.61 155.013 193.61 155.013C193.61 155.013 190.189 144.618 187.545 135.34C184.901 126.061 184.923 121.191 180.867 116.566C174.621 109.449 165.739 107.684 157.469 105.552L157.159 144.049L155.25 194.937Z" fill="#FF6812"/>
<path d="M122.566 166.336L169.478 174.937C170.433 175.114 171.315 175.571 172.012 176.249C172.708 176.928 173.187 177.797 173.389 178.748L177.106 196.448H97.3599C95.177 196.475 93.0124 196.046 91.0044 195.19C88.9964 194.333 87.189 193.067 85.6977 191.473C84.2064 189.878 83.0639 187.991 82.3431 185.93C81.6223 183.869 81.339 181.681 81.5115 179.505C82.6569 164.939 83.9031 147.001 84.854 139.415C85.5744 133.501 87.9517 127.385 90.7396 122.126C94.7665 114.548 108.187 104.837 119.951 104.333L122.177 153.874" fill="#FF6812"/>
</g>
<path d="M112.66 164.882C112.641 164.724 112.641 164.564 112.66 164.406C112.66 164.053 112.66 163.6 112.66 163.045C112.66 161.813 112.66 160.113 112.66 158.002C112.66 153.774 112.581 147.917 112.257 141.484C112.091 138.257 111.882 135.188 111.659 132.407C111.554 129.939 111.204 127.487 110.614 125.088C110.202 123.487 109.417 122.006 108.323 120.766C107.9 120.333 107.452 119.924 106.983 119.541C107.533 119.824 108.032 120.196 108.46 120.643C109.626 121.874 110.466 123.377 110.902 125.016C111.531 127.434 111.908 129.911 112.026 132.407C112.271 135.195 112.487 138.264 112.653 141.491C112.984 147.974 113.02 153.802 112.948 158.06C112.905 160.178 112.847 161.892 112.797 163.102L112.718 164.464C112.715 164.605 112.696 164.745 112.66 164.882Z" fill="#263238"/>
<path d="M173.569 177.873C173.02 177.266 172.381 176.749 171.674 176.338C170.833 175.88 169.941 175.525 169.016 175.279C167.942 174.969 166.682 174.732 165.291 174.451C159.73 173.313 152.058 171.735 143.557 170.128C135.057 168.522 127.32 167.247 121.723 166.354L115.088 165.295L113.287 164.992C113.075 164.966 112.865 164.923 112.66 164.863C112.873 164.864 113.085 164.883 113.294 164.92L115.109 165.151C116.68 165.36 118.956 165.677 121.759 166.094C127.37 166.93 135.115 168.169 143.622 169.761C152.13 171.353 159.802 172.967 165.342 174.163C166.732 174.465 167.993 174.725 169.073 175.056C170.009 175.321 170.907 175.703 171.746 176.194C172.285 176.498 172.772 176.888 173.187 177.347C173.298 177.461 173.399 177.583 173.489 177.714C173.54 177.801 173.576 177.873 173.569 177.873Z" fill="#263238"/>
<path d="M112.819 164.863C112.819 164.927 111.861 165.151 110.377 165.756C109.511 166.114 108.669 166.528 107.856 166.995C106.873 167.581 105.936 168.241 105.054 168.969C104.195 169.713 103.396 170.522 102.662 171.389C102.058 172.104 101.505 172.86 101.005 173.651C100.155 175.013 99.766 175.935 99.7012 175.906C99.746 175.674 99.8211 175.449 99.9245 175.236C100.17 174.644 100.454 174.069 100.775 173.514C101.256 172.692 101.797 171.907 102.395 171.166C103.874 169.352 105.683 167.834 107.726 166.692C108.554 166.225 109.419 165.828 110.312 165.504C110.913 165.279 111.53 165.099 112.157 164.963C112.372 164.899 112.595 164.865 112.819 164.863Z" fill="#263238"/>
<path d="M179.98 177.258C179.931 177.096 179.895 176.929 179.872 176.761C179.815 176.401 179.736 175.925 179.642 175.32C179.44 174.074 179.174 172.273 178.871 170.04C178.266 165.581 177.531 159.4 176.912 152.556C176.292 145.713 175.925 139.503 175.723 135C175.622 132.753 175.565 130.93 175.536 129.67C175.536 129.069 175.536 128.589 175.536 128.229C175.52 128.061 175.52 127.892 175.536 127.725C175.575 127.89 175.594 128.059 175.593 128.229L175.687 129.67C175.766 130.966 175.867 132.774 175.997 134.986C176.263 139.481 176.681 145.684 177.293 152.52C177.906 159.357 178.605 165.537 179.145 170.004C179.411 172.208 179.635 174.002 179.793 175.299C179.858 175.897 179.916 176.372 179.959 176.739C179.988 176.911 179.995 177.085 179.98 177.258Z" fill="#263238"/>
<path d="M197.227 169.597C197.227 169.597 197.062 169.439 196.809 169.122C196.46 168.662 196.14 168.181 195.851 167.681C193.918 164.381 193.027 160.575 193.294 156.76C193.33 156.186 193.407 155.616 193.524 155.053C193.55 154.843 193.603 154.637 193.683 154.44C193.748 154.44 193.611 155.334 193.56 156.774C193.44 160.535 194.31 164.261 196.082 167.58C196.759 168.826 197.285 169.554 197.227 169.597Z" fill="#263238"/>
<path d="M112.451 138.052C112.451 138.052 112.357 138.088 112.184 138.11C111.924 138.152 111.662 138.178 111.399 138.189C110.432 138.23 109.465 138.152 108.517 137.959C107.11 137.676 105.736 137.246 104.418 136.676C102.927 136.057 101.342 135.236 99.6854 134.436C98.1343 133.657 96.5284 132.992 94.8804 132.448C93.5431 131.999 92.1532 131.725 90.7454 131.634C89.4414 131.591 88.1382 131.739 86.877 132.073C86.9544 132.022 87.0395 131.983 87.1291 131.958C87.3625 131.856 87.6033 131.771 87.8495 131.706C88.7885 131.454 89.7594 131.342 90.731 131.374C92.1693 131.419 93.5946 131.662 94.9669 132.095C96.6361 132.632 98.2597 133.301 99.8222 134.097C101.486 134.919 103.057 135.725 104.526 136.352C105.82 136.927 107.166 137.376 108.546 137.692C109.83 137.955 111.14 138.075 112.451 138.052Z" fill="#FAFAFA"/>
<path d="M121.391 136.324C120.007 136.746 118.59 137.049 117.155 137.232C115.733 137.542 114.287 137.722 112.833 137.772C114.216 137.351 115.633 137.047 117.068 136.865C118.49 136.555 119.937 136.374 121.391 136.324Z" fill="#FAFAFA"/>
<path d="M112.127 151.771C111.795 151.958 111.445 152.11 111.082 152.224C110.398 152.491 109.396 152.851 108.15 153.254C104.891 154.3 101.565 155.123 98.1945 155.718C96.2206 156.064 94.326 156.316 92.5971 156.489C91.0637 156.687 89.514 156.728 87.9722 156.611C86.9264 156.527 85.9078 156.236 84.9754 155.754C84.7219 155.622 84.4808 155.468 84.2551 155.293C84.1719 155.236 84.0968 155.168 84.0317 155.091C84.0317 155.091 84.3775 155.315 85.0331 155.625C85.9668 156.046 86.9708 156.29 87.9938 156.345C89.5168 156.424 91.0438 156.356 92.5539 156.143C94.2756 155.949 96.1558 155.689 98.1224 155.344C101.477 154.749 104.796 153.967 108.064 153.002C109.317 152.628 110.326 152.282 111.024 152.087C111.384 151.955 111.752 151.849 112.127 151.771Z" fill="#FAFAFA"/>
<path d="M121.154 155.63C119.856 155.837 118.542 155.921 117.228 155.883C115.918 155.965 114.604 155.924 113.302 155.76C114.6 155.554 115.914 155.47 117.228 155.508C118.537 155.425 119.852 155.466 121.154 155.63Z" fill="#FAFAFA"/>
<path d="M84.083 188.368C84.0913 188.235 84.118 188.104 84.1623 187.979C84.2343 187.691 84.3351 187.338 84.4504 186.898L84.6665 186.12C84.7602 185.839 84.8826 185.544 84.9979 185.22C85.2569 184.484 85.5551 183.763 85.8912 183.059L86.4747 181.827C86.6836 181.395 86.9501 180.977 87.1951 180.53C87.7384 179.585 88.3299 178.669 88.9672 177.785C91.9102 173.717 95.7474 170.377 100.184 168.024C101.148 167.514 102.139 167.055 103.152 166.648C103.634 166.468 104.081 166.259 104.535 166.115L105.839 165.705C106.586 165.467 107.346 165.272 108.115 165.121C108.454 165.049 108.763 164.97 109.051 164.919L109.858 164.811L110.968 164.675C111.097 164.655 111.228 164.655 111.357 164.675C111.234 164.722 111.106 164.753 110.975 164.768L109.88 164.977L109.087 165.114L108.158 165.344C107.495 165.525 106.717 165.676 105.918 165.978L104.636 166.411C104.189 166.562 103.742 166.771 103.274 166.958C102.276 167.372 101.3 167.836 100.349 168.348C98.183 169.547 96.1435 170.961 94.262 172.57C92.4036 174.21 90.7143 176.032 89.2193 178.009C88.571 178.945 87.9298 179.824 87.44 180.71C87.1879 181.15 86.9213 181.56 86.7196 181.985L86.1145 183.195C85.7039 183.959 85.4517 184.694 85.178 185.357C85.0555 185.674 84.9259 185.969 84.825 186.243L84.5729 187.006L84.2199 188.065C84.1854 188.171 84.1395 188.272 84.083 188.368Z" fill="#FAFAFA"/>
<path d="M120.21 166.283C119.005 167.33 118.003 168.59 117.256 170C116.47 171.542 115.912 173.19 115.599 174.892C115.227 176.985 114.986 179.1 114.879 181.224C114.789 183.363 114.548 185.494 114.158 187.599C113.806 189.325 113.196 190.989 112.35 192.534C111.785 193.57 111.055 194.506 110.189 195.307C109.953 195.526 109.7 195.726 109.433 195.905C109.253 196.028 109.152 196.093 109.145 196.078C110.371 195.055 111.393 193.808 112.156 192.404C112.954 190.871 113.526 189.231 113.856 187.534C114.239 185.443 114.48 183.327 114.576 181.202C114.67 179.061 114.91 176.928 115.297 174.82C115.632 173.094 116.225 171.428 117.054 169.878C117.621 168.832 118.35 167.884 119.215 167.068C119.442 166.851 119.683 166.649 119.936 166.463C120.019 166.392 120.111 166.331 120.21 166.283Z" fill="#FAFAFA"/>
<path d="M132.507 196.557C132.406 196.557 132.507 190.347 132.773 182.697C133.04 175.046 133.314 168.844 133.414 168.844C133.515 168.844 133.414 175.054 133.148 182.711C132.881 190.369 132.608 196.564 132.507 196.557Z" fill="#FAFAFA"/>
<path d="M152.059 195.504C151.923 195.215 151.817 194.913 151.742 194.603C151.625 194.248 151.526 193.888 151.446 193.523C151.353 193.098 151.223 192.615 151.144 192.082C150.92 190.811 150.792 189.525 150.762 188.235C150.691 185.065 151.179 181.907 152.203 178.906C152.62 177.684 153.128 176.494 153.723 175.347C153.961 174.85 154.227 174.432 154.443 174.058C154.626 173.732 154.828 173.417 155.048 173.114C155.209 172.839 155.4 172.583 155.617 172.351C155.682 172.387 154.897 173.503 153.953 175.47C153.393 176.617 152.912 177.801 152.513 179.014C151.526 181.984 151.039 185.098 151.072 188.228C151.088 189.503 151.187 190.776 151.367 192.039C151.727 194.185 152.131 195.482 152.059 195.504Z" fill="#FAFAFA"/>
<path d="M118.856 115.841C118.856 115.899 117.718 115.402 115.845 114.797C110.966 113.222 105.796 112.764 100.716 113.457C98.7714 113.723 97.5828 114.026 97.5684 113.961C97.8267 113.836 98.1004 113.747 98.3824 113.695C99.1361 113.486 99.9009 113.32 100.673 113.197C105.791 112.347 111.041 112.811 115.931 114.545C116.666 114.804 117.387 115.099 118.092 115.431C118.363 115.536 118.619 115.673 118.856 115.841Z" fill="#FAFAFA"/>
<path d="M175.767 146.161C174.876 146.208 173.983 146.193 173.094 146.118C171.444 146.053 169.168 145.967 166.654 145.909C164.14 145.852 161.863 145.816 160.214 145.801C159.322 145.83 158.429 145.798 157.541 145.708C157.777 145.652 158.019 145.623 158.261 145.621C158.722 145.621 159.392 145.556 160.221 145.535C161.871 145.484 164.147 145.47 166.668 145.535C169.19 145.6 171.466 145.729 173.152 145.866C173.973 145.931 174.636 145.989 175.097 146.046C175.324 146.061 175.548 146.099 175.767 146.161Z" fill="#FAFAFA"/>
<path d="M189.987 143.456C189.987 143.521 189.087 143.831 187.682 144.522C184.007 146.33 180.894 149.104 178.677 152.547C177.827 153.866 177.417 154.744 177.359 154.708C177.399 154.481 177.477 154.262 177.589 154.06C177.842 153.488 178.131 152.932 178.454 152.396C179.511 150.615 180.837 149.008 182.387 147.634C183.933 146.256 185.679 145.122 187.567 144.27C188.136 144.014 188.721 143.792 189.317 143.607C189.533 143.528 189.758 143.477 189.987 143.456Z" fill="#FAFAFA"/>
<path d="M182.967 120.361C181.727 120.319 180.488 120.492 179.307 120.873C178.033 121.318 176.796 121.867 175.612 122.515C174.149 123.326 172.622 124.013 171.045 124.568C168.13 125.502 165.029 125.703 162.018 125.152C161.113 124.988 160.224 124.747 159.36 124.431C159.037 124.33 158.725 124.195 158.431 124.028C158.431 123.956 159.785 124.525 162.033 124.892C165.002 125.356 168.038 125.122 170.901 124.208C172.46 123.656 173.974 122.987 175.432 122.205C176.638 121.565 177.899 121.035 179.199 120.621C180.084 120.34 181.009 120.206 181.937 120.224C182.178 120.231 182.419 120.255 182.657 120.296C182.88 120.325 182.974 120.347 182.967 120.361Z" fill="#FAFAFA"/>
<path d="M179.374 168.578C179.112 168.744 178.832 168.877 178.538 168.974C178.264 169.09 177.926 169.226 177.522 169.356C177.119 169.486 176.665 169.659 176.153 169.788C174.947 170.124 173.72 170.38 172.48 170.552C170.961 170.749 169.429 170.828 167.898 170.79C166.367 170.733 164.843 170.562 163.338 170.278C162.116 170.031 160.913 169.702 159.736 169.291C159.224 169.133 158.785 168.938 158.396 168.78C158.007 168.621 157.676 168.47 157.402 168.34C157.115 168.221 156.842 168.071 156.588 167.894C156.588 167.829 157.805 168.405 159.822 169.039C161.004 169.411 162.206 169.709 163.424 169.932C166.404 170.484 169.45 170.576 172.458 170.206C173.686 170.055 174.903 169.829 176.103 169.529C178.135 169.01 179.352 168.513 179.374 168.578Z" fill="#FAFAFA"/>
<path d="M195.93 189.98C195.827 189.915 195.733 189.838 195.649 189.749C195.483 189.584 195.21 189.36 194.929 189.029C194.059 188.099 193.295 187.074 192.652 185.975C190.573 182.291 189.468 178.138 189.439 173.908C189.444 169.708 189.994 165.526 191.075 161.467C191.464 159.911 191.795 158.658 192.062 157.801C192.184 157.404 192.285 157.08 192.364 156.814C192.443 156.547 192.479 156.468 192.494 156.475C192.492 156.595 192.473 156.714 192.436 156.828C192.379 157.102 192.299 157.433 192.206 157.837C191.99 158.766 191.694 159.998 191.334 161.532C190.34 165.578 189.834 169.728 189.828 173.894C189.852 178.056 190.893 182.149 192.861 185.816C193.478 186.915 194.202 187.95 195.022 188.907C195.592 189.598 195.952 189.951 195.93 189.98Z" fill="#FAFAFA"/>
<path d="M222.142 165.516C220.991 164.603 219.705 163.874 218.331 163.355C216.828 162.835 215.286 162.433 213.721 162.152C211.776 161.824 209.851 161.384 207.957 160.834C204.537 159.721 201.416 157.844 198.83 155.344C198.05 154.59 197.328 153.779 196.669 152.917C196.431 152.614 196.273 152.362 196.158 152.196C196.042 152.031 195.992 151.937 196.006 151.93C196.285 152.21 196.545 152.509 196.784 152.823C197.476 153.646 198.219 154.423 199.01 155.15C201.607 157.56 204.697 159.376 208.066 160.473C209.94 161.02 211.842 161.468 213.764 161.813C215.343 162.116 216.894 162.547 218.403 163.103C219.422 163.488 220.379 164.022 221.241 164.688C221.477 164.865 221.699 165.06 221.904 165.271C222.084 165.43 222.156 165.509 222.142 165.516Z" fill="#FAFAFA"/>
<path d="M230.385 141.446C230.108 141.248 229.85 141.024 229.614 140.777C229.377 140.553 229.089 140.279 228.728 139.977C228.368 139.674 228.008 139.314 227.518 138.968C226.454 138.11 225.338 137.318 224.176 136.598C221.325 134.835 218.227 133.51 214.984 132.665C213.658 132.324 212.313 132.062 210.957 131.88C210.38 131.786 209.854 131.75 209.393 131.707C208.932 131.664 208.529 131.628 208.205 131.613C207.864 131.612 207.524 131.58 207.189 131.52C207.525 131.468 207.865 131.451 208.205 131.469C208.605 131.449 209.007 131.449 209.408 131.469C209.869 131.469 210.409 131.505 210.993 131.584C212.364 131.734 213.723 131.975 215.063 132.305C216.704 132.725 218.312 133.265 219.875 133.918C221.425 134.594 222.923 135.384 224.356 136.281C225.521 137.025 226.635 137.846 227.691 138.738C228.152 139.105 228.527 139.458 228.872 139.804C229.168 140.073 229.449 140.356 229.715 140.654C229.966 140.893 230.191 141.159 230.385 141.446Z" fill="#FAFAFA"/>
<path d="M167.351 108.411C166.928 108.693 166.468 108.914 165.983 109.067C164.846 109.513 163.678 109.874 162.489 110.147C161.304 110.427 160.1 110.619 158.887 110.724C158.385 110.8 157.875 110.8 157.374 110.724C157.374 110.608 159.658 110.421 162.417 109.766C165.176 109.11 167.308 108.303 167.351 108.411Z" fill="#FAFAFA"/>
<path d="M192.905 209.846C192.998 210.168 193.01 210.508 192.938 210.835C192.867 211.162 192.714 211.465 192.495 211.718C192.276 211.971 191.997 212.165 191.683 212.283C191.37 212.4 191.032 212.437 190.7 212.389C190.316 212.335 189.956 212.17 189.664 211.914C189.373 211.658 189.162 211.323 189.058 210.949L188.445 208.687H188.539C188.602 209.013 188.585 209.35 188.492 209.669C188.399 209.988 188.231 210.281 188.002 210.522C187.773 210.764 187.49 210.947 187.177 211.058C186.863 211.168 186.527 211.202 186.198 211.158C185.254 211.158 184.44 209.782 184.166 209.054C183.454 209.123 182.736 208.996 182.091 208.686C181.446 208.376 180.898 207.896 180.507 207.296L176.278 200.698L168.448 194.971L173.188 178.049L190.038 188.955C190.7 189.474 190.801 189.676 191.853 190.663L202.731 200.669C201.499 201.389 200.454 201.353 198.74 200.669C197.025 199.984 189.519 194.906 189.519 194.906L192.905 209.782" fill="#FFBE9D"/>
<path d="M178.488 195.964C178.488 195.964 178.683 196.05 178.985 196.259L179.547 196.648C179.814 196.816 180.057 197.019 180.268 197.253C180.517 197.54 180.712 197.869 180.844 198.226C180.974 198.608 181.11 198.997 181.255 199.407L182.177 202.116C182.818 204.046 183.38 205.79 183.769 207.065C184.015 207.741 184.2 208.438 184.323 209.147C183.996 208.504 183.726 207.834 183.517 207.144C183.063 205.891 182.458 204.162 181.816 202.238C181.507 201.28 181.204 200.365 180.923 199.522C180.794 199.105 180.671 198.708 180.549 198.334C180.441 198.004 180.278 197.694 180.066 197.419C179.884 197.194 179.676 196.991 179.446 196.814L178.928 196.374C178.618 196.129 178.474 195.985 178.488 195.964Z" fill="#EB996E"/>
<path d="M188.626 209.107C188.519 208.877 188.439 208.636 188.388 208.387L187.848 206.456C187.387 204.828 186.775 202.573 185.99 200.117C185.204 197.66 184.383 195.47 183.396 194.116C183.028 193.575 182.561 193.108 182.02 192.74C181.624 192.495 181.372 192.423 181.379 192.38C181.446 192.378 181.512 192.391 181.574 192.416C181.753 192.462 181.927 192.527 182.092 192.611C182.69 192.944 183.209 193.404 183.612 193.958C184.686 195.326 185.55 197.56 186.343 200.002C187.135 202.444 187.711 204.742 188.1 206.391C188.295 207.213 188.439 207.883 188.532 208.351C188.602 208.597 188.633 208.852 188.626 209.107Z" fill="#EB996E"/>
<path d="M192.976 210.046C192.846 209.807 192.747 209.553 192.681 209.289C192.501 208.713 192.278 208.014 192.011 207.186C191.464 205.407 190.736 202.943 189.951 200.22C189.166 197.497 188.51 195.105 187.97 193.232C187.784 192.538 187.38 191.922 186.817 191.474C186.589 191.327 186.348 191.202 186.097 191.1C186.168 191.083 186.242 191.083 186.313 191.1C186.515 191.145 186.708 191.226 186.882 191.337C187.511 191.77 187.975 192.402 188.2 193.131C188.791 194.911 189.49 197.374 190.289 200.097C191.089 202.82 191.766 205.306 192.249 207.099C192.465 207.935 192.652 208.648 192.796 209.261C192.884 209.515 192.944 209.778 192.976 210.046Z" fill="#EB996E"/>
<path d="M295.341 53.8328C295.341 54.3315 295.489 54.819 295.766 55.2336C296.043 55.6482 296.437 55.9714 296.897 56.1622C297.358 56.3531 297.865 56.403 298.354 56.3057C298.843 56.2084 299.292 55.9683 299.645 55.6157C299.998 55.263 300.238 54.8138 300.335 54.3247C300.432 53.8356 300.382 53.3286 300.192 52.8679C300.001 52.4072 299.678 52.0134 299.263 51.7364C298.848 51.4593 298.361 51.3115 297.862 51.3115C297.193 51.3115 296.552 51.5771 296.079 52.05C295.606 52.5228 295.341 53.1641 295.341 53.8328Z" fill="#455A64"/>
<path d="M287.769 56.3541C289.162 56.3541 290.291 55.2253 290.291 53.8328C290.291 52.4403 289.162 51.3115 287.769 51.3115C286.377 51.3115 285.248 52.4403 285.248 53.8328C285.248 55.2253 286.377 56.3541 287.769 56.3541Z" fill="#455A64"/>
<path d="M275.187 52.5738C274.937 53.0057 274.822 53.5018 274.854 53.9995C274.886 54.4971 275.066 54.974 275.369 55.3698C275.673 55.7655 276.087 56.0624 276.559 56.2228C277.031 56.3832 277.54 56.4 278.022 56.271C278.504 56.142 278.937 55.873 279.265 55.498C279.594 55.1231 279.805 54.6591 279.87 54.1646C279.935 53.6701 279.852 53.1675 279.631 52.7202C279.411 52.2729 279.062 51.9011 278.63 51.6518C278.344 51.4853 278.027 51.3772 277.699 51.3335C277.371 51.2897 277.037 51.3113 276.717 51.397C276.397 51.4827 276.097 51.6308 275.835 51.8327C275.572 52.0347 275.352 52.2866 275.187 52.5738Z" fill="#455A64"/>
<path d="M287.613 24.4215C287.445 24.4089 287.277 24.4089 287.109 24.4215L285.61 24.4648C285.279 24.4648 284.89 24.4648 284.501 24.5152L283.183 24.7025L281.641 24.9258L279.912 25.3508C276.951 26.0861 274.13 27.3029 271.563 28.9527C267.766 31.3702 264.573 34.6234 262.225 38.4638C259.878 42.3043 258.44 46.6303 258.02 51.1116C257.907 52.4557 257.88 53.8056 257.941 55.153C257.991 55.8301 257.977 56.5289 258.078 57.2133C258.178 57.8976 258.287 58.5964 258.387 59.2952C258.915 62.1581 259.862 64.9277 261.197 67.5147C262.619 70.2252 264.426 72.7149 266.564 74.9058C268.841 77.145 271.451 79.0185 274.301 80.46C277.249 81.9689 280.442 82.9444 283.73 83.3415C284.563 83.4656 285.403 83.5354 286.244 83.5504C287.09 83.6141 287.939 83.631 288.787 83.6008C290.498 83.5302 292.199 83.3157 293.873 82.9597C297.487 82.1766 300.925 80.728 304.009 78.6878L303.706 78.7239L314.029 82.866L314.642 83.111L314.469 82.477L311.429 71.4408L311.378 71.7073C314.181 67.9966 316.069 63.6776 316.889 59.1007C317.285 56.9637 317.42 54.7867 317.293 52.6172C317.268 51.5766 317.17 50.539 316.997 49.5124C316.921 49.0033 316.841 48.4991 316.76 47.9996C316.673 47.5025 316.522 47.0199 316.4 46.5588C314.67 39.7719 310.585 33.8205 304.873 29.7668C302.766 28.2579 300.46 27.0459 298.023 26.1649L296.474 25.6102L295.033 25.2356L293.693 24.9042C293.261 24.8249 292.843 24.7817 292.454 24.7169C291.676 24.6232 291.013 24.4864 290.387 24.4576L288.874 24.4071H287.945C287.839 24.3994 287.733 24.3994 287.628 24.4071C287.73 24.4397 287.837 24.4544 287.945 24.4503L288.867 24.5296L290.372 24.6304C290.97 24.6737 291.647 24.8249 292.425 24.9402C298.029 25.9138 303.23 28.4932 307.396 32.3653C311.562 36.2374 314.515 41.2357 315.895 46.7533C316.003 47.2288 316.155 47.7042 316.241 48.1941C316.327 48.684 316.385 49.1738 316.464 49.6781C316.629 50.6859 316.721 51.7043 316.738 52.7253C316.851 54.8451 316.711 56.9709 316.32 59.0574C315.484 63.534 313.611 67.7527 310.853 71.376L310.759 71.4984L310.802 71.6497C311.763 75.2132 312.766 78.8943 313.813 82.6931L314.253 82.3041L303.93 78.1475L303.771 78.0827L303.62 78.1764C299.193 81.1098 294.044 82.7695 288.737 82.9741C287.908 83.003 287.079 82.9886 286.252 82.9309C285.429 82.9159 284.608 82.8461 283.795 82.722C280.58 82.3329 277.458 81.3794 274.574 79.9053C271.786 78.4945 269.23 76.6652 266.996 74.4808C264.9 72.346 263.124 69.9196 261.723 67.277C260.422 64.7379 259.5 62.0221 258.985 59.2159C258.877 58.4956 258.769 57.8544 258.668 57.1773C258.567 56.5001 258.582 55.8229 258.531 55.153C258.464 53.8324 258.483 52.5089 258.589 51.1909C258.982 46.7799 260.373 42.5162 262.659 38.723C264.944 34.9299 268.063 31.7069 271.779 29.2985C274.302 27.6299 277.077 26.3795 279.999 25.5957L281.699 25.1419L283.226 24.8898L284.537 24.6737C284.941 24.6304 285.308 24.616 285.632 24.5944L287.123 24.4864C287.288 24.482 287.453 24.4603 287.613 24.4215Z" fill="#455A64"/>
</svg>
